/* XPM */
static char *result[] = {
/* columns rows colors chars-per-pixel */
"32 32 26 1 ",
"  c #000007",
". c #000009",
"X c #00000A",
"o c #00000B",
"O c #00000D",
"+ c #00000E",
"@ c #000010",
"# c #000014",
"$ c #26170C",
"% c #151522",
"& c #161625",
"* c #141426",
"= c #191928",
"- c #19192B",
"; c #1B1B2B",
": c #1D1D32",
"> c #202036",
", c #222237",
"< c #363433",
"1 c #413125",
"2 c #313147",
"3 c #35354D",
"4 c #3A3A54",
"5 c #4F4C4B",
"6 c #624F40",
"7 c #7C7C7C",
/* pixels */
"@@@@@@@@@@##OOOOO@@@@@@@@@@##@@@",
"43333>>##44444434333:>4++4444444",
">:>>::>##4>>>>>>::>:::>#+>>>444>",
">>>>>>>##>>+++++++++++;+X>>>44>>",
">>>>>>;##;+*+++++++++4+X+>>>>>>>",
">>>>>>;##+,+$$$$$$$$$+4++>>>>>>>",
";;;;;;;#+,+$$611$611$$+4+>>>>>&&",
"#ooooo++,+$1$611$611$6$+,+++oo##",
"O@####+4,+$1$611$611$6$+,,+@@@@@",
"X43334+*+$$1$611$611$6$$+*+3333#",
"O4>>>:+,+$61$611$611$61$+*+>>>3@",
"O->>>>+4+$$$$$$$$$$$$$$$+4+>>>3O",
"#%>>::++$676667666766676$++>>>:O",
"@%>::>++$111111111111111$++;;;>O",
"O%;;;;+4+$$$$$$$$$$$$$$$+*+;;;;O",
"o+++#@+,+$61$611$611$61$+*+#+oo ",
"#@@@oo+,+$61$611$611$61$+*+oo@@@",
"444444+,+$<7<611$611$61$+,+33333",
">>>>--+,+$65$611$611$61$+*+>>233",
">->>>-+,+$65$611$611$61$+*+>>:>>",
">>->>-+,+$65$611$611$61$+,+>:>>>",
">>>->-+4+$65$611$611$61$+,+>:>>>",
">>-->>+4+$65$611$611$61$+4+;=;;;",
"+++o@@+,+$<7<611$611$61$+,+.+o+#",
".o+++++,+$61$611$611$61$+,+@@@++",
"o33433+,+$61$611$611$61$+4+3344#",
"o3443>+,+$$$$$$$$$$$$$$$+4+:::>@",
"+3>>:>++$676667666766676$++>>>>@",
"+>>>>>++$111111111111171$++-->>@",
"+;>>>>+4+$$$$$$$$$$$$$$$+4+>->>@",
"+;;;%%+,+$61$611$611$61$+4+;;;;@",
"##@@@@+,+$61$611$611$61$+4+@OO#@"
};
