/* XPM */
static char *result[] = {
/* columns rows colors chars-per-pixel */
"32 32 31 1 ",
"  c black",
". c #000001",
"X c #000002",
"o c #000003",
"O c #000004",
"+ c #000005",
"@ c #000006",
"# c #000007",
"$ c #000008",
"% c #000009",
"& c #00000A",
"* c #00000B",
"= c #00000C",
"- c #00000D",
"; c #00000E",
": c #00000F",
"> c #000010",
", c #000011",
"< c #000012",
"1 c #000013",
"2 c #000014",
"3 c #161625",
"4 c #191928",
"5 c #1B1B2B",
"6 c #1B1B2E",
"7 c #1D1D32",
"8 c #202036",
"9 c #23233B",
"0 c #35354D",
"q c #3A3A54",
"w c #D2CB22",
/* pixels */
";++o;&;>&@;+@;;++++X++X+++X;;+++",
"q000088>;qqqqqq0q00078q;;qqqqqqq",
"8788778>;q88888877877782;888qqq8",
"8888888>;88777777877885;&888qq88",
"8888885>;58788777675585&;8888888",
"8888885>;58888885455555&;8888888",
"5555555>;55555555555555;;8888833",
";&;++;;;&;&>>2;;;;;;22;2&;;;;&;;",
"&&XXXoo&O**+ooo&%&&+X%+>ooo+;+o&",
"+*$%%$$%%&&%&**&&&;;;&&;&o=&&XX*",
"&-%&%;;-;**%%*+&&**;;+X=;;>;>%:>",
"<>>>--::>*+&%*w &w*&*+%+%=%$;%X*",
":.2>>>-;;>+*&@**&&&X*+&%%*-$>$>2",
"$$>-<>>-&**&%****+*o-;;;o&->>-%;",
"$$>%<---&&----%%&&%;---$%;-$;==;",
"$-<<<---&--%%o&&o&;&X&%X%*-$%;*%",
"&$><$&:$&*;&;++&>>>;;>*$=->>>&;%",
"$-><$-;$;q000q0000qqqqq2*;:%%;%X",
"%;;<.&&$;q8877788788870=+;;&X*XX",
"$-=<X$;$;88877788888778;&-=wX+wX",
"$>;,&$&$288878588888788&-;>*&&=X",
"o<o<;$&%&58778554887855;-;&*;&=o",
"&<X<-$=&o55555554444555;&;%;<:>%",
"$1o>>-*&O;;;*&;*;;****>O%&%*&$>;",
"$1*:;-=&O;**>;&$>>*;;&;@>+**++;o",
".1->%:%&o&;;&##&*0q00qqqq0000q9;",
".1%:%;&&##&=oo#o&677888qq777778>",
".:$;-*&2##w#%w&o-58888888888833;",
"$-&>-:>>#&%&-;;;>58888888888833>",
".&;;o#>-%&%&-%*;>58888885588833o",
".;;>&&&&%&=*#>>&@55555555555555;",
"Xo&&&o&;&ooo+++&o;;;++++;+++++;+"
};
