/* XPM */
static char * beninoexit1_xpm[] = {
"32 32 206 2",
"  	c #000010",
". 	c #000014",
"+ 	c #00000D",
"@ 	c #00000B",
"# 	c #000000",
"$ 	c #000007",
"% 	c #00000E",
"& 	c #000003",
"* 	c #3A3A54",
"= 	c #35354D",
"- 	c #202036",
"; 	c #2E2E44",
"> 	c #181825",
", 	c #151527",
"' 	c #18182A",
") 	c #11111C",
"! 	c #000002",
"~ 	c #33334A",
"{ 	c #1D1D32",
"] 	c #19192C",
"^ 	c #3B4C17",
"/ 	c #3D4E16",
"( 	c #364513",
"_ 	c #28340D",
": 	c #222B1B",
"< 	c #1B1B2F",
"[ 	c #010307",
"} 	c #5C7425",
"| 	c #5F7826",
"1 	c #556B22",
"2 	c #41521A",
"3 	c #324114",
"4 	c #131424",
"5 	c #1B1B2B",
"6 	c #141426",
"7 	c #F4FA93",
"8 	c #5B7324",
"9 	c #556C22",
"0 	c #485B1D",
"a 	c #324115",
"b 	c #131524",
"c 	c #222237",
"d 	c #26170C",
"e 	c #0D0A09",
"f 	c #475A1C",
"g 	c #624F40",
"h 	c #413125",
"i 	c #1A1511",
"j 	c #5D7525",
"k 	c #F3F408",
"l 	c #F2F406",
"m 	c #C9CE16",
"n 	c #161625",
"o 	c #60A324",
"p 	c #972B6D",
"q 	c #42548D",
"r 	c #324013",
"s 	c #526920",
"t 	c #556C21",
"u 	c #3A4A17",
"v 	c #3A4A16",
"w 	c #2D3910",
"x 	c #00000A",
"y 	c #392B20",
"z 	c #958071",
"A 	c #A38C7B",
"B 	c #A37D51",
"C 	c #A38260",
"D 	c #0E0906",
"E 	c #35291D",
"F 	c #261D16",
"G 	c #313147",
"H 	c #574638",
"I 	c #8C7768",
"J 	c #F1D0B8",
"K 	c #FFDCC2",
"L 	c #FFCFA0",
"M 	c #FFD3AC",
"N 	c #A78054",
"O 	c #483929",
"P 	c #574633",
"Q 	c #413325",
"R 	c #10101E",
"S 	c #1E1E33",
"T 	c #19192B",
"U 	c #170D05",
"V 	c #CDA680",
"W 	c #F7BF7E",
"X 	c #251D13",
"Y 	c #4D3D2C",
"Z 	c #2C241C",
"` 	c #680C0C",
" .	c #420F1C",
"..	c #151522",
"+.	c #7C7C7C",
"@.	c #5B493B",
"#.	c #3C2F25",
"$.	c #271E17",
"%.	c #83633F",
"&.	c #9E794E",
"*.	c #140E08",
"=.	c #2C241B",
"-.	c #601616",
";.	c #9B0707",
">.	c #520000",
",.	c #1D1D31",
"'.	c #3C2D22",
").	c #1B1511",
"!.	c #651515",
"~.	c #960000",
"{.	c #970404",
"].	c #9E0505",
"^.	c #822B2B",
"/.	c #2D1818",
"(.	c #181827",
"_.	c #1F120A",
":.	c #6E0404",
"<.	c #A60000",
"[.	c #A20A0A",
"}.	c #563C3C",
"|.	c #392929",
"1.	c #040405",
"2.	c #040408",
"3.	c #1D140F",
"4.	c #303131",
"5.	c #3F4040",
"6.	c #58553D",
"7.	c #C8BC11",
"8.	c #CDC109",
"9.	c #B5AA22",
"0.	c #56543E",
"a.	c #3C3C3C",
"b.	c #2E302C",
"c.	c #344213",
"d.	c #171F06",
"e.	c #232323",
"f.	c #393939",
"g.	c #5B5739",
"h.	c #B2A71A",
"i.	c #BFB308",
"j.	c #B2A607",
"k.	c #C6BA08",
"l.	c #B1A625",
"m.	c #555239",
"n.	c #383837",
"o.	c #1A2307",
"p.	c #303D11",
"q.	c #3C4C17",
"r.	c #141B07",
"s.	c #363433",
"t.	c #6E6E6E",
"u.	c #192206",
"v.	c #2B380E",
"w.	c #868414",
"x.	c #A4A117",
"y.	c #A4A017",
"z.	c #8E8709",
"A.	c #B0AC18",
"B.	c #7C7D16",
"C.	c #3A4A14",
"D.	c #29350E",
"E.	c #1C2508",
"F.	c #303046",
"G.	c #464342",
"H.	c #2D3A0F",
"I.	c #485C1D",
"J.	c #576E23",
"K.	c #979A1E",
"L.	c #BFB612",
"M.	c #495C1D",
"N.	c #45581C",
"O.	c #384716",
"P.	c #1C211E",
"Q.	c #2E2E43",
"R.	c #4B4948",
"S.	c #24270B",
"T.	c #3D4F18",
"U.	c #96991E",
"V.	c #90951F",
"W.	c #5A7224",
"X.	c #536921",
"Y.	c #4B5F1E",
"Z.	c #4F4C4B",
"`.	c #1C1007",
" +	c #415318",
".+	c #5C7525",
"++	c #5E7726",
"@+	c #43551A",
"#+	c #1E2521",
"$+	c #1C1C30",
"%+	c #475A1A",
"&+	c #45581A",
"*+	c #18210A",
"=+	c #1F1F35",
"-+	c #4C601D",
";+	c #272C31",
">+	c #191928",
",+	c #47392D",
"'+	c #485A1C",
")+	c #597123",
"!+	c #090402",
"~+	c #000009",
"{+	c #2E2219",
"]+	c #1A120C",
"^+	c #0C0602",
"/+	c #2B211A",
"                    . . + + + + + @ # $     % # &     . .       ",
"* = = = = - - . . * * * * * * = ; # # > , ' ) # ! ~ * * * * * * ",
"- { - - { { - . . * - - - - - ] ^ / / ( _ _ _ _ _ : < - * * * - ",
"- - - - - - - . . - - % % % % [ } | | 1 2 2 2 2 2 3 4 - * * - - ",
"- - - - - - 5 . . 5 % 6 7 7 7 7 } | | 8 9 0 2 2 2 a b - - - - - ",
"- - - - - - 5 . . % c 7 d d d e } | | | | } f 2 2 a b - - - - - ",
"5 5 5 5 5 5 5 . % c 7 d d g h i j k l m | | 0 2 2 a b - - - n n ",
". @ @ @ @ @ % % c 7 d h d g h i } o p q | | | 2 2 r $ % @ @ . . ",
"+   . . . . % * c 7 d h d g h i s t t t t t t u v w $           ",
"x * = = = * % 6 7 d d h d g y z A B C A A A A D E E F G = = = . ",
"+ * - - - { % c 7 d g h d H I J K L M K K K K N O P Q R S - =   ",
"+ T - - - - % * 7 d d d d U V L L L L L L L L W X Y Z `  .S = + ",
". ..- - { { % % 7 g +.@.#.$.%.B B B B B B B B &.*.=.-.;.>.,.{ + ",
"  ..- { { - % % 7 h '.).!.~.~.~.~.~.~.~.~.~.~.~.~.{.].^./.(.- + ",
"+ ..5 5 5 5 % * 7 d d _.:.<.<.<.<.<.<.<.<.<.<.[.}.}.}.|.1.2.5 + ",
"@ % % % .   % c 7 d g h 3.4.5.6.7.8.9.0.5.5.5.5.a.a.b.c.2 d.@ $ ",
".       @ @ % c 7 d g y e.f.g.h.i.j.k.l.m.f.f.n.o.o.p.2 q.r.    ",
"* * * * * * % c 7 d s.t.u.v.w.x.y.z.A.A.B.C.C.D.2 2 2 2 E.F.= = ",
"- - - - T T % c 7 d g G.H.I.J.| K.L.| | | | | M.M.M.N.O.P.Q.= = ",
"- T - - - T % c 7 d g R.S.T.J.| U.V.| | | | | W.X.X.Y._ < { - - ",
"- - T - - T % c 7 d g Z.`. +.+| | | | | | | | ++X.X.@+#+$+- - - ",
"- - - T - T % * 7 d g Z.`.%+| | | | | | | | | ++X.&+*+=+{ - - - ",
"- - T T - - % * 7 d g Z.`.%+| | | | | | | | | 1 -+;+% 5 >+5 5 5 ",
"% % % @     % c 7 d s.+.s.,+'+)+)+)+)+)+)+)+)+!+7 c % ~+% @ % . ",
"~+@ % % % % % c 7 d g h d g {+]+^+/+]+]+^+/+]+d 7 c %       % % ",
"@ = = * = = % c 7 d g h d g h h d g h h d g h d 7 * % = = * * . ",
"@ = * * = - % c 7 d d d d d d d d d d d d d d d 7 * % { { { -   ",
"% = - - { - % % 7 g +.g g g +.g g g +.g g g +.g 7 % % - - - -   ",
"% - - - - - % % 7 h h h h h h h h h h h h h +.h 7 % % T T - -   ",
"% 5 - - - - % * 7 d d d d d d d d d d d d d d d 7 * % - T - -   ",
"% 5 5 5 ....% c 7 d g h d g h h d g h h d g h d 7 * % 5 5 5 5   ",
". .         % c 7 d g h d g h h d g h h d g h d 7 * %   + + .   "};
