/* XPM */
static char *benny2[] = {
/* columns rows colors chars-per-pixel */
"32 32 209 2 ",
"   c #000002",
".  c gray1",
"X  c #000005",
"o  c #000007",
"O  c #040405",
"+  c gray2",
"@  c #0E0906",
"#  c #000008",
"$  c #000009",
"%  c #00000A",
"&  c #00000B",
"*  c #01030B",
"=  c #010509",
"-  c #01050A",
";  c #040408",
":  c #00000C",
">  c #00000D",
",  c #01030C",
"<  c #00000E",
"1  c #00000F",
"2  c #06060F",
"3  c #07070F",
"4  c #09090C",
"5  c #0C0C0C",
"6  c #140E08",
"7  c #171F06",
"8  c #151E09",
"9  c #000010",
"0  c #000012",
"q  c #070710",
"w  c #070711",
"e  c #000014",
"r  c #080812",
"t  c #080C13",
"y  c #090914",
"u  c #0A0E18",
"i  c #0E0E1B",
"p  c #0F0F1D",
"a  c #191E15",
"s  c #121219",
"d  c #10121D",
"f  c #10101E",
"g  c #251D13",
"h  c #2D1818",
"j  c #192206",
"k  c #1A2307",
"l  c #18210B",
"z  c #1C2508",
"x  c #1A2018",
"c  c #1B201C",
"v  c #28340D",
"b  c #29350E",
"n  c #2B380E",
"m  c #2D3A0F",
"M  c #2C241B",
"N  c #2C241C",
"B  c #222B1B",
"V  c #35291D",
"C  c #2D3910",
"Z  c #303D11",
"A  c #111120",
"S  c #131323",
"D  c #141421",
"F  c #161721",
"G  c #151522",
"H  c #161623",
"J  c #161625",
"K  c #171825",
"L  c #171728",
"P  c #171729",
"I  c #191928",
"U  c #1A1A29",
"Y  c #19192B",
"T  c #1B1B2A",
"R  c #1B1B2B",
"E  c #19192C",
"W  c #1B1B2F",
"Q  c #1D1D31",
"!  c #1D1D32",
"~  c #1E1E32",
"^  c #1F1F34",
"/  c #232323",
"(  c #272727",
")  c #2A2323",
"_  c #28282B",
"`  c #29292B",
"'  c #392929",
"]  c #2E302C",
"[  c #202035",
"{  c #222334",
"}  c #202036",
"|  c #28283A",
" . c #2D3333",
".. c gray19",
"X. c #303131",
"o. c gray20",
"O. c #383837",
"+. c #393939",
"@. c #3C3C3C",
"#. c #520000",
"$. c #6E0404",
"%. c #680C0C",
"&. c #601616",
"*. c #651515",
"=. c #481F2F",
"-. c #413325",
";. c #483929",
":. c #4D3D2C",
">. c #563C3C",
",. c #324013",
"<. c #344213",
"1. c #364513",
"2. c #324114",
"3. c #324115",
"4. c #384716",
"5. c #3A4A14",
"6. c #3A4B15",
"7. c #3A4A16",
"8. c #3A4A17",
"9. c #3B4C17",
"0. c #3C4C17",
"q. c #3D4E16",
"w. c #3D4F18",
"e. c #415318",
"r. c #41521A",
"t. c #43551A",
"y. c #45581A",
"u. c #46591A",
"i. c #475A1A",
"p. c #45581C",
"a. c #475A1C",
"s. c #485B1D",
"d. c #485C1D",
"f. c #495C1D",
"g. c #4B5F1E",
"h. c #4C601D",
"j. c #7C7D16",
"k. c #574633",
"l. c #555239",
"z. c #56543E",
"x. c #5B5739",
"c. c #58553D",
"v. c #526920",
"b. c #536921",
"n. c #556B22",
"m. c #556C21",
"M. c #556C22",
"N. c #576E23",
"B. c #597123",
"V. c #5A7224",
"C. c #5B7324",
"Z. c #5C7425",
"A. c #5C7525",
"S. c #5D7525",
"D. c #5E7726",
"F. c #5F7826",
"G. c #2E2E43",
"H. c #2E2E44",
"J. c #313147",
"K. c #323249",
"L. c #33334A",
"P. c #35354D",
"I. c #373750",
"U. c #3A3A54",
"Y. c #3F4040",
"T. c #960000",
"R. c #970404",
"E. c #9B0707",
"W. c #9E0505",
"Q. c #A60000",
"!. c #A20A0A",
"~. c #822B2B",
"^. c #83633F",
"/. c #972B6D",
"(. c #9E794E",
"). c #A37D51",
"_. c #897567",
"`. c #947F71",
"'. c #60A324",
"]. c #8E8709",
"[. c #868414",
"{. c #90951F",
"}. c #96991E",
"|. c #979A1E",
" X c #B2A607",
".X c #BFB308",
"XX c #A4A017",
"oX c #A4A117",
"OX c #B2A71A",
"+X c #B0AC18",
"@X c #BFB612",
"#X c #B1A625",
"$X c #B5AA22",
"%X c #C6BA08",
"&X c #C8BC11",
"*X c #CDC109",
"=X c #C9CE16",
"-X c #F2F406",
";X c #F3F408",
":X c #A78054",
">X c #A38260",
",X c #A38C7B",
"<X c #F7BF7E",
"1X c #42548D",
"2X c #CDA680",
"3X c #FFCFA0",
"4X c #FFD3AC",
"5X c #F1D0B8",
"6X c #FFDCC2",
/* pixels */
"9 9 9 9 9 9 9 9 9 9 e e > > > > > 9 9 9 9 9 9 9 9 9 9 e e 9 9 9 ",
"U.P.P.P.P.} } e e U.U.U.U.U.U.P.U.P.P.P.! } U.< < U.U.U.U.U.U.U.",
"} ! } } ! ! } e e U.} } } } } } ! ! } ! ! ! } e < } } } U.U.U.} ",
"} } } } } } } e e } } ! ! ! ! ! ! } ! ! } } R < % } } } U.U.} } ",
"} } } } } } R e e R } ! } } ! r r q r 3 3 y 3 X < } } } } } } } ",
"} } } } } } R e e R } } } i 3 B.B.B.B.B.B.B.B.u.# } } } } } } } ",
"R R R R R R R e e R R U x h.n.F.F.F.F.F.F.F.F.F.i.P } } } } J J ",
"e & & & & & < < < < > l y.b.D.F.F.F.F.F.F.F.F.F.i.$ < < & & e e ",
"> 9 e e e e e e 9 1 8 t.b.b.D.F.F.F.F.F.F.F.F.A.e.$ < 9 9 9 9 9 ",
"% U.P.P.P.U.P.P.P.H.v g.b.b.V.F.F.F.F.F.{.}.F.N.w. .K.P.P.P.P.e ",
"> U.} } } ! ! ! W c 4.p.f.f.f.F.F.F.F.F.@X|.F.N.d.m W } } } P.9 ",
"> Y } } } } ! } Q z r.r.r.r.b 5.5.j.+X+X].XXoX[.n j E } } } P.> ",
"e G } } ! ! ! } a 0.r.Z k k O.+.+.l.#X%X X.XOXx.+./ W } } } ! > ",
"9 G } ! ! } } } 7 r.<.] @.@.Y.Y.Y.Y.z.$X*X&Xc.Y.X.F T R R R } > ",
"> G R R R R R R ; O ' >.>.>.!.Q.Q.Q.Q.Q.Q.Q.Q.Q.Q.$.H R R R R > ",
"& < < < e 9 & & : h ~.W.R.T.T.T.T.T.T.T.T.T.T.T.T.*.4 0 < & & o ",
"e 9 9 9 & & e 9 $ #.E.&.M 6 (.).).).).).).).).^.  X $ & & 9 9 9 ",
"U.U.U.U.U.U.U.e > =.%.N :.g <X3X3X3X3X3X3X3X3X2XX P.P.P.P.P.P.P.",
"} } } } Y Y } e < I.f -.k.;.:X6X6X6X6X4X3X6X5X_.% U.} } } J.P.P.",
"} Y } } } Y } < < } ! ) V V @ ,X,X,X,X>X).,X`.> > U.} } } ! } } ",
"} } Y } } Y } e e } } S C 7.8.m.m.m.m.m.m.v.u > 9 } } } ! } } } ",
"} } } Y } Y Y < < R } A ,.r.r.F.F.F.1X/.'.Z.t > 9 } } } ! } } } ",
"} } Y Y } } } e < R R d 3.r.r.s.F.F.=X-X;XS.t > 9 R R R I R R R ",
"< < < & 9 9 9 & & < < * 3.r.r.a.Z.F.F.F.F.Z.- $ $ & $ $ < & < e ",
"$ & < < < < < < & 9 9 , 3.r.r.r.s.M.C.F.F.Z.= > 9 9 9 9 9 9 < < ",
"& P.P.U.P.P.P.U.| U.P.{ 2.r.r.r.r.r.n.F.F.Z.K G.U.P.P.P.P.U.U.e ",
"& P.U.U.P.} } } U.P.P.L.B v v v v v 1.q.6.9.E U.U.! ! ! ! ! } 9 ",
"< P.} } ! } } } } ! } } W 2 ..o.` D w . 5 Y } } } } } } } } } 9 ",
"< } } } } } Y Y ! ! } Y Y 2 ( _ s R w + p } } } } } } Y Y } } 9 ",
"< R } } } } } } } } } } } P L & 9 R ^ ~ [ } } } R R } } Y } } 9 ",
"< R R R G G G R R R R R R R G 9 e R R R R R R R R R R R R R R 9 ",
"e e 9 9 9 9 9 9 9 9 9 9 9 9 e 9 e 9 > > 9 9 9 9 9 9 9 9 > > e 9 "
};
