/* XPM */
static char * Exitopen_xpm[] = {
"32 32 27 1",
" 	c #000010",
".	c #000014",
"+	c #00000D",
"@	c #3A3A54",
"#	c #35354D",
"$	c #202036",
"%	c #1D1D32",
"&	c #00000E",
"*	c #1B1B2B",
"=	c #00000A",
"-	c #141426",
";	c #F4FA93",
">	c #222237",
",	c #26170C",
"'	c #624F40",
")	c #413125",
"!	c #161625",
"~	c #00000B",
"{	c #19192B",
"]	c #151522",
"^	c #7C7C7C",
"/	c #000007",
"(	c #363433",
"_	c #4F4C4B",
":	c #313147",
"<	c #191928",
"[	c #000009",
"          ..+++++          ..   ",
"@####$$..@@@@@@#@###%$@&&@@@@@@@",
"$%$$%%$..@$$$$$$%%$%%%$.&$$$@@@$",
"$$$$$$$..$$&&&&&&&&&&&*&=$$$@@$$",
"$$$$$$*..*&-;;;;;;;;;@&=&$$$$$$$",
"$$$$$$*..&>;,,,,,,,,,;@&&$$$$$$$",
"*******.&>;,,')),')),,;@&$$$$$!!",
".~~~~~&&>;,),')),')),',;>&&&~~..",
"+ ....&@>;,),')),')),',;>>&     ",
"=@###@&-;,,),')),')),',,;-&####.",
"+@$$$%&>;,'),')),')),'),;-&$$$# ",
"+{$$$$&@;,,,,,,,,,,,,,,,;@&$$$#+",
".]$$%%&&;'^'''^'''^'''^';&&$$$%+",
" ]$%%$&&;)))))))))))))));&&***$+",
"+]****&@;,,,,,,,,,,,,,,,;-&****+",
"~&&&. &>;,'),')),')),'),;-&.&~~/",
".   ~~&>;,'),')),')),'),;-&~~   ",
"@@@@@@&>;,(^(')),')),'),;>&#####",
"$$$${{&>;,'_,')),')),'),;-&$$:##",
"${$$${&>;,'_,')),')),'),;-&$$%$$",
"$${$${&>;,'_,')),')),'),;>&$%$$$",
"$$${${&@;,'_,')),')),'),;>&$%$$$",
"$${{$$&@;,'_,')),')),'),;@&*<***",
"&&&~  &>;,(^(')),')),'),;>&[&~&.",
"[~&&&&&>;,'),')),')),'),;>&   &&",
"~##@##&>;,'),')),')),'),;@&##@@.",
"~#@@#$&>;,,,,,,,,,,,,,,,;@&%%%$ ",
"&#$$%$&&;'^'''^'''^'''^';&&$$$$ ",
"&$$$$$&&;)))))))))))))^);&&{{$$ ",
"&*$$$$&@;,,,,,,,,,,,,,,,;@&${$$ ",
"&***]]&>;,'),')),')),'),;@&**** ",
"..    &>;,'),')),')),'),;@& ++. "};
