/* XPM */
static char *result[] = {
/* columns rows colors chars-per-pixel */
"32 32 23 1 ",
"  c #000007",
". c #000008",
"X c #000009",
"o c #00000A",
"O c #00000B",
"+ c #00000D",
"@ c #00000E",
"# c #000010",
"$ c #000014",
"% c #151522",
"& c #161625",
"* c #191928",
"= c #19192B",
"- c #1B1B2B",
"; c #1B1B2E",
": c #1D1D32",
"> c #202036",
", c #28283A",
"< c #2E2E43",
"1 c #2F2F44",
"2 c #313147",
"3 c #35354D",
"4 c #3A3A54",
/* pixels */
"##########$$+++++##########$$###",
"43333>>$$44444434333:>4@@4444444",
">:>>::>$$4>>>>>>::>:::>$@>>>444>",
">>>>>>>$$>>::::::>::>>-@o>>>44>>",
">>>>>>-$$->:>>:::;:-->-o@>>>>>>>",
">>>>>>-$$->>>>>>-*-----o@>>>>>>>",
"-------$$--------------@@>>>>>&&",
"$OOOOO@@@@@###$$@@@@$$@oo@@@OO$$",
"+#$$$$$$##O#$###o@@oooo##@@#####",
"o43334333344441#@44333344433333$",
"+4>>>::::::>>44O@>>>>433>>>>>>3#",
"+=>>>>:>>>:::>4OO->>>>>::::>>>3+",
"$%>>:::>>>>>:>>$#->>>>>>>>>>>>:+",
"#%>::>>>>>--->>$#-->>>>>>----->+",
"+%-------------$#--------------+",
"O@@@$#OO@@@@@$######OOoo@@#$@OO ",
"$###OO$#O$$$$@$@@@@@@##++@OOO###",
"4444444$@43334333344444#o3333333",
">>>>==>$@4>>:::>>:>>>:3@+4>>>233",
">=>>>=>@@>>>:::>>>>>::>#+4>>>:>>",
">>=>>=>$$>>>:>->>>>>:>>+#>>>:>>>",
">>>=>==@@->::>--*>>:>--+#>>>:>>>",
">>==>>>$@-------****---+#---*---",
"@@@O###OO@@@O@OO@@XXXX#XXOXX@O@$",
"XO@@@@@@O######+##O@@.O+######@@",
"O3343334,433344#X343344<4333344$",
"O3443>>>4334>>>#.;::>>>44:::::>#",
"@3>>:>>>>:>>>>>Oo->>>>>>>>>>>>>#",
"@>>>>>==::>===>@+->>>>>>>>>==>>#",
"@->>>>>>>>>>>==O#->>>>>>-->>=>>#",
"@---%%%-------%#$--------------#",
"$$############$#$#++########++$#"
};
