/* XPM */
static char * Jesusticazzi>evil_xpm[] = {
"32 32 159 2",
"  	c #000010",
". 	c #000014",
"+ 	c #00000D",
"@ 	c #3A3A54",
"# 	c #35354D",
"$ 	c #202036",
"% 	c #1D1D32",
"& 	c #00000E",
"* 	c #000000",
"= 	c #16A515",
"- 	c #A5156C",
"; 	c #A51537",
"> 	c #333333",
", 	c #A51515",
"' 	c #1B1B2B",
") 	c #00000A",
"! 	c #1B1B2E",
"~ 	c #979594",
"{ 	c #45341B",
"] 	c #161625",
"^ 	c #00000B",
"/ 	c #4A381E",
"( 	c #594425",
"_ 	c #5C4728",
": 	c #D1A082",
"< 	c #CF9F81",
"[ 	c #8C6C50",
"} 	c #44341B",
"| 	c #74583E",
"1 	c #B78C6F",
"2 	c #B98D70",
"3 	c #FFC3A1",
"4 	c #FDC2A0",
"5 	c #D0A081",
"6 	c #89694D",
"7 	c #48361D",
"8 	c #906E54",
"9 	c #B48A6D",
"0 	c #7E6045",
"a 	c #C6977B",
"b 	c #F6BC9B",
"c 	c #CC9B80",
"d 	c #F7D5C4",
"e 	c #D7A487",
"f 	c #EEB696",
"g 	c #19192B",
"h 	c #A57E62",
"i 	c #EDB595",
"j 	c #7F15A5",
"k 	c #1539A5",
"l 	c #DCA88B",
"m 	c #836449",
"n 	c #795B44",
"o 	c #151522",
"p 	c #997559",
"q 	c #EEB695",
"r 	c #FBC09E",
"s 	c #E9B392",
"t 	c #E7B192",
"u 	c #E9B292",
"v 	c #F8BD9C",
"w 	c #D1A182",
"x 	c #CD9C80",
"y 	c #817D79",
"z 	c #87674D",
"A 	c #D6A485",
"B 	c #594426",
"C 	c #7C5C4C",
"D 	c #614A30",
"E 	c #C7987A",
"F 	c #A78063",
"G 	c #C19476",
"H 	c #C19376",
"I 	c #45351B",
"J 	c #382A15",
"K 	c #5E4829",
"L 	c #F3BA99",
"M 	c #8B6A4F",
"N 	c #574224",
"O 	c #827D79",
"P 	c #3E2F1A",
"Q 	c #45351C",
"R 	c #000007",
"S 	c #989590",
"T 	c #503D21",
"U 	c #48361C",
"V 	c #7B0102",
"W 	c #FF0506",
"X 	c #FE1B1B",
"Y 	c #FFFFFF",
"Z 	c #F0E1DB",
"` 	c #9D9A99",
" .	c #45351D",
"..	c #989490",
"+.	c #403B36",
"@.	c #414141",
"#.	c #080502",
"$.	c #0D0803",
"%.	c #1B0000",
"&.	c #880101",
"*.	c #FF0707",
"=.	c #FD3E3F",
"-.	c #C4977D",
";.	c #A17A63",
">.	c #9B9B9B",
",.	c #8D8C8B",
"'.	c #B98D73",
").	c #E7B091",
"!.	c #D19F83",
"~.	c #F0D0CF",
"{.	c #FB7171",
"].	c #CB9B7F",
"^.	c #A98069",
"/.	c #A4A4A4",
"(.	c #94918D",
"_.	c #674D3D",
":.	c #7C5D4C",
"<.	c #6F5344",
"[.	c #F1D5D4",
"}.	c #FB6F6F",
"|.	c #EFD7D6",
"1.	c #AEACAB",
"2.	c #D5D5D5",
"3.	c #D6D6D6",
"4.	c #C1C1C1",
"5.	c #F1C8C8",
"6.	c #FE1617",
"7.	c #FB6F6E",
"8.	c #EFD8D7",
"9.	c #E0E0E0",
"0.	c #F3B9B9",
"a.	c #FD5858",
"b.	c #F98C8C",
"c.	c #8D5756",
"d.	c #191928",
"e.	c #C0C0C0",
"f.	c #9E9B9A",
"g.	c #F2C4C3",
"h.	c #BC5858",
"i.	c #B7A2A2",
"j.	c #B5A197",
"k.	c #B9ACA7",
"l.	c #000009",
"m.	c #97938E",
"n.	c #DFDFDF",
"o.	c #181717",
"p.	c #96938E",
"q.	c #28283A",
"r.	c #191514",
"s.	c #F4DACF",
"t.	c #999591",
"u.	c #1B120D",
"v.	c #999590",
"w.	c #787777",
"x.	c #E7B092",
"y.	c #98877F",
"z.	c #AEACA8",
"A.	c #767676",
"B.	c #787878",
"                    . . + + + + +                     . .       ",
"@ # # # # $ $ . . @ @ @ @ @ @ # @ # # # % $ @ & & @ @ @ @ @ @ @ ",
"$ % $ $ % % $ . . @ $ * * = - - = ; ; ; = > > . & $ , $ @ @ @ $ ",
"$ $ $ $ $ $ * * . $ $ % * * * * * * * > > > ' & ) $ , , @ @ $ $ ",
"$ $ $ $ * * * . . ' $ % $ $ % % % ! * * ' $ ' ) * * $ , $ $ $ $ ",
"$ $ $ $ * * * * * * $ $ $ > > > > * * * > * * * & $ $ , , * * * ",
"' ' * * ' * * * * * ' > ~ { * { { { * * * * * * * * * * , $ * ] ",
"* * ^ , * ^ * * * , > * / ( _ : ( < : : [ * * * ) & & & , * . . ",
"* * * , . . , , * , * } | 1 2 3 1 4 3 3 5 6 7 * * & &   * *     ",
") @ # , , @ # , * , * ( 8 3 3 3 3 3 3 3 3 9 ( * * @ # # * * # . ",
"+ @ $ , , % % , , , > 0 a b c 3 3 3 d e f 9 ( > * * $ * $ * #   ",
"+ g $ , * > , , , * * h 3 i j 3 3 3 3 k l 9 m n > * % * * * # + ",
". o $ $ , , , , , > > p q r s t t t t u v 9 w x > * $ $ $ * % + ",
"  o $ % % y , , * > > ( z A B , C C C D E F G H I * ' ' ' * $ + ",
"+ o ' ' ' y * ' ' * J ( ( ( K , L L L M ( ( ( N > * ' ' ' ' ' + ",
"^ & & & . O P * & * J ( ( ( ( , ( ( ( ( ( ( ( Q * &   . & ^ ^ R ",
".       ^ ^ S * ^ * J ( T * * , * * * * * { ( Q * & ^ ^ ^       ",
"@ @ @ @ @ @ S * & * J U V W X Y 3 3 Z Y Y `  .Q * # # # * # # # ",
"$ $ $ $ g g ..+.@.> #.$.%.&.*.=.Y Y Y Y Y -.;.>.+ @ $ * * * * # ",
"$ g $ $ $ * ,.'.).).).).!.Y ~.W {.Y Y Y Y ].^./.+ @ $ $ $ * $ $ ",
"$ $ g $ * g (._.:.:.:.:.<.Y Y [.W }.|.Y Y ].^.*   $ $ $ * $ $ $ ",
"$ $ $ * $ g S 1.2.2.3.2.4.Y Y Y 5.6.7.8.Y ].^.*   $ $ $ * $ $ $ ",
"$ $ * g $ $ ..* & ' ' ' 9.Y Y Y Y 0.a.b.c.].^.*   ' ' * d.' ' ' ",
"& & * ^     ..* ^ & & & ^ e.f.Y Y Y g.h.i.j.k.* l.^ l.* & ^ & . ",
"* * * * * * m.* ^         n.o.Y Y Y Y Y * * * +       * *   & & ",
"* * * * * # p.* q.* # # # * o.Y Y Y Y Y * @ * * * # # # * * @ . ",
"* * @ @ # $ p.* * * * * $ * r.s.s.s.s.Y * * * * * * * * % % $   ",
"& # $ $ % $ t.* * % $ * $ * u.3 3 3 3 :.* * * * $ * * $ $ $ $   ",
"& $ $ $ $ $ v.* % % $ * * * w.x.x.x.x.y.* $ $ $ $ $ * * * $ $   ",
"& ' $ $ $ $ z.* $ $ $ $ * g g A.A.B.B.* $ $ $ $ ' ' $ $ * $ $   ",
"& ' ' ' o o o ' ' ' ' ' ' ' o   . ' ' ' ' ' ' ' ' ' ' ' ' ' '   ",
". .                         .   .   + +                 + + .   "};
