/* XPM */
static char * Jesusticazzi>Toevil_xpm[] = {
"32 32 161 2",
"  	c #000010",
". 	c #000014",
"+ 	c #00000D",
"@ 	c #3A3A54",
"# 	c #35354D",
"$ 	c #202036",
"% 	c #1D1D32",
"& 	c #00000E",
"* 	c #000000",
"= 	c #16A515",
"- 	c #FDEF77",
"; 	c #FEF078",
"> 	c #FEF079",
", 	c #333333",
"' 	c #1B1B2B",
") 	c #00000A",
"! 	c #1B1B2E",
"~ 	c #979594",
"{ 	c #45341B",
"] 	c #161625",
"^ 	c #00000B",
"/ 	c #A51515",
"( 	c #4A381E",
"_ 	c #594425",
": 	c #5C4728",
"< 	c #D1A082",
"[ 	c #CF9F81",
"} 	c #8C6C50",
"| 	c #44341B",
"1 	c #74583E",
"2 	c #B78C6F",
"3 	c #B98D70",
"4 	c #FFC3A1",
"5 	c #FDC2A0",
"6 	c #D0A081",
"7 	c #89694D",
"8 	c #48361D",
"9 	c #906E54",
"0 	c #B48A6D",
"a 	c #7E6045",
"b 	c #C6977B",
"c 	c #F6BC9B",
"d 	c #CC9B80",
"e 	c #F7D5C4",
"f 	c #D7A487",
"g 	c #EEB696",
"h 	c #19192B",
"i 	c #A57E62",
"j 	c #EDB595",
"k 	c #846451",
"l 	c #A57D67",
"m 	c #DCA88B",
"n 	c #836449",
"o 	c #795B44",
"p 	c #151522",
"q 	c #997559",
"r 	c #EEB695",
"s 	c #FBC09E",
"t 	c #E9B392",
"u 	c #E7B192",
"v 	c #E9B292",
"w 	c #F8BD9C",
"x 	c #D1A182",
"y 	c #CD9C80",
"z 	c #817D79",
"A 	c #87674D",
"B 	c #D6A485",
"C 	c #594426",
"D 	c #7C5C4C",
"E 	c #614A30",
"F 	c #C7987A",
"G 	c #A78063",
"H 	c #C19476",
"I 	c #C19376",
"J 	c #45351B",
"K 	c #382A15",
"L 	c #5E4829",
"M 	c #F3BB99",
"N 	c #F3BA99",
"O 	c #8B6A4F",
"P 	c #574224",
"Q 	c #827D79",
"R 	c #3E2F1A",
"S 	c #45351C",
"T 	c #000007",
"U 	c #989590",
"V 	c #503D21",
"W 	c #48361C",
"X 	c #7B0102",
"Y 	c #FF0506",
"Z 	c #FE1B1B",
"` 	c #FFFFFF",
" .	c #F0E1DB",
"..	c #9D9A99",
"+.	c #45351D",
"@.	c #989490",
"#.	c #403B36",
"$.	c #414141",
"%.	c #080502",
"&.	c #0D0803",
"*.	c #1B0000",
"=.	c #880101",
"-.	c #FF0707",
";.	c #FD3E3F",
">.	c #C4977D",
",.	c #A17A63",
"'.	c #9B9B9B",
").	c #8D8C8B",
"!.	c #B98D73",
"~.	c #E7B091",
"{.	c #D19F83",
"].	c #F0D0CF",
"^.	c #FB7171",
"/.	c #CB9B7F",
"(.	c #A98069",
"_.	c #A4A4A4",
":.	c #94918D",
"<.	c #674D3D",
"[.	c #7C5D4C",
"}.	c #6F5344",
"|.	c #F1D5D4",
"1.	c #FB6F6F",
"2.	c #EFD7D6",
"3.	c #AEACAB",
"4.	c #D5D5D5",
"5.	c #D6D6D6",
"6.	c #C1C1C1",
"7.	c #F1C8C8",
"8.	c #FE1617",
"9.	c #FB6F6E",
"0.	c #EFD8D7",
"a.	c #E0E0E0",
"b.	c #F3B9B9",
"c.	c #FD5858",
"d.	c #F98C8C",
"e.	c #8D5756",
"f.	c #191928",
"g.	c #C0C0C0",
"h.	c #9E9B9A",
"i.	c #F2C4C3",
"j.	c #BC5858",
"k.	c #B7A2A2",
"l.	c #B5A197",
"m.	c #B9ACA7",
"n.	c #000009",
"o.	c #97938E",
"p.	c #DFDFDF",
"q.	c #181717",
"r.	c #96938E",
"s.	c #28283A",
"t.	c #191514",
"u.	c #F4DACF",
"v.	c #999591",
"w.	c #1B120D",
"x.	c #999590",
"y.	c #787777",
"z.	c #E7B092",
"A.	c #98877F",
"B.	c #AEACA8",
"C.	c #767676",
"D.	c #787878",
"                    . . + + + + +                     . .       ",
"@ # # # # $ $ . . @ @ @ @ @ @ # @ # # # % $ @ & & @ @ @ @ @ @ @ ",
"$ % $ $ % % $ . . @ $ * * = - ; > = - = = , , . & $ $ $ @ @ @ $ ",
"$ $ $ $ $ $ * * . $ $ % * * * * * * * , , , ' & ) $ * * @ @ $ $ ",
"$ $ $ $ * * * . . ' $ % $ $ % % % ! * * ' $ ' ) * * $ $ $ $ $ $ ",
"$ $ $ $ * * * * * * $ $ $ , , , , * * * , * * * & $ $ $ $ * * * ",
"' ' * * ' * * * * * ' , ~ { * { { { * * * * * * * * * * * $ * ] ",
"* * ^ / * ^ * * * / , * ( _ : < _ [ < < } * * * ) & & & ^ * . . ",
"* * * / . . / / * / * | 1 2 3 4 2 5 4 4 6 7 8 * * & &   * *     ",
") @ # / / @ # / * / * _ 9 4 4 4 4 4 4 4 4 0 _ * * @ # # * * # . ",
"+ @ $ / / % % / / / , a b c d 4 4 4 e f g 0 _ , * * $ * $ * #   ",
"+ h $ / * , / / / * * i 4 j k 4 4 4 4 l m 0 n o , * % * * * # + ",
". p $ $ / / / / / , , q r s t u u u u v w 0 x y , * $ $ $ * % + ",
"  p $ % % z / / * , , _ A B C D D D D E F G H I J * ' ' ' * $ + ",
"+ p ' ' ' z * ' ' * K _ _ _ L M N N N O _ _ _ P , * ' ' ' ' ' + ",
"^ & & & . Q R * & * K _ _ _ _ _ _ _ _ _ _ _ _ S * &   . & ^ ^ T ",
".       ^ ^ U * ^ * K _ V * * * * * * * * { _ S * & ^ ^ ^       ",
"@ @ @ @ @ @ U * & * K W X Y Z ` 4 4  .` ` ..+.S * # # # * # # # ",
"$ $ $ $ h h @.#.$., %.&.*.=.-.;.` ` ` ` ` >.,.'.+ @ $ * * * * # ",
"$ h $ $ $ * ).!.~.~.~.~.{.` ].Y ^.` ` ` ` /.(._.+ @ $ $ $ * $ $ ",
"$ $ h $ * h :.<.[.[.[.[.}.` ` |.Y 1.2.` ` /.(.*   $ $ $ * $ $ $ ",
"$ $ $ * $ h U 3.4.4.5.4.6.` ` ` 7.8.9.0.` /.(.*   $ $ $ * $ $ $ ",
"$ $ * h $ $ @.* & ' ' ' a.` ` ` ` b.c.d.e./.(.*   ' ' * f.' ' ' ",
"& & * ^     @.* ^ & & & ^ g.h.` ` ` i.j.k.l.m.* n.^ n.* & ^ & . ",
"* * * * * * o.* ^         p.q.` ` ` ` ` * * * +       * *   & & ",
"* * * * * # r.* s.* # # # * q.` ` ` ` ` * @ * * * # # # * * @ . ",
"* * @ @ # $ r.* * * * * $ * t.u.u.u.u.` * * * * * * * * % % $   ",
"& # $ $ % $ v.* * % $ * $ * w.4 4 4 4 [.* * * * $ * * $ $ $ $   ",
"& $ $ $ $ $ x.* % % $ * * * y.z.z.z.z.A.* $ $ $ $ $ * * * $ $   ",
"& ' $ $ $ $ B.* $ $ $ $ * h h C.C.D.D.* $ $ $ $ ' ' $ $ * $ $   ",
"& ' ' ' p p p ' ' ' ' ' ' ' p   . ' ' ' ' ' ' ' ' ' ' ' ' ' '   ",
". .                         .   .   + +                 + + .   "};
