/* XPM */
static char * Jesusticazzi_xpm[] = {
"32 32 211 2",
"  	c #000010",
". 	c #000014",
"+ 	c #00000D",
"@ 	c #3A3A54",
"# 	c #35354D",
"$ 	c #202036",
"% 	c #1D1D32",
"& 	c #00000E",
"* 	c #FAF5D4",
"= 	c #FDEF77",
"- 	c #FDF077",
"; 	c #FEF078",
"> 	c #FEF079",
", 	c #FEF179",
"' 	c #F8F3CF",
") 	c #F8F5DF",
"! 	c #F9F5E0",
"~ 	c #1B1B2B",
"{ 	c #00000A",
"] 	c #1B1B2E",
"^ 	c #A0A0A0",
"/ 	c #9D9D9D",
"( 	c #D8D8D8",
"_ 	c #DDDDDD",
": 	c #979594",
"< 	c #45341B",
"[ 	c #888683",
"} 	c #DADADA",
"| 	c #161625",
"1 	c #00000B",
"2 	c #D9D9D9",
"3 	c #888785",
"4 	c #4A381E",
"5 	c #594425",
"6 	c #5C4728",
"7 	c #D1A082",
"8 	c #CF9F81",
"9 	c #8C6C50",
"0 	c #4E3B20",
"a 	c #8A8785",
"b 	c #C9C9C9",
"c 	c #E0E0E0",
"d 	c #9C9A99",
"e 	c #44341B",
"f 	c #74583E",
"g 	c #B78C6F",
"h 	c #B98D70",
"i 	c #FFC3A1",
"j 	c #FDC2A0",
"k 	c #D0A081",
"l 	c #89694D",
"m 	c #48361D",
"n 	c #827F7C",
"o 	c #D6D6D6",
"p 	c #C6C6C6",
"q 	c #382A15",
"r 	c #906E54",
"s 	c #B48A6D",
"t 	c #45351C",
"u 	c #A3A3A3",
"v 	c #7E6045",
"w 	c #C6977B",
"x 	c #F6BC9B",
"y 	c #CC9B80",
"z 	c #D7A487",
"A 	c #EEB696",
"B 	c #19192B",
"C 	c #DBDAD9",
"D 	c #D5D4D2",
"E 	c #D8D6D5",
"F 	c #C4C4C4",
"G 	c #A57E62",
"H 	c #EDB595",
"I 	c #846451",
"J 	c #A57D67",
"K 	c #DCA88B",
"L 	c #836449",
"M 	c #795B44",
"N 	c #A6A6A6",
"O 	c #151522",
"P 	c #837E7A",
"Q 	c #6D6761",
"R 	c #635C54",
"S 	c #C9C8C7",
"T 	c #997559",
"U 	c #EEB695",
"V 	c #FBC09E",
"W 	c #E9B392",
"X 	c #E7B192",
"Y 	c #E9B292",
"Z 	c #F8BD9C",
"` 	c #D1A182",
" .	c #CD9C80",
"..	c #979695",
"+.	c #616168",
"@.	c #817D79",
"#.	c #CFCECC",
"$.	c #BBB9B8",
"%.	c #D2D1D0",
"&.	c #87674D",
"*.	c #D6A485",
"=.	c #594426",
"-.	c #7C5C4C",
";.	c #614A30",
">.	c #C7987A",
",.	c #A78063",
"'.	c #C19476",
").	c #C19376",
"!.	c #45351B",
"~.	c #8C8C8C",
"{.	c #C6C4C2",
"].	c #5E4829",
"^.	c #F3BB99",
"/.	c #F3BA99",
"(.	c #8B6A4F",
"_.	c #574224",
":.	c #4B3E2F",
"<.	c #939393",
"[.	c #827D79",
"}.	c #3E2F1A",
"|.	c #C8C7C6",
"1.	c #C5C5C5",
"2.	c #000007",
"3.	c #989590",
"4.	c #C7C6C5",
"5.	c #503D21",
"6.	c #000000",
"7.	c #A5A5A5",
"8.	c #48361C",
"9.	c #7B0102",
"0.	c #FF0506",
"a.	c #FE1B1B",
"b.	c #FFFFFF",
"c.	c #F0E1DB",
"d.	c #9D9A99",
"e.	c #45351D",
"f.	c #989490",
"g.	c #403B36",
"h.	c #414141",
"i.	c #333333",
"j.	c #080502",
"k.	c #0D0803",
"l.	c #1B0000",
"m.	c #880101",
"n.	c #FF0707",
"o.	c #FD3E3F",
"p.	c #C4977D",
"q.	c #A17A63",
"r.	c #9B9B9B",
"s.	c #313147",
"t.	c #8D8C8B",
"u.	c #B98D73",
"v.	c #E7B091",
"w.	c #D19F83",
"x.	c #F0D0CF",
"y.	c #FB7171",
"z.	c #CB9B7F",
"A.	c #A98069",
"B.	c #A4A4A4",
"C.	c #94918D",
"D.	c #674D3D",
"E.	c #7C5D4C",
"F.	c #6F5344",
"G.	c #F1D5D4",
"H.	c #FB6F6F",
"I.	c #EFD7D6",
"J.	c #AEACAB",
"K.	c #D5D5D5",
"L.	c #C1C1C1",
"M.	c #F1C8C8",
"N.	c #FE1617",
"O.	c #FB6F6E",
"P.	c #EFD8D7",
"Q.	c #F3B9B9",
"R.	c #FD5858",
"S.	c #F98C8C",
"T.	c #8D5756",
"U.	c #191928",
"V.	c #C0C0C0",
"W.	c #9E9B9A",
"X.	c #F2C4C3",
"Y.	c #BC5858",
"Z.	c #B7A2A2",
"`.	c #B5A197",
" +	c #B9ACA7",
".+	c #DBDBDB",
"++	c #000009",
"@+	c #97938E",
"#+	c #DFDFDF",
"$+	c #181717",
"%+	c #BEBEBE",
"&+	c #96938E",
"*+	c #28283A",
"=+	c #2E2E43",
"-+	c #191514",
";+	c #F4DACF",
">+	c #999591",
",+	c #DADADB",
"'+	c #1B120D",
")+	c #CACACA",
"!+	c #999590",
"~+	c #99999B",
"{+	c #787777",
"]+	c #E7B092",
"^+	c #98877F",
"/+	c #D3D3D3",
"(+	c #AEACA8",
"_+	c #D3D2D1",
":+	c #767676",
"<+	c #787878",
"[+	c #BEBEC0",
"                    . . + + + + +                     . .       ",
"@ # # # # $ $ . . @ @ @ @ @ @ # @ # # # % $ @ & & @ @ @ @ @ @ @ ",
"$ % $ $ % % $ . . @ $ * = - = ; > = = = ; , ' . & $ $ $ @ @ @ $ ",
"$ $ $ $ $ $ $ . . $ $ % ) ) ) ! ! ) ) ) ! ! ~ & { $ $ $ @ @ $ $ ",
"$ $ $ $ $ $ ~ . . ~ $ % $ $ % % % ] % ~ ~ $ ~ { & $ $ $ $ $ $ $ ",
"$ $ $ $ $ $ ~ . . ~ $ $ $ ^ ^ / / ^ ^ ^ / ( ~ { & $ $ $ $ $ $ $ ",
"~ ~ ~ ~ ~ ~ ~ . . ~ ~ _ : < < < < < < < < [ } & & $ $ $ $ $ | | ",
". 1 1 1 1 1 & & & & 2 3 4 5 6 7 5 8 7 7 9 0 a b { & & & 1 1 . . ",
"+   . . . . . .   c d e f g h i g j i i k l m n o & &           ",
"{ @ # # # @ # # # p q 5 r i i i i i i i i s 5 t u @ # # # # # . ",
"+ @ $ $ $ % % % % p q v w x y i i i i z A s 5 t u $ $ $ $ $ #   ",
"+ B $ $ $ C D E $ F q G i H I i i i i J K s L M N % % $ $ $ # + ",
". O $ $ % P Q R S F q T U V W X X X X Y Z s `  ...+.$ $ $ $ % + ",
"  O $ % % @.#.$.%.p q 5 &.*.=.-.-.-.-.;.>.,.'.).!.~.~ ~ ~ ~ $ + ",
"+ O ~ ~ ~ @.{.~ ~ p q 5 5 5 ].^./././.(.5 5 5 _.:.<.~ ~ ~ ~ ~ + ",
"1 & & & . [.}.|.& 1.q 5 5 5 5 5 5 5 5 5 5 5 5 t u &   . & 1 1 2.",
".       1 1 3.4.1 1.q 5 5.6.6.6.6.6.6.6.6.< 5 t 7.& 1 1 1       ",
"@ @ @ @ @ @ 3.4.& 1.q 8.9.0.a.b.i i c.b.b.d.e.t 7.# # # # # # # ",
"$ $ $ $ B B f.g.h.i.j.k.l.m.n.o.b.b.b.b.b.p.q.r.+ @ $ $ $ s.# # ",
"$ B $ $ $ B t.u.v.v.v.v.w.b.x.0.y.b.b.b.b.z.A.B.+ @ $ $ $ % $ $ ",
"$ $ B $ $ B C.D.E.E.E.E.F.b.b.G.0.H.I.b.b.z.A.B.  $ $ $ % $ $ $ ",
"$ $ $ B $ B 3.J.K.K.o K.L.b.b.b.M.N.O.P.b.z.A.B.  $ $ $ % $ $ $ ",
"$ $ B B $ $ f.4.& ~ ~ ~ c b.b.b.b.Q.R.S.T.z.A.B.  ~ ~ ~ U.~ ~ ~ ",
"& & & 1     f.4.1 & & & 1 V.W.b.b.b.X.Y.Z.`. +.+++1 ++++& 1 & . ",
"++1 & & & & @+|.1         #+$+b.b.b.b.b.b K.%++             & & ",
"1 # # @ # # &+|.*+@ # # # #+$+b.b.b.b.b.b @ @ =+@ # # # # @ @ . ",
"1 # @ @ # $ &+|.@ # # @ $ #+-+;+;+;+;+b.b $ $ @ @ % % % % % $   ",
"& # $ $ % $ >+4.$ % $ $ $ ,+'+i i i i E.)+$ $ $ $ $ $ $ $ $ $   ",
"& $ $ $ $ $ !+4.% % $ B B ~+{+]+]+]+]+^+/+$ $ $ $ $ $ B B $ $   ",
"& ~ $ $ $ $ (+_+$ $ $ $ $ B B :+:+<+<+[+$ $ $ $ ~ ~ $ $ B $ $   ",
"& ~ ~ ~ O O O ~ ~ ~ ~ ~ ~ ~ O   . ~ ~ ~ ~ ~ ~ ~ ~ ~ ~ ~ ~ ~ ~   ",
". .                         .   .   + +                 + + .   "};
