/* XPM */
static char * Jesusticazzi>good_xpm[] = {
"32 32 212 2",
"  	c #000010",
". 	c #000014",
"+ 	c #00000D",
"@ 	c #3A3A54",
"# 	c #35354D",
"$ 	c #202036",
"% 	c #1D1D32",
"& 	c #00000E",
"* 	c #FAF5D4",
"= 	c #FDEF77",
"- 	c #FDF077",
"; 	c #FEF078",
"> 	c #FEF079",
", 	c #FEF179",
"' 	c #F8F3CF",
") 	c #FADC71",
"! 	c #F8F5DF",
"~ 	c #F9F5E0",
"{ 	c #1B1B2B",
"] 	c #00000A",
"^ 	c #1B1B2E",
"/ 	c #A0A0A0",
"( 	c #9D9D9D",
"_ 	c #D8D8D8",
": 	c #DDDDDD",
"< 	c #979594",
"[ 	c #45341B",
"} 	c #888683",
"| 	c #DADADA",
"1 	c #161625",
"2 	c #00000B",
"3 	c #D9D9D9",
"4 	c #888785",
"5 	c #4A381E",
"6 	c #594425",
"7 	c #5C4728",
"8 	c #D1A082",
"9 	c #CF9F81",
"0 	c #8C6C50",
"a 	c #4E3B20",
"b 	c #8A8785",
"c 	c #C9C9C9",
"d 	c #000000",
"e 	c #E0E0E0",
"f 	c #9C9A99",
"g 	c #44341B",
"h 	c #74583E",
"i 	c #B78C6F",
"j 	c #B98D70",
"k 	c #FFC3A1",
"l 	c #FDC2A0",
"m 	c #D0A081",
"n 	c #89694D",
"o 	c #48361D",
"p 	c #827F7C",
"q 	c #D6D6D6",
"r 	c #C6C6C6",
"s 	c #382A15",
"t 	c #906E54",
"u 	c #B48A6D",
"v 	c #45351C",
"w 	c #A3A3A3",
"x 	c #7E6045",
"y 	c #C6977B",
"z 	c #F6BC9B",
"A 	c #CC9B80",
"B 	c #D7A487",
"C 	c #EEB696",
"D 	c #19192B",
"E 	c #DBDAD9",
"F 	c #D5D4D2",
"G 	c #D8D6D5",
"H 	c #C4C4C4",
"I 	c #A57E62",
"J 	c #EDB595",
"K 	c #846451",
"L 	c #A57D67",
"M 	c #DCA88B",
"N 	c #836449",
"O 	c #795B44",
"P 	c #A6A6A6",
"Q 	c #837E7A",
"R 	c #6D6761",
"S 	c #635C54",
"T 	c #C9C8C7",
"U 	c #997559",
"V 	c #EEB695",
"W 	c #FBC09E",
"X 	c #E9B392",
"Y 	c #E7B192",
"Z 	c #E9B292",
"` 	c #F8BD9C",
" .	c #D1A182",
"..	c #CD9C80",
"+.	c #979695",
"@.	c #616168",
"#.	c #817D79",
"$.	c #CFCECC",
"%.	c #BBB9B8",
"&.	c #D2D1D0",
"*.	c #87674D",
"=.	c #D6A485",
"-.	c #594426",
";.	c #7C5C4C",
">.	c #614A30",
",.	c #C7987A",
"'.	c #A78063",
").	c #C19476",
"!.	c #C19376",
"~.	c #45351B",
"{.	c #8C8C8C",
"].	c #151522",
"^.	c #C6C4C2",
"/.	c #5E4829",
"(.	c #F3BB99",
"_.	c #F3BA99",
":.	c #8B6A4F",
"<.	c #574224",
"[.	c #4B3E2F",
"}.	c #939393",
"|.	c #827D79",
"1.	c #3E2F1A",
"2.	c #C8C7C6",
"3.	c #C5C5C5",
"4.	c #000007",
"5.	c #989590",
"6.	c #C7C6C5",
"7.	c #503D21",
"8.	c #A5A5A5",
"9.	c #48361C",
"0.	c #7B0102",
"a.	c #FF0506",
"b.	c #FE1B1B",
"c.	c #FFFFFF",
"d.	c #F0E1DB",
"e.	c #9D9A99",
"f.	c #45351D",
"g.	c #989490",
"h.	c #403B36",
"i.	c #414141",
"j.	c #333333",
"k.	c #080502",
"l.	c #0D0803",
"m.	c #1B0000",
"n.	c #880101",
"o.	c #FF0707",
"p.	c #FD3E3F",
"q.	c #C4977D",
"r.	c #A17A63",
"s.	c #9B9B9B",
"t.	c #313147",
"u.	c #8D8C8B",
"v.	c #B98D73",
"w.	c #E7B091",
"x.	c #D19F83",
"y.	c #F0D0CF",
"z.	c #FB7171",
"A.	c #CB9B7F",
"B.	c #A98069",
"C.	c #A4A4A4",
"D.	c #94918D",
"E.	c #674D3D",
"F.	c #7C5D4C",
"G.	c #6F5344",
"H.	c #F1D5D4",
"I.	c #FB6F6F",
"J.	c #EFD7D6",
"K.	c #AEACAB",
"L.	c #D5D5D5",
"M.	c #C1C1C1",
"N.	c #F1C8C8",
"O.	c #FE1617",
"P.	c #FB6F6E",
"Q.	c #EFD8D7",
"R.	c #F3B9B9",
"S.	c #FD5858",
"T.	c #F98C8C",
"U.	c #8D5756",
"V.	c #191928",
"W.	c #C0C0C0",
"X.	c #9E9B9A",
"Y.	c #F2C4C3",
"Z.	c #BC5858",
"`.	c #B7A2A2",
" +	c #B5A197",
".+	c #B9ACA7",
"++	c #DBDBDB",
"@+	c #000009",
"#+	c #97938E",
"$+	c #DFDFDF",
"%+	c #181717",
"&+	c #BEBEBE",
"*+	c #96938E",
"=+	c #28283A",
"-+	c #2E2E43",
";+	c #191514",
">+	c #F4DACF",
",+	c #999591",
"'+	c #DADADB",
")+	c #1B120D",
"!+	c #CACACA",
"~+	c #999590",
"{+	c #99999B",
"]+	c #787777",
"^+	c #E7B092",
"/+	c #98877F",
"(+	c #D3D3D3",
"_+	c #AEACA8",
":+	c #D3D2D1",
"<+	c #767676",
"[+	c #787878",
"}+	c #BEBEC0",
"                    . . + + + + +                     . .       ",
"@ # # # # $ $ . . @ @ @ @ @ @ # @ # # # % $ @ & & @ @ @ @ @ @ @ ",
"$ % $ $ % % $ . . @ $ * = - = ; > = = = ; , ' . & $ $ $ @ @ @ $ ",
"$ $ ) ) ) ) $ . . $ $ % ! ! ! ~ ~ ! ! ! ~ ~ { & ] $ $ $ @ @ $ $ ",
"$ $ $ $ ) $ { . . { $ % $ $ % % % ^ % { { $ { ] & $ $ ) ) $ $ $ ",
"$ $ $ ) ) ) ) ) ) ) $ $ $ / / ( ( / / / ( _ { ] & $ $ $ $ $ $ $ ",
"{ { { { { { ) . . { { : < [ [ [ [ [ [ [ [ } | & & $ $ $ $ $ 1 1 ",
". 2 2 2 2 2 ) & & & 3 4 5 6 7 8 6 9 8 8 0 a b c ] & ) ) 2 2 . . ",
"+ d . . . . ) .   e f g h i j k i l k k m n o p q & &   )       ",
"] d # # # ) # # # r s 6 t k k k k k k k k u 6 v w @ # # ) # # . ",
"+ d d d $ % % % % r s x y z A k k k k B C u 6 v w $ $ ) $ $ #   ",
"+ D d $ $ E F G $ H s I k J K k k k k L M u N O P % % ) $ $ # + ",
"d d $ $ % Q R S T H s U V W X Y Y Y Y Z ` u  ...+.@.$ $ ) ) % + ",
"d d d % % #.$.%.&.r s 6 *.=.-.;.;.;.;.>.,.'.).!.~.{.{ { ) ) $ + ",
"+ ].{ { { #.^.{ { r s 6 6 6 /.(._._._.:.6 6 6 <.[.}.{ { ) { { + ",
"2 & & & . |.1.2.& 3.s 6 6 6 6 6 6 6 6 6 6 6 6 v w &   . ) 2 2 4.",
".     ) 2 2 5.6.2 3.s 6 7.d d d d d d d d [ 6 v 8.& 2 2 2       ",
"@ @ @ ) @ @ 5.6.& 3.s 9.0.a.b.c.k k d.c.c.e.f.v 8.# # # # # # # ",
"$ $ $ ) D D g.h.i.j.k.l.m.n.o.p.c.c.c.c.c.q.r.s.+ @ $ $ $ t.# # ",
"$ D $ ) $ D u.v.w.w.w.w.x.c.y.a.z.c.c.c.c.A.B.C.+ @ $ $ $ % $ $ ",
"$ $ D ) $ D D.E.F.F.F.F.G.c.c.H.a.I.J.c.c.A.B.C.  $ $ $ % $ $ $ ",
"$ $ $ D $ D 5.K.L.L.q L.M.c.c.c.N.O.P.Q.c.A.B.C.  $ $ $ % $ $ $ ",
"$ $ D D $ $ g.6.& { { { e c.c.c.c.R.S.T.U.A.B.C.  { { ) V.{ { { ",
"& & & 2     g.6.2 & & & 2 W.X.c.c.c.Y.Z.`. +.+++@+2 @+@+) 2 & . ",
"@+2 & & & & #+2.2   )     $+%+c.c.c.c.c.c L.&++     ) ) )   & & ",
"2 # ) @ # # *+2.=+) ) ) # $+%+c.c.c.c.c.c @ @ -+@ # ) ) # @ @ . ",
"2 # ) ) # $ *+2.@ # ) @ $ $+;+>+>+>+>+c.c $ $ @ @ % % ) % % $   ",
"& # $ ) ) $ ,+6.$ % ) $ $ '+)+k k k k F.!+$ $ $ $ $ $ ) $ $ $   ",
"& $ $ ) ) $ ~+6.% % ) D D {+]+^+^+^+^+/+(+$ $ $ $ $ $ ) D $ $   ",
"& { $ ) $ $ _+:+$ $ $ $ $ D D <+<+[+[+}+$ $ $ $ { { $ ) ) $ $   ",
"& { { { ].].].{ { { { { { { ].  . { { { { { { { { { { { ) { {   ",
". .                         .   .   + +                 + + .   "};
