/* XPM */
static char * Jesusticazzi>dark_xpm[] = {
"32 32 209 2",
"  	c None",
". 	c #000010",
"+ 	c #000014",
"@ 	c #00000D",
"# 	c #3A3A54",
"$ 	c #35354D",
"% 	c #202036",
"& 	c #1D1D32",
"* 	c #00000E",
"= 	c #FDEF77",
"- 	c #FDF077",
"; 	c #FEF078",
"> 	c #FEF079",
", 	c #FEF179",
"' 	c #1B1B2B",
") 	c #00000A",
"! 	c #1B1B2E",
"~ 	c #A0A0A0",
"{ 	c #9D9D9D",
"] 	c #D8D8D8",
"^ 	c #DDDDDD",
"/ 	c #979594",
"( 	c #45341B",
"_ 	c #888683",
": 	c #DADADA",
"< 	c #161625",
"[ 	c #00000B",
"} 	c #D9D9D9",
"| 	c #888785",
"1 	c #4A381E",
"2 	c #594425",
"3 	c #5C4728",
"4 	c #D1A082",
"5 	c #CF9F81",
"6 	c #8C6C50",
"7 	c #4E3B20",
"8 	c #8A8785",
"9 	c #C9C9C9",
"0 	c #E0E0E0",
"a 	c #9C9A99",
"b 	c #44341B",
"c 	c #74583E",
"d 	c #B78C6F",
"e 	c #B98D70",
"f 	c #FFC3A1",
"g 	c #FDC2A0",
"h 	c #D0A081",
"i 	c #89694D",
"j 	c #48361D",
"k 	c #827F7C",
"l 	c #D6D6D6",
"m 	c #C6C6C6",
"n 	c #382A15",
"o 	c #906E54",
"p 	c #B48A6D",
"q 	c #45351C",
"r 	c #A3A3A3",
"s 	c #7E6045",
"t 	c #C6977B",
"u 	c #F6BC9B",
"v 	c #CC9B80",
"w 	c #F7D5C4",
"x 	c #D7A487",
"y 	c #EEB696",
"z 	c #19192B",
"A 	c #DBDAD9",
"B 	c #D5D4D2",
"C 	c #D8D6D5",
"D 	c #C4C4C4",
"E 	c #A57E62",
"F 	c #EDB595",
"G 	c #846451",
"H 	c #A57D67",
"I 	c #DCA88B",
"J 	c #836449",
"K 	c #795B44",
"L 	c #A6A6A6",
"M 	c #151522",
"N 	c #837E7A",
"O 	c #6D6761",
"P 	c #635C54",
"Q 	c #C9C8C7",
"R 	c #997559",
"S 	c #EEB695",
"T 	c #FBC09E",
"U 	c #E9B392",
"V 	c #E7B192",
"W 	c #E9B292",
"X 	c #F8BD9C",
"Y 	c #D1A182",
"Z 	c #CD9C80",
"` 	c #979695",
" .	c #616168",
"..	c #817D79",
"+.	c #CFCECC",
"@.	c #BBB9B8",
"#.	c #D2D1D0",
"$.	c #87674D",
"%.	c #D6A485",
"&.	c #594426",
"*.	c #7C5C4C",
"=.	c #614A30",
"-.	c #C7987A",
";.	c #A78063",
">.	c #C19476",
",.	c #C19376",
"'.	c #45351B",
").	c #8C8C8C",
"!.	c #C6C4C2",
"~.	c #5E4829",
"{.	c #F3BB99",
"].	c #F3BA99",
"^.	c #8B6A4F",
"/.	c #574224",
"(.	c #4B3E2F",
"_.	c #939393",
":.	c #827D79",
"<.	c #3E2F1A",
"[.	c #C8C7C6",
"}.	c #C5C5C5",
"|.	c #000007",
"1.	c #989590",
"2.	c #C7C6C5",
"3.	c #503D21",
"4.	c #000000",
"5.	c #A5A5A5",
"6.	c #48361C",
"7.	c #7B0102",
"8.	c #FF0506",
"9.	c #FE1B1B",
"0.	c #FFFFFF",
"a.	c #F0E1DB",
"b.	c #9D9A99",
"c.	c #45351D",
"d.	c #989490",
"e.	c #403B36",
"f.	c #414141",
"g.	c #333333",
"h.	c #080502",
"i.	c #0D0803",
"j.	c #1B0000",
"k.	c #880101",
"l.	c #FF0707",
"m.	c #FD3E3F",
"n.	c #C4977D",
"o.	c #A17A63",
"p.	c #9B9B9B",
"q.	c #313147",
"r.	c #8D8C8B",
"s.	c #B98D73",
"t.	c #E7B091",
"u.	c #D19F83",
"v.	c #F0D0CF",
"w.	c #FB7171",
"x.	c #CB9B7F",
"y.	c #A98069",
"z.	c #A4A4A4",
"A.	c #94918D",
"B.	c #674D3D",
"C.	c #7C5D4C",
"D.	c #6F5344",
"E.	c #F1D5D4",
"F.	c #FB6F6F",
"G.	c #EFD7D6",
"H.	c #AEACAB",
"I.	c #D5D5D5",
"J.	c #C1C1C1",
"K.	c #F1C8C8",
"L.	c #FE1617",
"M.	c #FB6F6E",
"N.	c #EFD8D7",
"O.	c #F3B9B9",
"P.	c #FD5858",
"Q.	c #F98C8C",
"R.	c #8D5756",
"S.	c #191928",
"T.	c #C0C0C0",
"U.	c #9E9B9A",
"V.	c #F2C4C3",
"W.	c #BC5858",
"X.	c #B7A2A2",
"Y.	c #B5A197",
"Z.	c #B9ACA7",
"`.	c #DBDBDB",
" +	c #000009",
".+	c #97938E",
"++	c #DFDFDF",
"@+	c #181717",
"#+	c #BEBEBE",
"$+	c #96938E",
"%+	c #28283A",
"&+	c #2E2E43",
"*+	c #191514",
"=+	c #F4DACF",
"-+	c #999591",
";+	c #DADADB",
">+	c #1B120D",
",+	c #CACACA",
"'+	c #999590",
")+	c #99999B",
"!+	c #787777",
"~+	c #E7B092",
"{+	c #98877F",
"]+	c #D3D3D3",
"^+	c #AEACA8",
"/+	c #D3D2D1",
"(+	c #767676",
"_+	c #787878",
":+	c #BEBEC0",
". . . . . . . . . . + + @ @ @ @ @ . . . . . . . . . . + + . . . ",
"# $ $ $ $ % % + + # # # # # # $ # $ $ $ & % # * * # # # # # # # ",
"% & % % & & % + + # %   = - = ; > = = = ; ,   + * % % % # # # % ",
"% % % % % % % + + % % &                     ' * ) % % % # # % % ",
"% % % % % % ' + + ' % & % % & & & ! & ' ' % ' ) * % % % % % % % ",
"% % % % % % ' + + ' % % % ~ ~ { { ~ ~ ~ { ] ' ) * % % % % % % % ",
"' ' ' ' ' ' ' + + ' ' ^ / ( ( ( ( ( ( ( ( _ : * * % % % % % < < ",
"+ [ [ [ [ [ * * * * } | 1 2 3 4 2 5 4 4 6 7 8 9 ) * * * [ [ + + ",
"@ . + + + + + + . 0 a b c d e f d g f f h i j k l * * . . . . . ",
") # $ $ $ # $ $ $ m n 2 o f f f f f f f f p 2 q r # $ $ $ $ $ + ",
"@ # % % % & & & & m n s t u v f f f w x y p 2 q r % % % % % $ . ",
"@ z % % % A B C % D n E f F G f f f f H I p J K L & & % % % $ @ ",
"+ M % % & N O P Q D n R S T U V V V V W X p Y Z `  .% % % % & @ ",
". M % & & ..+.@.#.m n 2 $.%.&.*.*.*.*.=.-.;.>.,.'.).' ' ' ' % @ ",
"@ M ' ' ' ..!.' ' m n 2 2 2 ~.{.].].].^.2 2 2 /.(._.' ' ' ' ' @ ",
"[ * * * + :.<.[.* }.n 2 2 2 2 2 2 2 2 2 2 2 2 q r * . + * [ [ |.",
"+ . . . [ [ 1.2.[ }.n 2 3.4.4.4.4.4.4.4.4.( 2 q 5.* [ [ [ . . . ",
"# # # # # # 1.2.* }.n 6.7.8.9.0.f f a.0.0.b.c.q 5.$ $ $ $ $ $ $ ",
"% % % % z z d.e.f.g.h.i.j.k.l.m.0.0.0.0.0.n.o.p.@ # % % % q.$ $ ",
"% z % % % z r.s.t.t.t.t.u.0.v.8.w.0.0.0.0.x.y.z.@ # % % % & % % ",
"% % z % % z A.B.C.C.C.C.D.0.0.E.8.F.G.0.0.x.y.z.. % % % & % % % ",
"% % % z % z 1.H.I.I.l I.J.0.0.0.K.L.M.N.0.x.y.z.. % % % & % % % ",
"% % z z % % d.2.* ' ' ' 0 0.0.0.0.O.P.Q.R.x.y.z.. ' ' ' S.' ' ' ",
"* * * [ . . d.2.[ * * * [ T.U.0.0.0.V.W.X.Y.Z.`. +[  + +* [ * + ",
" +[ * * * * .+[.[ . . . . ++@+0.0.0.0.0.9 I.#+@ . . . . . . * * ",
"[ $ $ # $ $ $+[.%+# $ $ $ ++@+0.0.0.0.0.9 # # &+# $ $ $ $ # # + ",
"[ $ # # $ % $+[.# $ $ # % ++*+=+=+=+=+0.9 % % # # & & & & & % . ",
"* $ % % & % -+2.% & % % % ;+>+f f f f C.,+% % % % % % % % % % . ",
"* % % % % % '+2.& & % z z )+!+~+~+~+~+{+]+% % % % % % z z % % . ",
"* ' % % % % ^+/+% % % % % z z (+(+_+_+:+% % % % ' ' % % z % % . ",
"* ' ' ' M M M ' ' ' ' ' ' ' M . + ' ' ' ' ' ' ' ' ' ' ' ' ' ' . ",
"+ + . . . . . . . . . . . . + . + . @ @ . . . . . . . . @ @ + . "};
