/* XPM */
static char * NinjaD1_xpm[] = {
"32 32 134 2",
"  	c #3A3A54",
". 	c #35354D",
"+ 	c #202036",
"@ 	c #000014",
"# 	c #151916",
"$ 	c #131414",
"% 	c #0E1312",
"& 	c #1D1D32",
"* 	c #00000E",
"= 	c #141619",
"- 	c #3D4242",
"; 	c #434649",
"> 	c #434444",
", 	c #3C3D3D",
"' 	c #464A4A",
") 	c #5A5B5B",
"! 	c #535554",
"~ 	c #4A4B4B",
"{ 	c #555956",
"] 	c #00000A",
"^ 	c #1B1B2B",
"/ 	c #565A5A",
"( 	c #616563",
"_ 	c #0D110E",
": 	c #444946",
"< 	c #5D605E",
"[ 	c #3D413E",
"} 	c #555659",
"| 	c #636464",
"1 	c #15191A",
"2 	c #66696A",
"3 	c #646666",
"4 	c #5E6162",
"5 	c #5C5E62",
"6 	c #161625",
"7 	c #00000B",
"8 	c #00000D",
"9 	c #000010",
"0 	c #3C3E41",
"a 	c #020101",
"b 	c #0C0C0C",
"c 	c #57605C",
"d 	c #4E5352",
"e 	c #0C1919",
"f 	c #040805",
"g 	c #5A5654",
"h 	c #1A1B1B",
"i 	c #4B4444",
"j 	c #1B1914",
"k 	c #19192B",
"l 	c #4B4945",
"m 	c #130D0C",
"n 	c #433D3D",
"o 	c #DBD3D4",
"p 	c #151522",
"q 	c #685555",
"r 	c #1B130C",
"s 	c #1B1414",
"t 	c #13120D",
"u 	c #D3D2D2",
"v 	c #4B454A",
"w 	c #D3CDCD",
"x 	c #63615F",
"y 	c #5C544D",
"z 	c #69564C",
"A 	c #64554B",
"B 	c #43423E",
"C 	c #DCCED3",
"D 	c #6A6464",
"E 	c #1C0C03",
"F 	c #B5A393",
"G 	c #BBA79A",
"H 	c #AB9D95",
"I 	c #443E41",
"J 	c #EACAD3",
"K 	c #1C1204",
"L 	c #231304",
"M 	c #000007",
"N 	c #3D4449",
"O 	c #4E555A",
"P 	c #050B09",
"Q 	c #020409",
"R 	c #565963",
"S 	c #151A21",
"T 	c #0D1519",
"U 	c #C3C4C4",
"V 	c #C4C6CA",
"W 	c #444A52",
"X 	c #4B4E52",
"Y 	c #434552",
"Z 	c #0D0E12",
"` 	c #6A6B6B",
" .	c #313147",
"..	c #090509",
"+.	c #161621",
"@.	c #CCCCD1",
"#.	c #1B161A",
"$.	c #CAC6CA",
"%.	c #363C3C",
"&.	c #221513",
"*.	c #1A0E0C",
"=.	c #D3C6C5",
"-.	c #CAC5C3",
";.	c #0A0201",
">.	c #260C05",
",.	c #C9BEBA",
"'.	c #221B1C",
").	c #191928",
"!.	c #B29E92",
"~.	c #674F45",
"{.	c #22140B",
"].	c #000009",
"^.	c #656865",
"/.	c #695B54",
"(.	c #665444",
"_.	c #B4A59C",
":.	c #000008",
"<.	c #41483C",
"[.	c #5C5B55",
"}.	c #2E2E43",
"|.	c #5C575A",
"1.	c #221914",
"2.	c #120201",
"3.	c #4D3A31",
"4.	c #130F11",
"5.	c #140C04",
"6.	c #210E00",
"7.	c #635A54",
"8.	c #0B0A03",
"9.	c #6B5442",
"0.	c #BB9C83",
"a.	c #725A46",
"b.	c #C4A48B",
"c.	c #C39C83",
"  . . . . + + @ @     # $ % # $ $ $ $ % & +   * *               ",
"+ & + + & & + @ @ # = - ; > > , , $ - - # # + @ * + + +       + ",
"+ + + + + + + @ # ' ; ; ) ! ! ~ > # , { ' , # * ] + + +     + + ",
"+ + + + + + ^ $ - ; > / ) ( ) ! ; > _ : < { [ $ * + + + + + + + ",
"+ + + + + + ^ $ > > } } ( | ( ) ) - 1 - ( 2 > $ * + + + + + + + ",
"^ ^ ^ ^ ^ ^ $ > ; } 2 | 3 4 | 5 ! , : # ; 3 { - # + + + + + 6 6 ",
"@ 7 7 7 7 7 # > - ) 4 | 3 ) ) / > > ; _ , { 2 ! # * * * 7 7 @ @ ",
"8 9 @ @ @ @ $ > 0 > ! ! } ; ; ' ~ # % / 1 : ) ! $ * * 9 9 9 9 9 ",
"]   . . .   a # $ > > > ; > b % $ ! / c d e ~ b f   . . . . . @ ",
"8   + + + & a { / # b # # # > g g { % % 4 / h i j + + + + + . 9 ",
"8 k + + + + a : [ ! ) ' l m n n l h , : % # i o i & & + + + . 8 ",
"@ p + + & & a b $ > > j m q r s t n u o - # v w > + + + + + & 8 ",
"9 p + & & + f } 0 % # x r y z A t B C o , b i w > ^ ^ ^ ^ ^ + 8 ",
"8 p ^ ^ ^ ^ ^ s } ; # D E F G H t I J J i $ i o n ^ ^ ^ ^ ^ ^ 8 ",
"7 * * * @ 9 7 a } ; > $ m K L r _ > J J i h $ I s * 9 @ * 7 7 M ",
"@ 9 9 9 7 7 @ 9 = ! ' > j > ! ) } 1 v v $ N O P 8 * 7 7 7 9 9 9 ",
"              @ * Q $ > $ ; - } 5 R S T - ! 4 Q ] . . . . . . . ",
"+ + + + k k + @ * = U # V $ $ W X Y Z ; ) ` a * 8   + + +  .. . ",
"+ k + + + k + * * + a h % # U ..Z +.= = a a + 9 8   + + + & + + ",
"+ + k + + k + @ @ + Q > ; h s # @.#.s $.s + + 8 9 + + + & + + + ",
"+ + + k + k k * * Q %.! ) > #.I &.*.=.*.-.$ ^ 8 9 + + + & + + + ",
"+ + k k + + + @ * a 0 ( ! ; # B ;.G >.,.'.U % 8 9 ^ ^ ^ ).^ ^ ^ ",
"* * * 7 9 9 9 7 7 ..: d ` ) > s !.~.F {.-.= 9 ].].7 ].].* 7 * @ ",
"].7 * * * * * * a m a > ! ^.! s *./.(._.'.:.7 8 9 9 9 9 9 9 * * ",
"7 . .   . . .   a g t f <.[.` D s r F ;..     }.  . . . .     @ ",
"7 .     . + + + $ $ g [.;.i g |.y 1.2.{.+ + +     & & & & & + 9 ",
"* . + + & + + + $ ! $ j j a a a a ;.3.L + + + + + + + + + + + 9 ",
"* + + + + + k k & 4.= # $ > > a : 5.6.;.+ + + + + + + k k + + 9 ",
"* ^ + + + + + + + # i 7.y s f a a g F F ;.+ + + ^ ^ + + k + + 9 ",
"* ^ ^ ^ p p p ^ ^ 8.9.0.0.9.;.a a 7.(.!.a ^ ^ ^ ^ ^ ^ ^ ^ ^ ^ 9 ",
"@ @ 9 9 9 9 9 9 9 a a.b.c.a.a a f a ;.;.8.9 9 9 9 9 9 9 8 8 @ 9 ",
"9 9 9 9 9 9 9 9 9 9 @ @ 8 8 8 8 8 9 9 9 9 9 9 9 9 9 9 @ @ 9 9 9 "};
