/* XPM */
static char * NinjaDoor_xpm[] = {
"32 32 400 2",
"  	c #000010",
". 	c #000014",
"+ 	c #00000D",
"@ 	c #3A3A54",
"# 	c #35354D",
"$ 	c #202036",
"% 	c #1D1D32",
"& 	c #00000E",
"* 	c #1B1B2B",
"= 	c #00000A",
"- 	c #141426",
"; 	c #222237",
"> 	c #26170C",
", 	c #624F40",
"' 	c #413125",
") 	c #161625",
"! 	c #00000B",
"~ 	c #24170E",
"{ 	c #4A3D33",
"] 	c #20201F",
"^ 	c #1F1E1C",
"/ 	c #252320",
"( 	c #21221F",
"_ 	c #1F2422",
": 	c #1F2322",
"< 	c #201D1A",
"[ 	c #5B493B",
"} 	c #362920",
"| 	c #2A2C2B",
"1 	c #2D2F2F",
"2 	c #3E4140",
"3 	c #424644",
"4 	c #4E5150",
"5 	c #484D4C",
"6 	c #454A48",
"7 	c #424544",
"8 	c #383A3A",
"9 	c #2F3232",
"0 	c #221C16",
"a 	c #1E140C",
"b 	c #363635",
"c 	c #414243",
"d 	c #3D4142",
"e 	c #2C2E2E",
"f 	c #3F4342",
"g 	c #575B5A",
"h 	c #606463",
"i 	c #565A59",
"j 	c #515352",
"k 	c #4E504F",
"l 	c #444848",
"m 	c #3F4140",
"n 	c #251F1C",
"o 	c #43372D",
"p 	c #3D3F3E",
"q 	c #515452",
"r 	c #3D4141",
"s 	c #292A2A",
"t 	c #383D3D",
"u 	c #5C6060",
"v 	c #5F6263",
"w 	c #5C5F5F",
"x 	c #565A58",
"y 	c #4B4F4E",
"z 	c #434444",
"A 	c #211E1D",
"B 	c #19192B",
"C 	c #21150D",
"D 	c #474B49",
"E 	c #565858",
"F 	c #434747",
"G 	c #424444",
"H 	c #1E2121",
"I 	c #454748",
"J 	c #525353",
"K 	c #545555",
"L 	c #565959",
"M 	c #5A5D5B",
"N 	c #4D504E",
"O 	c #383A39",
"P 	c #05070C",
"Q 	c #151522",
"R 	c #554437",
"S 	c #333534",
"T 	c #5B5E5E",
"U 	c #4C5150",
"V 	c #3E4341",
"W 	c #1C201E",
"X 	c #2A2E2B",
"Y 	c #2B2D2E",
"Z 	c #3A3E3D",
"` 	c #4A4C4B",
" .	c #4A4D4B",
"..	c #454846",
"+.	c #434645",
"@.	c #3E413F",
"#.	c #1E1712",
"$.	c #382A20",
"%.	c #313332",
"&.	c #555656",
"*.	c #606361",
"=.	c #4F5251",
"-.	c #3D4242",
";.	c #202322",
">.	c #3E4042",
",.	c #282C2B",
"'.	c #212322",
").	c #2D302E",
"!.	c #414342",
"~.	c #3E4242",
"{.	c #242525",
"].	c #1D1511",
"^.	c #201209",
"/.	c #303131",
"(.	c #565757",
"_.	c #5B5E5C",
":.	c #3F4443",
"<.	c #1F2121",
"[.	c #444849",
"}.	c #4C5050",
"|.	c #404544",
"1.	c #3A3E3C",
"2.	c #252626",
"3.	c #242625",
"4.	c #353736",
"5.	c #000007",
"6.	c #313533",
"7.	c #535755",
"8.	c #545857",
"9.	c #474A49",
"0.	c #414440",
"a.	c #4D504F",
"b.	c #595C5A",
"c.	c #575B5B",
"d.	c #4C4F4F",
"e.	c #434545",
"f.	c #3C3F3E",
"g.	c #30322F",
"h.	c #515351",
"i.	c #535654",
"j.	c #2A2D2A",
"k.	c #3D3D3A",
"l.	c #5A5C59",
"m.	c #7E807F",
"n.	c #585A5A",
"o.	c #5D5F5F",
"p.	c #4B4E4E",
"q.	c #3F4040",
"r.	c #3F4242",
"s.	c #3C403E",
"t.	c #21140B",
"u.	c #313231",
"v.	c #454646",
"w.	c #535555",
"x.	c #333838",
"y.	c #3B3D3C",
"z.	c #3E3C3A",
"A.	c #C1BCB8",
"B.	c #C6C8C7",
"C.	c #616463",
"D.	c #444947",
"E.	c #434745",
"F.	c #25160B",
"G.	c #615B57",
"H.	c #454948",
"I.	c #626565",
"J.	c #2D3031",
"K.	c #363633",
"L.	c #4F504C",
"M.	c #6B6C6A",
"N.	c #949594",
"O.	c #454946",
"P.	c #4F5252",
"Q.	c #363736",
"R.	c #5A5B5D",
"S.	c #4A4C4C",
"T.	c #5D5C5C",
"U.	c #313147",
"V.	c #23150B",
"W.	c #797775",
"X.	c #494A49",
"Y.	c #878A8A",
"Z.	c #5B5F5E",
"`.	c #606363",
" +	c #353835",
".+	c #646564",
"++	c #909191",
"@+	c #0D1515",
"#+	c #454645",
"$+	c #7D7E7E",
"%+	c #757779",
"&+	c #838484",
"*+	c #21140A",
"=+	c #34312E",
"-+	c #363A3A",
";+	c #3C3E3E",
">+	c #4B5051",
",+	c #ABA8A6",
"'+	c #B8B6B4",
")+	c #B8B9B9",
"!+	c #B1B2B2",
"~+	c #606060",
"{+	c #434646",
"]+	c #4D4E4E",
"^+	c #030102",
"/+	c #01020C",
"(+	c #030306",
"_+	c #282A29",
":+	c #595B5A",
"<+	c #5A5B5B",
"[+	c #424646",
"}+	c #32383B",
"|+	c #505554",
"1+	c #3D3B38",
"2+	c #433E3A",
"3+	c #413D39",
"4+	c #393836",
"5+	c #515252",
"6+	c #292B2B",
"7+	c #4C4D4D",
"8+	c #5F6060",
"9+	c #525252",
"0+	c #171516",
"a+	c #1E1D2E",
"b+	c #000505",
"c+	c #4D4F50",
"d+	c #494C4B",
"e+	c #323637",
"f+	c #333837",
"g+	c #4F514B",
"h+	c #322E26",
"i+	c #817163",
"j+	c #7C6958",
"k+	c #494036",
"l+	c #575B59",
"m+	c #343637",
"n+	c #514A4B",
"o+	c #676365",
"p+	c #534F4F",
"q+	c #1D1A1C",
"r+	c #191928",
"s+	c #181829",
"t+	c #7B7677",
"u+	c #3E3D3E",
"v+	c #605F60",
"w+	c #494D4A",
"x+	c #1C2224",
"y+	c #484D4D",
"z+	c #5E5C5B",
"A+	c #423933",
"B+	c #AC9789",
"C+	c #A1856C",
"D+	c #675748",
"E+	c #5C5E5F",
"F+	c #4F545A",
"G+	c #282C2F",
"H+	c #4A4343",
"I+	c #615959",
"J+	c #534E4D",
"K+	c #777474",
"L+	c #242426",
"M+	c #000009",
"N+	c #202024",
"O+	c #161618",
"P+	c #9A9696",
"Q+	c #504C4E",
"R+	c #252323",
"S+	c #1B1D1E",
"T+	c #44474A",
"U+	c #50504F",
"V+	c #3F362E",
"W+	c #AE9585",
"X+	c #A78466",
"Y+	c #6C5744",
"Z+	c #4A4947",
"`+	c #454A4F",
" @	c #2D2F32",
".@	c #3D3731",
"+@	c #2B2322",
"@@	c #49423E",
"#@	c #99928B",
"$@	c #34302E",
"%@	c #2A2829",
"&@	c #3A3B4A",
"*@	c #8E8E8E",
"=@	c #868584",
"-@	c #383635",
";@	c #888283",
">@	c #52504F",
",@	c #252625",
"'@	c #131514",
")@	c #373B39",
"!@	c #41413D",
"~@	c #393129",
"{@	c #AD9687",
"]@	c #A3866F",
"^@	c #685548",
"/@	c #262826",
"(@	c #15100D",
"_@	c #554E49",
":@	c #7B756F",
"<@	c #56514C",
"[@	c #6E6C6A",
"}@	c #A4A19F",
"|@	c #484651",
"1@	c #393953",
"2@	c #434449",
"3@	c #919392",
"4@	c #989795",
"5@	c #8E8B8D",
"6@	c #070301",
"7@	c #180D06",
"8@	c #11120F",
"9@	c #3E403F",
"0@	c #262624",
"a@	c #8B8886",
"b@	c #8B7F78",
"c@	c #92837B",
"d@	c #908581",
"e@	c #332D29",
"f@	c #4B433E",
"g@	c #453E3C",
"h@	c #1F1A17",
"i@	c #170D06",
"j@	c #000003",
"k@	c #7E7B7D",
"l@	c #999795",
"m@	c #909091",
"n@	c #6C696C",
"o@	c #1B1B2F",
"p@	c #1F1F35",
"q@	c #48494A",
"r@	c #9B9C9C",
"s@	c #767476",
"t@	c #59483A",
"u@	c #7C7C7C",
"v@	c #2D231B",
"w@	c #323434",
"x@	c #323332",
"y@	c #1E1F1F",
"z@	c #737170",
"A@	c #A19DA0",
"B@	c #968C8B",
"C@	c #887F7D",
"D@	c #3C3532",
"E@	c #35302F",
"F@	c #1E1D1D",
"G@	c #24150B",
"H@	c #636164",
"I@	c #A1A2A2",
"J@	c #5D5E60",
"K@	c #1E1E33",
"L@	c #323334",
"M@	c #281D16",
"N@	c #221912",
"O@	c #3F4343",
"P@	c #4A4D4F",
"Q@	c #585B5D",
"R@	c #525454",
"S@	c #727073",
"T@	c #928E91",
"U@	c #504A4E",
"V@	c #605A5F",
"W@	c #4F4E51",
"X@	c #403E3F",
"Y@	c #313131",
"Z@	c #403125",
"`@	c #01010E",
" #	c #373839",
".#	c #18182A",
"+#	c #1A191A",
"@#	c #545656",
"##	c #535655",
"$#	c #4E4C50",
"%#	c #3D3C40",
"&#	c #5A585C",
"*#	c #58585F",
"=#	c #545155",
"-#	c #2C282C",
";#	c #23150C",
">#	c #1B0F07",
",#	c #212020",
"'#	c #373838",
")#	c #2E3032",
"!#	c #030406",
"~#	c #040307",
"{#	c #292D2E",
"]#	c #323538",
"^#	c #2E3134",
"/#	c #3B2F26",
"(#	c #3F2F24",
"_#	c #333633",
":#	c #535554",
"<#	c #474849",
"[#	c #030304",
"}#	c #000000",
"|#	c #4F5152",
"1#	c #4E5352",
"2#	c #444748",
"3#	c #4E3E32",
"                    . . + + + + +                     . .       ",
"@ # # # # $ $ . . @ @ @ @ @ @ # @ # # # % $ @ & & @ @ @ @ @ @ @ ",
"$ % $ $ % % $ . . @ $ $ $ $ $ $ % % $ % % % $ . & $ $ $ @ @ @ $ ",
"$ $ $ $ $ $ $ . . $ $ & & & & & & & & & & & * & = $ $ $ @ @ $ $ ",
"$ $ $ $ $ $ * . . * & - & & & & & & & & & @ & = & $ $ $ $ $ $ $ ",
"$ $ $ $ $ $ * . . & ; & > > > > > > > > > & @ & & $ $ $ $ $ $ $ ",
"* * * * * * * . & ; & > > , ' ' > , ' ' > > & @ & $ $ $ $ $ ) ) ",
". ! ! ! ! ! & & ; & > ' ~ { ] ^ / ( _ : < [ > & ; & & & ! ! . . ",
"+   . . . . & @ ; & > } | 1 2 3 4 5 6 7 8 9 0 & ; ; &           ",
"= @ # # # @ & - & > a b c d e f g h i j k l m n & - & # # # # . ",
"+ @ $ $ $ % & ; & > o p q r s t l u v w x y z A & - & $ $ $ #   ",
"+ B $ $ $ $ & @ & C 9 D E F G H I J K L M N z O P @ & $ $ $ # + ",
". Q $ $ % % & & > R S j T U V W X Y Z `  ...+.@.#.& & $ $ $ % + ",
"  Q $ % % $ & & > $.%.&.*.=.-.;.>.2 ,.'.).!.~.{.].& & * * * $ + ",
"+ Q * * * * & @ & ^./.(._.N :.<.[.}.|.:.1.2.3.4.5.- & * * * * + ",
"! & & & .   & ; & ^.6.7.8.9.O ).0.a.b.c.d.e.z f.5.- & . & ! ! 5.",
".       ! ! & ; & ^.g.h.i.l j.k.l.m.n.o.p.q.r.s.5.- & ! !       ",
"@ @ @ @ @ @ & ; & t.u.v.w.x.y.z.A.B.C.j D.G E.4.5.; & # # # # # ",
"$ $ $ $ B B & ; & F.G.H.I.J.K.L.M.N.O.P.Q.R.S.T.+ - & $ $ U.# # ",
"$ B $ $ $ B & ; & V.W.X.Y.Z.`. +.+++@+#+$+%+c &+! - & $ $ % $ $ ",
"$ $ B $ $ B & ; & *+=+-+;+>+f.,+'+)+!+p ~+{+]+^+/+; & $ % $ $ $ ",
"$ $ $ B $ B & @ (+_+:+<+[+}+|+1+2+3+4+5+6+7+8+9+0+a+& $ % $ $ $ ",
"$ $ B B $ $ & @ b+c+:+d+e+f+g+h+i+j+k+l+-.m+n+o+p+q++ * r+* * * ",
"& & & !     & s+t+u+v+w+x+y+z+A+B+C+D+E+F+G+H+I+J+K+L+M+& ! & . ",
"M+! & & & & N+O+P+Q+R+r.S+T+U+V+W+X+Y+Z+`+ @.@+@@@#@$@%@    & & ",
"! # # @ # &@*@=@-@;@>@,@'@)@!@~@{@]@^@.@!./@(@_@:@<@[@}@|@1@@ . ",
"! # @ @ # 2@3@4@5@6@7@8@G 9@0@a@b@c@d@e@f@g@h@i@j@k@l@m@n@o@$   ",
"& # $ $ % p@q@r@s@t@u@v@w@x@y@z@A@B@C@+@D@E@F@, G@H@I@J@K@$ $   ",
"& $ $ $ $ $ & L@M@' ' N@O@P@Q@R@S@T@U@V@W@X@Y@Z@> `@ #.#B $ $   ",
"& * $ $ $ $ & @ & > > > +#c+@###$#%#&#*#=#-#;#> & @ & $ B $ $   ",
"& * * * Q Q & ; & > , ' >#,#'#)#!#~#{#]#^#/#(#> & @ & * * * *   ",
". .         & ; & > , ' V._#:#<#[#}#|#1#2#3#' > & @ &   + + .   "};
