/* XPM */
static char * NinjaA3_xpm[] = {
"32 32 124 2",
"  	c #000010",
". 	c #000014",
"+ 	c #00000D",
"@ 	c #3A3A54",
"# 	c #35354D",
"$ 	c #202036",
"% 	c #0C0C0C",
"& 	c #0E1312",
"* 	c #151916",
"= 	c #131414",
"- 	c #1D1D32",
"; 	c #00000E",
"> 	c #1A1B1B",
", 	c #434444",
"' 	c #444946",
") 	c #3D413E",
"! 	c #3C3D3D",
"~ 	c #5A5B5B",
"{ 	c #555956",
"] 	c #535554",
"^ 	c #4D514E",
"/ 	c #4A4B4B",
"( 	c #00000A",
"_ 	c #1B1B2B",
": 	c #464A4A",
"< 	c #69666B",
"[ 	c #565A5A",
"} 	c #5D605E",
"| 	c #616563",
"1 	c #636464",
"2 	c #656865",
"3 	c #130F11",
"4 	c #434649",
"5 	c #5E6162",
"6 	c #646666",
"7 	c #161625",
"8 	c #00000B",
"9 	c #3D4242",
"0 	c #66696A",
"a 	c #3C3E41",
"b 	c #555659",
"c 	c #090509",
"d 	c #020101",
"e 	c #4E5352",
"f 	c #15191A",
"g 	c #141619",
"h 	c #040805",
"i 	c #19192B",
"j 	c #D3D2D2",
"k 	c #4F5147",
"l 	c #13120D",
"m 	c #4E555A",
"n 	c #151522",
"o 	c #4B4444",
"p 	c #CCD1CE",
"q 	c #1C1204",
"r 	c #6A6457",
"s 	c #1B1914",
"t 	c #3D4449",
"u 	c #DBD3D4",
"v 	c #D3CDCD",
"w 	c #5A5654",
"x 	c #6B594B",
"y 	c #140C04",
"z 	c #6A6B6B",
"A 	c #0D1519",
"B 	c #4B454A",
"C 	c #221B1C",
"D 	c #443E41",
"E 	c #E4D5D8",
"F 	c #4A3E41",
"G 	c #1B1414",
"H 	c #AB9D95",
"I 	c #B49D8B",
"J 	c #1B130C",
"K 	c #DCCED3",
"L 	c #221513",
"M 	c #210E00",
"N 	c #231304",
"O 	c #000007",
"P 	c #232323",
"Q 	c #5C575A",
"R 	c #635A54",
"S 	c #4B433D",
"T 	c #020409",
"U 	c #C3C4C4",
"V 	c #CBCBCB",
"W 	c #313147",
"X 	c #1B161A",
"Y 	c #5C5E62",
"Z 	c #191928",
"` 	c #130D0C",
" .	c #000009",
"..	c #5D636B",
"+.	c #0A0201",
"@.	c #AE9A88",
"#.	c #684E3C",
"$.	c #6A625C",
"%.	c #0D110E",
"&.	c #B3A8A3",
"*.	c #73543D",
"=.	c #5B564A",
"-.	c #2E2E43",
";.	c #625552",
">.	c #695B54",
",.	c #CCCCD1",
"'.	c #BB9C83",
").	c #6D523B",
"!.	c #ABA39A",
"~.	c #120201",
"{.	c #1A0E0C",
"].	c #1C0C03",
"^.	c #CAC5C3",
"/.	c #B6A38C",
"(.	c #CAC3BD",
"_.	c #41483C",
":.	c #C2BEC2",
"<.	c #6B5442",
"[.	c #BCA28C",
"}.	c #C4C6CA",
"|.	c #BAA284",
"1.	c #73654E",
"2.	c #5C544D",
"3.	c #151A21",
"                    . . + + + + +                     . .       ",
"@ # # # # $ $ . . @ @ % & * = * = = * * - $ @ ; ; @ @ @ @ @ @ @ ",
"$ - $ $ - - $ . . = > , ' * ) ' , , ) ) * % $ . ; $ $ $ @ @ @ $ ",
"$ $ $ $ $ $ $ . * ! ' ~ , = ) ' { ] ^ / , , = ; ( $ $ $ @ @ $ $ ",
"$ $ $ $ $ $ _ * : { < , & , ) [ ~ } ~ { ! ' : = ; $ $ $ $ $ $ $ ",
"$ $ $ $ $ $ _ > ' | 1 , = , ~ ] 2 1 | ~ ] , , > ; $ $ $ $ $ $ $ ",
"_ _ _ _ _ _ = , ] | / 3 ' 4 { ~ 2 | 2 5 6 ] ' ! = $ $ $ $ $ 7 7 ",
". 8 8 8 8 8 > { | ~ , * , 9 , ~ [ { 5 0 ~ ] / 4 = ; ; ; 8 8 . . ",
"+   . . . . = { ~ , = ~ = & a 9 a 4 [ b ] 9 4 4 c ; ;           ",
"( @ # # # @ d * ! = e } ~ [ & > f 9 4 , ! 9 g * h @ # # # # # . ",
"+ @ $ $ $ - * 4 = { ] * * e { [ / = * g & g / b d $ $ $ $ $ #   ",
"+ i $ $ $ $ ' j 9 & & 9 , * , , k l , , m [ , , d - - $ $ $ # + ",
". n $ $ - - o j 4 = , p p ' = = q r s g t 9 = > d $ $ $ $ $ - + ",
"  n $ - - $ ' u ! * ' j v , * w x x y z A f , ] h _ _ _ _ _ $ + ",
"+ n _ _ _ _ ' u B C D E u F G H I I J 2 A t e = _ _ _ _ _ _ _ + ",
"8 ; ; ; .   = / G G o u K F G L M N J > t 4 ] d ; ;   . ; 8 8 O ",
".       8 8 . d ] , P , D 3 Q 1 R S = , : [ = + + ; 8 8 8       ",
"@ @ @ @ @ @ @ d 0 { ' > * ~ ~ ~ , 4 = , ] T @   ( # # # # # # # ",
"$ $ $ $ i i $ . d | { , * ' , , > = U = V > # ; + @ $ $ $ W # # ",
"$ i $ $ $ i $ ; = d d > = * % X U = c = d T $   + @ $ $ $ - $ $ ",
"$ $ i $ $ i $ c U G % d V * U * & g , b ~ a d +   $ $ $ - $ $ $ ",
"$ $ $ i $ i % V G d d * * { 3 ' , g , b Y b , d   $ $ $ - $ $ $ ",
"$ $ i i $ > V * h ~ { * 1 { B ' b , g , ~ 0 { d   _ _ _ Z _ _ _ ",
"; ; ; 8     % > { { 0 % 0 ~ ! | { , G ` ] | { d  .8  . .; 8 ; . ",
" .8 ; ; ; ; ; = } { ..T ~ ' ' ] d +.@.#.$.[ ' d             ; ; ",
"8 # # @ # # # @ = d d f * %.= = l &.*.*.=.) d -.@ # # # # @ @ . ",
"8 # @ @ # $ $ $ @ # d ;.=.>.X ,.V s '.).!.' h @ @ - - - - - $   ",
"; # $ $ - $ $ $ $ - ~.{.].].V d g ^.]./.d d h $ $ $ $ $ $ $ $   ",
"; $ $ $ $ $ i i - - c D l ^.g g V d (.s _.d h $ $ $ $ i i $ $   ",
"; _ $ $ $ $ $ $ $ $ d G q J 3 :.d h U = ! ' d $ _ _ $ $ i $ $   ",
"; _ _ _ n n n _ _ _ ~.<.[./.J d g }.& d d d _ _ _ _ _ _ _ _ _   ",
". .                 +.[.|.1.2.d ,.3.+ +                 + + .   "};
