/* XPM */
static char * NinjaA1_xpm[] = {
"32 32 129 2",
"  	c #000010",
". 	c #000014",
"+ 	c #00000D",
"@ 	c #3A3A54",
"# 	c #35354D",
"$ 	c #202036",
"% 	c #151916",
"& 	c #131414",
"* 	c #1A1B1B",
"= 	c #1D1D32",
"- 	c #00000E",
"; 	c #141619",
"> 	c #3C3D3D",
", 	c #434649",
"' 	c #434444",
") 	c #444946",
"! 	c #363C3C",
"~ 	c #0C0C0C",
"{ 	c #464A4A",
"] 	c #565A5A",
"^ 	c #5A5B5B",
"/ 	c #535554",
"( 	c #00000A",
"_ 	c #1B1B2B",
": 	c #555659",
"< 	c #66696A",
"[ 	c #636464",
"} 	c #5D605E",
"| 	c #555956",
"1 	c #1C1C21",
"2 	c #5C5E62",
"3 	c #3D4242",
"4 	c #4E5352",
"5 	c #646666",
"6 	c #3C3E41",
"7 	c #0E1312",
"8 	c #5E6162",
"9 	c #161625",
"0 	c #00000B",
"a 	c #616563",
"b 	c #3D413E",
"c 	c #4A4B4B",
"d 	c #020101",
"e 	c #15191A",
"f 	c #3D4449",
"g 	c #090509",
"h 	c #13120D",
"i 	c #0D110E",
"j 	c #0D1519",
"k 	c #0C1919",
"l 	c #19192B",
"m 	c #4B4444",
"n 	c #CBCBCB",
"o 	c #4B4945",
"p 	c #4E555A",
"q 	c #151522",
"r 	c #D3D2D2",
"s 	c #4D514E",
"t 	c #DBD3D4",
"u 	c #1C1204",
"v 	c #695B54",
"w 	c #444A52",
"x 	c #43423E",
"y 	c #1B1914",
"z 	c #635A54",
"A 	c #6B594B",
"B 	c #130D0C",
"C 	c #6A6B6B",
"D 	c #151A21",
"E 	c #433D3D",
"F 	c #221513",
"G 	c #E4D5D8",
"H 	c #4A3E41",
"I 	c #271819",
"J 	c #AB9D95",
"K 	c #BCA28C",
"L 	c #B49D8B",
"M 	c #1B130C",
"N 	c #364143",
"O 	c #1B1414",
"P 	c #DACCCD",
"Q 	c #DCCED3",
"R 	c #1C0C03",
"S 	c #210E00",
"T 	c #040805",
"U 	c #000007",
"V 	c #52524E",
"W 	c #4B433D",
"X 	c #5C5B55",
"Y 	c #565963",
"Z 	c #C6C8C6",
"` 	c #C3C4C4",
" .	c #313147",
"..	c #020409",
"+.	c #1B161A",
"@.	c #C4C6CA",
"#.	c #D3CDCD",
"$.	c #D3C6C5",
"%.	c #22140B",
"&.	c #1A0E0C",
"*.	c #CAC5C3",
"=.	c #231304",
"-.	c #B6A38C",
";.	c #0A0201",
">.	c #433C35",
",.	c #191928",
"'.	c #0B0A03",
").	c #B5A393",
"!.	c #6E5A46",
"~.	c #000009",
"{.	c #B4A59C",
"].	c #64554B",
"^.	c #28283A",
"/.	c #120201",
"(.	c #5C544D",
"_.	c #2E2E43",
":.	c #5A5654",
"<.	c #221914",
"[.	c #B29E92",
"}.	c #BCA494",
"|.	c #69564C",
"1.	c #6B5442",
"2.	c #725A46",
"3.	c #4C3F36",
"4.	c #625C5B",
"5.	c #554A44",
"6.	c #C39C83",
"7.	c #BB9C83",
"8.	c #64594D",
"                    . . + + + + +                     . .       ",
"@ # # # # $ $ . . @ @ % & % & * & % % & = $ @ - - @ @ @ @ @ @ @ ",
"$ = $ $ = = $ . . ; ; > , & ' ' ) , ' ! % ~ $ . - $ $ $ @ @ @ $ ",
"$ $ $ $ $ $ $ . % { ' ] ' % , , ^ ^ / { ' ' & - ( $ $ $ @ @ $ $ ",
"$ $ $ $ $ $ _ % ' : < , * , , / ^ [ } | ' ' , & - $ $ $ $ $ $ $ ",
"$ $ $ $ $ $ _ 1 ' 2 [ , & 3 / 4 5 < 5 ^ | ' 6 * - $ $ $ $ $ $ $ ",
"_ _ _ _ _ _ & ) / ^ { 7 ' , / | 5 [ < 8 5 / ' ! % $ $ $ $ $ 9 9 ",
". 0 0 0 0 0 * ^ a | 3 & b , { | ^ ] 8 8 ] ] c 3 & - - - 0 0 . . ",
"+   . . . . & ^ ^ { & ^ * % , ' ! 3 ] ] ] ' , c ~ - -           ",
"( @ # # # @ d % c * / | / 8 % % e f f 3 ! f % % g @ # # # # # . ",
"+ @ $ $ $ = h > & ^ ^ % i | | 4 ) 7 % j j k 4 ] d $ $ $ $ $ #   ",
"+ l $ $ $ $ m n ) i i ' > i ) ' o h b 3 p ] ' 3 d = = $ $ $ # + ",
". q $ $ = = ) r > ~ s r t b i h u v & j w f ; % d $ $ $ $ $ = + ",
"  q $ = = $ ' r o & m t r x y z A A B C e D 3 / d _ _ _ _ _ $ + ",
"+ q _ _ _ _ ' t E F m G G H I J K L M < j N / & _ _ _ _ _ _ _ + ",
"0 - - - .   & ' F O m P Q H O M R S h % N f ] T - -   . - 0 0 U ",
".       0 0 . d V W h E ' 7 : / X x h 3 , 8 % + + - 0 0 0       ",
"@ @ @ @ @ @ @ d [ V o ~ ; ] p Y 3 ) & ' & d @   ( # # # # # # # ",
"$ $ $ $ l l $ . d [ / ' & , 6 , % % Z % ` & # - + @ $ $ $  .# # ",
"$ l $ $ $ l $ - - d ..; +.+.; ; @.e h y d = $   + @ $ $ $ = $ $ ",
"$ $ l $ $ l $ . . $ ; n B O #.O * % b m g $ $ +   $ $ $ = $ $ $ ",
"$ $ $ l $ l l - - * @.; $.%.&.m & b / V ) T _ +   $ $ $ = $ $ $ ",
"$ $ l l $ $ $ . O *.% n =.-.;.>.& x / a ' d _ +   _ _ _ ,._ _ _ ",
"- - - 0       0 0 y n '.).!.).y x ^ } / m d   ~.~.0 ~.~.- 0 - . ",
"~.0 - - - - - - 0   M {.A ].M & | } | m d M '.+             - - ",
"0 # # @ # # # @ ^.@ # /.J F O a 5 : ' d h (.;._.@ # # # # @ @ . ",
"0 # @ @ # $ $ $ @ # # h '.y ^ ^ ] , d :.a h h @ @ = = = = = $   ",
"- # $ $ = $ $ $ $ = $ <.m d d d ..d B B & ^ % $ $ $ $ $ $ $ $   ",
"- $ $ $ $ $ l l = = $ /.S R >.d , ' %.%.y % $ $ $ $ $ l l $ $   ",
"- _ $ $ $ $ $ $ $ $ /.[.}.|.;.T T y 1.2.3.h $ $ _ _ $ $ l $ $   ",
"- _ _ _ q q q _ _ _ d {.v 4.d d ;.5.6.7.|.;._ _ _ _ _ _ _ _ _   ",
". .                 d d ;.d T d d 8.K K 8.d             + + .   "};
