/* XPM */
static char * NinjaW1_xpm[] = {
"32 32 120 2",
"  	c #000010",
". 	c #000014",
"+ 	c #00000D",
"@ 	c #3A3A54",
"# 	c #35354D",
"$ 	c #202036",
"% 	c #151916",
"& 	c #0E1312",
"* 	c #131414",
"= 	c #00000E",
"- 	c #1D1D32",
"; 	c #434444",
"> 	c #434649",
", 	c #464A4A",
"' 	c #3D4242",
") 	c #3C3D3D",
"! 	c #565A5A",
"~ 	c #4D514E",
"{ 	c #444946",
"] 	c #4A4B4B",
"^ 	c #00000A",
"/ 	c #1B1B2B",
"( 	c #3D413E",
"_ 	c #0D110E",
": 	c #535554",
"< 	c #636464",
"[ 	c #616563",
"} 	c #5A5B5B",
"| 	c #555956",
"1 	c #1A1B1B",
"2 	c #66696A",
"3 	c #6A6B6B",
"4 	c #161625",
"5 	c #00000B",
"6 	c #5D605E",
"7 	c #4E5352",
"8 	c #555659",
"9 	c #141619",
"0 	c #3C3E41",
"a 	c #0C0C0C",
"b 	c #020101",
"c 	c #19192B",
"d 	c #C3C4C4",
"e 	c #020409",
"f 	c #151522",
"g 	c #CBCBCB",
"h 	c #D3D2D2",
"i 	c #C4C6CA",
"j 	c #040805",
"k 	c #BEC3C2",
"l 	c #000007",
"m 	c #CCC9C6",
"n 	c #CAC6CA",
"o 	c #130D0C",
"p 	c #0D0E12",
"q 	c #CCCCD1",
"r 	c #1A0E0C",
"s 	c #22140B",
"t 	c #221914",
"u 	c #1B1414",
"v 	c #CAC5C3",
"w 	c #090509",
"x 	c #CAC3BD",
"y 	c #695B54",
"z 	c #69564C",
"A 	c #1B1914",
"B 	c #1B161A",
"C 	c #434552",
"D 	c #3D4449",
"E 	c #313147",
"F 	c #1B130C",
"G 	c #B5A393",
"H 	c #6D523B",
"I 	c #BCA28C",
"J 	c #140C04",
"K 	c #444A52",
"L 	c #4E555A",
"M 	c #64656A",
"N 	c #13120D",
"O 	c #B69C87",
"P 	c #775435",
"Q 	c #C4A48B",
"R 	c #26180D",
"S 	c #5A5654",
"T 	c #5C5E62",
"U 	c #0D1519",
"V 	c #364143",
"W 	c #646666",
"X 	c #6A625C",
"Y 	c #5C5B55",
"Z 	c #1C1204",
"` 	c #BAA284",
" .	c #C89B78",
"..	c #1C0C03",
"+.	c #5C575A",
"@.	c #15191A",
"#.	c #704D2A",
"$.	c #6A6464",
"%.	c #4B4945",
"&.	c #191928",
"*.	c #130F11",
"=.	c #0B0A03",
"-.	c #5B564A",
";.	c #43423E",
">.	c #AE9A88",
",.	c #C19E8B",
"'.	c #433D3D",
").	c #4B4444",
"!.	c #000009",
"~.	c #5C544D",
"{.	c #4B433D",
"].	c #0A0201",
"^.	c #D2C4BC",
"/.	c #231304",
"(.	c #B29E92",
"_.	c #D3C6C5",
":.	c #625552",
"<.	c #635A54",
"[.	c #625C5B",
"}.	c #D3CDCD",
"                    . . + + + + +                     . .       ",
"@ # # # # $ $ . . @ @ @ % & % % * * * * % $ @ = = @ @ @ @ @ @ @ ",
"$ - $ $ - - $ . . @ * % ; > ; ; ; ; ; ; , % * . = $ $ $ @ @ @ $ ",
"$ $ $ $ $ $ $ . . & ; ; & ' ) ! ~ ~ ~ ~ { { ] * ^ $ $ $ @ @ $ $ ",
"$ $ $ $ $ $ / . % { ' ( ; _ ; : < [ } | : ] , ) % $ $ $ $ $ $ $ ",
"$ $ $ $ $ $ / . 1 ; ! ; ' & > > ! } 2 3 } : ; ) % $ $ $ $ $ $ $ ",
"/ / / / / / / * ; ; | > ' ' % { } } | | [ | ) ; ; % $ $ $ $ 4 4 ",
". 5 5 5 5 5 = * ; : 6 7 ' ; % { { { , ] } 8 { ; ; % = = 5 5 . . ",
"+   . . . . . % ' | 6 | ' ; 9 * 9 * ; ; ; ; ; 0 ; % =           ",
"^ @ # # # @ # a ' | 6 | > > * ' ] ; & 1 * ' > ; % * # # # # # . ",
"+ @ $ $ $ - - b ' | 6 | > > * ' & 2 ; > ; % * * ; b $ $ $ $ #   ",
"+ c $ $ $ $ - b ' | 6 | ' ; 9 * d 9 } : 0 ; 0 ; ; e - $ $ $ # + ",
". f $ $ - - - b ; ! | ' ; * 1 g h i * 3 } ; > ; ] b $ $ $ $ - + ",
"  f $ - - $ $ e ) | | { > & ) % d * < 8 ' ' ' 0 ; b / / / / $ + ",
"+ f / / / / / j > { : > % { ' & d 1 8 } , ' ; > , b / / / / / + ",
"5 = = = .   5 5 e ; ) ' 9 > * % k * % : , , * , b =   . = 5 5 l ",
".       5 5 .   b > * 1 * * m n d g i 9 o o h 9 i % 5 5 5       ",
"@ @ @ @ @ @ @ p q e i & d 9 r s t u 9 u v u p e w # # # # # # # ",
"$ $ $ $ c c $ w b ' _ ; p a x y z z v A B ; C D , b $ $ $ E # # ",
"$ c $ $ $ c j b ' , [ ( & } F G H I J } : * K L M ; e $ $ - $ $ ",
"$ $ c $ $ c b b ; [ ; N 7 } J O P Q R S T , U V } W > b - $ $ $ ",
"$ $ $ c $ c b % ( X Y % > [ Z ` P  ...+.W > , @.! : } b - $ $ $ ",
"$ $ c c $ $ w ) N N Y _ ' Y Z ` #. .R 3 $.; N A %.: > b &./ / / ",
"= = = 5   *.a : =.-.N b { ;.Z >.P ,...%.'.%.b b ).{ j !.= 5 = . ",
"!.5 = = % d % S ~.Z {.].F F ^./.(./._.u o A :.b b b         = = ",
"5 # # @ # * d b <.y Z y y :.s ^.F x N <.[.S r b @ # # # # @ @ . ",
"5 # @ @ # $ * }.b ].{.F r t <.o }.].<.F N o : b @ - - - - - $   ",
"= # $ $ - $ $ A * - ].b o o o o u A o A < +.b $ $ $ $ $ $ $ $   ",
"= $ $ $ $ $ c c - - $ c b S : b '.S +.; b w $ $ $ $ $ c c $ $   ",
"= / $ $ $ $ $ $ $ $ $ $ b b e b ; : W : b $ $ $ / / $ $ c $ $   ",
"= / / / f f f / / / / / / / f e > > [ p / / / / / / / / / / /   ",
". .                         . b > , ' e                 + + .   "};
