/* XPM */
static char * NinjaW2_xpm[] = {
"32 32 140 2",
"  	c #000010",
". 	c #000014",
"+ 	c #131414",
"@ 	c #130D0C",
"# 	c #1B1914",
"$ 	c #1B130C",
"% 	c #151916",
"& 	c #15191A",
"* 	c #3A3A54",
"= 	c #35354D",
"- 	c #202036",
"; 	c #1A1B1B",
"> 	c #3C3D3D",
", 	c #444946",
"' 	c #3D413E",
") 	c #434444",
"! 	c #3D4242",
"~ 	c #00000E",
"{ 	c #1D1D32",
"] 	c #5D605E",
"^ 	c #565A5A",
"/ 	c #555956",
"( 	c #4D514E",
"_ 	c #4A4B4B",
": 	c #434649",
"< 	c #0E1312",
"[ 	c #4E5352",
"} 	c #66696A",
"| 	c #616563",
"1 	c #535554",
"2 	c #5A5B5B",
"3 	c #232323",
"4 	c #1B1B2B",
"5 	c #5E6162",
"6 	c #0C0C0C",
"7 	c #161625",
"8 	c #00000B",
"9 	c #636464",
"0 	c #00000D",
"a 	c #0D110E",
"b 	c #00000A",
"c 	c #090509",
"d 	c #020101",
"e 	c #020409",
"f 	c #464A4A",
"g 	c #19192B",
"h 	c #41483C",
"i 	c #151522",
"j 	c #050B09",
"k 	c #43423E",
"l 	c #13120D",
"m 	c #C6C8C6",
"n 	c #CAC3BD",
"o 	c #D9D9D9",
"p 	c #BEC3C2",
"q 	c #52524E",
"r 	c #C6CACA",
"s 	c #C3C4C4",
"t 	c #C4C6CA",
"u 	c #000007",
"v 	c #CBCBCB",
"w 	c #141619",
"x 	c #040805",
"y 	c #364143",
"z 	c #CCC9C6",
"A 	c #6A6B6B",
"B 	c #1B2121",
"C 	c #4E555A",
"D 	c #140C04",
"E 	c #171609",
"F 	c #0B0A03",
"G 	c #646666",
"H 	c #313147",
"I 	c #363C3C",
"J 	c #4F5147",
"K 	c #64594D",
"L 	c #684E3C",
"M 	c #534B4B",
"N 	c #69666B",
"O 	c #5A5654",
"P 	c #443E41",
"Q 	c #0D1519",
"R 	c #5C5B55",
"S 	c #B5A393",
"T 	c #725A46",
"U 	c #B6A38C",
"V 	c #3D4449",
"W 	c #6A6464",
"X 	c #625C5B",
"Y 	c #A69FA1",
"Z 	c #5C575A",
"` 	c #26180D",
" .	c #BBA79A",
"..	c #775435",
"+.	c #C3A387",
"@.	c #22140B",
"#.	c #565963",
"$.	c #4B4444",
"%.	c #716867",
"&.	c #A9A5A5",
"*.	c #0A0201",
"=.	c #1C1204",
"-.	c #BCA494",
";.	c #CAA483",
">.	c #4B4945",
",.	c #4B4E52",
"'.	c #433C35",
").	c #120201",
"!.	c #635A54",
"~.	c #ABA39A",
"{.	c #1B1414",
"].	c #130F11",
"^.	c #C4A48B",
"/.	c #210E00",
"(.	c #000009",
"_.	c #BDC0BF",
":.	c #B4A59C",
"<.	c #736157",
"[.	c #1C0C03",
"}.	c #221914",
"|.	c #CAC6CA",
"1.	c #28283A",
"2.	c #221B1C",
"3.	c #B3A8A3",
"4.	c #221513",
"5.	c #C9BEBA",
"6.	c #6A625C",
"7.	c #625552",
"8.	c #1B161A",
"9.	c #D3C6C5",
"0.	c #1A0F12",
"a.	c #5C5E62",
"b.	c #554E53",
"c.	c #655E63",
"d.	c #555659",
"e.	c #686971",
"f.	c #090A11",
"g.	c #1C1C21",
"h.	c #0D0E12",
"i.	c #3C3E41",
"                    . . + @ @ # $ % % & +             . .       ",
"* = = = = - - . . * % ; > , ' ) ! ! ! ' ' + ; ~ ~ * * * * * * * ",
"- { - - { { - . . + > ! + ) , ] ^ / ( _ > : , % ~ - - - * * * - ",
"- - - - - - - . < ) ) : ! + ! [ } | ^ 1 2 , : _ 3 - - - * * - - ",
"- - - - - - 4 . + ) / ! > + ! ! [ } 5 5 / ^ , ) ; - - - - - - - ",
"- - - - - - 4 + ! , 2 ! ) ) < : 1 2 2 ^ ] 2 , ) > 6 - - - - - - ",
"4 4 4 4 4 4 4 + ) 1 ^ ^ ! ! < ' > : ' 1 1 / ) ) , % - - - - 7 7 ",
". 8 8 8 8 8 ~ + , 1 9 [ , ' % % < % ! ) ' , ' , ) ; ~ ~ 8 8 . . ",
"0   . . . . . a ) 2 | 2 ! ! % : _ ! % a + ' ) ! ; + ~           ",
"b * = = = * = c ) 2 ] 1 , ! + ! ^ ! ! ! , ; ; % > d = = = = = . ",
"0 * - - - { { e , ^ ^ ( ) > ; ) 1 / / [ ) f ) ) , d - - - - =   ",
"0 g - - - - { d , / / : , % ' h % 5 ] } 5 f > ) ) c { - - - = 0 ",
". i - - { { { j k 1 / : , l k l m % 9 2 , ) > ! , d - - - - { 0 ",
"  i - { { - - a ) ) 2 ! % _ l n o p % 1 , f ) , > d 4 4 4 4 - 0 ",
"0 i 4 4 4 4 4 4 d ! < : % k q # m + / ^ ) > & _ d 4 4 4 4 4 4 0 ",
"8 ~ ~ ~ .   8 j m % r < % ) / l s + ! ' % % t < s ;   . ~ 8 8 u ",
".       8 8 .   d d < % p % # l s a + + v < < d w ~ 8 8 8       ",
"* * * * * * * x ) ! _ y < % z z s s v < % ) ^ 2 d e = = = = = = ",
"- - - - g d d , A 2 f B C / D $ E l F 2 < ) 1 G 2 d e - - H = = ",
"- g - - - x : 2 ( _ ! % I J E K L K $ / ! < _ M N O P c - { - - ",
"- - g - - d ) A 2 , Q ! ^ R $ S T U $ } ^ V l M W X ) d { - - - ",
"- - - g d Y d Z 2 , Q ! ^ X `  ...+.@.2 #.V ; $.M %.d &.d - - - ",
"- - g ; d &.Z *.d f d : : q =.-...;.=.>.V ,.d '.).D !.~.*.{.4 4 ",
"~ ~ ; v ].F Y X 2 d d ' ' >.=.-...^./.'._ , d d !.O ~.d {.z l . ",
"(.6 _.+ z @ d d d % % % % # # :.<. .[.$ $ @ }.$ *.F d @ z {.|.+ ",
"8 = % v % |.+ * 1.d 5 1 2 l z 2.3.4.5.$ 6.7.O d * = # |.+ s # . ",
"8 = * + s ; - - * d 6 % + + ; |.8.9.{.0.{.@ ].d * { { + s % -   ",
"~ = - - + - - - - d f : ^ a.1 8.|.d b.c.d.P ) d - - - - + - -   ",
"~ - - - - - g g { { d d.| G | N e N N e.N b.f.- - - - g g - -   ",
"~ 4 - - - - - - - - d {.; + ; w e g.g.h.w w e - 4 4 - - g - -   ",
"~ 4 4 4 i i i 4 4 4 4 x ) _ i.d d d ! : ,.e 4 4 4 4 4 4 4 4 4   ",
". .                   x / 1 _ d e d 5 [ ^ d             0 0 .   "};
