/* XPM */
static char * NinjaD3_xpm[] = {
"32 32 126 2",
"  	c #3A3A54",
". 	c #35354D",
"+ 	c #202036",
"@ 	c #000014",
"# 	c #151916",
"$ 	c #131414",
"% 	c #0E1312",
"& 	c #1D1D32",
"* 	c #00000E",
"= 	c #0C0C0C",
"- 	c #434444",
"; 	c #3C3D3D",
"> 	c #1A1B1B",
", 	c #4A4B4B",
"' 	c #535554",
") 	c #3D413E",
"! 	c #555956",
"~ 	c #464A4A",
"{ 	c #00000A",
"] 	c #1B1B2B",
"^ 	c #5A5B5B",
"/ 	c #5E6162",
"( 	c #444946",
"_ 	c #616563",
": 	c #3D4242",
"< 	c #434649",
"[ 	c #4E5352",
"} 	c #636464",
"| 	c #565A5A",
"1 	c #6A6B6B",
"2 	c #646666",
"3 	c #161625",
"4 	c #00000B",
"5 	c #5C5E62",
"6 	c #4E555A",
"7 	c #13120D",
"8 	c #00000D",
"9 	c #000010",
"0 	c #555659",
"a 	c #4B4E52",
"b 	c #3C3E41",
"c 	c #0D110E",
"d 	c #020101",
"e 	c #4D514E",
"f 	c #090509",
"g 	c #020409",
"h 	c #4B4945",
"i 	c #52524E",
"j 	c #57605C",
"k 	c #4B4444",
"l 	c #19192B",
"m 	c #040805",
"n 	c #43423E",
"o 	c #4B433D",
"p 	c #1B1914",
"q 	c #3C4846",
"r 	c #433D3D",
"s 	c #CCC9C6",
"t 	c #151522",
"u 	c #130D0C",
"v 	c #5C544D",
"w 	c #22140B",
"x 	c #1C1204",
"y 	c #1B130C",
"z 	c #D3D2D2",
"A 	c #DACCCD",
"B 	c #63615F",
"C 	c #64594D",
"D 	c #69564C",
"E 	c #DCCED3",
"F 	c #DBD3D4",
"G 	c #6A6464",
"H 	c #B29E92",
"I 	c #BCA494",
"J 	c #B5A393",
"K 	c #EACAD3",
"L 	c #1B1414",
"M 	c #140C04",
"N 	c #231304",
"O 	c #1C0C03",
"P 	c #E5CCD3",
"Q 	c #000007",
"R 	c #5A5654",
"S 	c #5C5B55",
"T 	c #443E41",
"U 	c #C4C6CA",
"V 	c #313147",
"W 	c #1C201D",
"X 	c #C6C8C6",
"Y 	c #BEC3C2",
"Z 	c #C3C4C4",
"` 	c #130F11",
" .	c #CBCBCB",
"..	c #66696A",
"+.	c #191928",
"@.	c #656865",
"#.	c #000009",
"$.	c #716867",
"%.	c #554A44",
"&.	c #B49D8B",
"*.	c #0A0201",
"=.	c #6B5442",
"-.	c #221B1C",
";.	c #2E2E43",
">.	c #BBA79A",
",.	c #6E5A46",
"'.	c #AB9D95",
").	c #CAC5C3",
"!.	c #625552",
"~.	c #685555",
"{.	c #CAC6CA",
"].	c #D5C7C8",
"^.	c #271819",
"/.	c #1A0E0C",
"(.	c #433C35",
"_.	c #CAC3BD",
":.	c #1B161A",
"<.	c #C2BEC2",
"[.	c #26180D",
"}.	c #BCA28C",
"|.	c #C3A387",
"1.	c #6D523B",
"2.	c #665444",
"3.	c #73543D",
"4.	c #BAA284",
"5.	c #AE9A88",
"  . . . . + + @ @     # # # # $ $ % $ $ & +   * *               ",
"+ & + + & & + @ @ = $ - - - - - ; $ - - > # + @ * + + +       + ",
"+ + + + + + + @ $ , - - ' ' ' ' - # ) ! ~ ; # * { + + +     + + ",
"+ + + + + + ] $ , - - ^ ' / ^ ' - ( $ ) _ ^ - # * + + + + + + + ",
"+ + + + + + ] $ : < [ ' ^ _ } ^ | - > ; _ 1 ( # * + + + + + + + ",
"] ] ] ] ] ] $ ( - | _ ^ _ / } ^ ' ; - # ( 2 ! - # + + + + + 3 3 ",
"@ 4 4 4 4 4 # ( - [ ^ 5 / | | 6 - ) - 7 ) ' 2 ' # * * * 4 4 @ @ ",
"8 9 @ @ @ @ > ( < - 0 | a < b : ( $ c ' % ) ' ^ $ * * 9 9 9 9 9 ",
"{   . . .   d $ > , : ~ < < $ % $ e ' | ! c - f g   . . . . . @ ",
"8   + + + & d ^ | $ $ $ # # h i ' ' c c j [ $ k > + + + + + . 9 ",
"8 l + + + + m ( - ^ ' ( - $ n o k p ; q # # r s k & & + + + . 8 ",
"@ t + + & & d % > : - p u v w x y r z z ) $ k A k + + + + + & 8 ",
"9 t + & & + d ' < # % B y C D C 7 n E F r = r z - ] ] ] ] ] + 8 ",
"8 t ] ] ] ] ] $ | : # G x H I J 7 n K K k 7 - F ; ] ] ] ] ] ] 8 ",
"4 * * * @ 9 4 d 6 ~ - L M N O x c n P K k > u - $ * 9 @ * 4 4 Q ",
"@ 9 9 9 4 4 @ 9 % ' - n p k R S i > r T L ~ ' = 8 * 4 4 4 9 9 9 ",
"              @ * d | n $ - ; ' ! ' $ $ ; R } d { . . . . . . . ",
"+ + + + l l + @ * $ U # U $ $ < ) ( $ - ! G d * 8   + + + V . . ",
"+ l + + + l + * * m d % $ W X c # f c $ d d $ 9 8   + + + & + + ",
"+ + l + + l + @ d ~ ^ ! ( $ $ $ Y # Z m $ # Z ` 9 + + + & + + + ",
"+ + + l + l l d , ! / [ ; # - - $ | $ $ d d #  .# + + + & + + + ",
"+ + l l + + + d ^ ..! < $ ( ' - : e ..$ ! ! m # Z # ] ] +.] ] ] ",
"* * * 4 9 9 9 d ! B ! 7 L o ' ..( ! @.# ..^ ^ $ > 4 #.#.* 4 * @ ",
"#.4 * * * * * d k ! $.%.&.*.d [ : : ! m ..i ! # 9 9 9 9 9 9 * * ",
"4 . .   . . .   d k %.D =.J -.# # # # % d d # ;.  . . . .     @ ",
"4 .     . + + + g h >.,.'.p s ).u !.~.R d + +     & & & & & + 9 ",
"* . + + & + + + g d *.H y {.$ *.].^././.g + + + + + + + + + + 9 ",
"* + + + + + l l d d (.y _.d {.L :.<./.r g + + + + + + l l + + 9 ",
"* ] + + + + + + d - ; $ {.d d Z ` /.[./.g + + + ] ] + + l + + 9 ",
"* ] ] ] t t t ] ] d g g $  .$ d x }.|.1.d ] ] ] ] ] ] ] ] ] ] 9 ",
"@ @ 9 9 9 9 9 9 9 9 9 9 9 $ Z d 2.3.4.5.d 9 9 9 9 9 9 9 8 8 @ 9 ",
"9 9 9 9 9 9 9 9 9 9 @ @ 8 8 8 8 8 9 9 9 9 9 9 9 9 9 9 @ @ 9 9 9 "};
