/* XPM */
static char * NinjaW3_xpm[] = {
"32 32 125 2",
"  	c #000010",
". 	c #000014",
"+ 	c #00000D",
"@ 	c #3A3A54",
"# 	c #35354D",
"$ 	c #202036",
"% 	c #141619",
"& 	c #0E1312",
"* 	c #131414",
"= 	c #151916",
"- 	c #1A1B1B",
"; 	c #00000E",
"> 	c #1D1D32",
", 	c #434444",
"' 	c #464A4A",
") 	c #3C3D3D",
"! 	c #444946",
"~ 	c #0C0C0C",
"{ 	c #0D110E",
"] 	c #3C3E41",
"^ 	c #565A5A",
"/ 	c #555956",
"( 	c #535554",
"_ 	c #4A4B4B",
": 	c #00000A",
"< 	c #1B1B2B",
"[ 	c #434649",
"} 	c #3D4242",
"| 	c #0D0E12",
"1 	c #66696A",
"2 	c #636464",
"3 	c #5A5B5B",
"4 	c #3D413E",
"5 	c #646666",
"6 	c #616563",
"7 	c #161625",
"8 	c #00000B",
"9 	c #5E6162",
"0 	c #443E41",
"a 	c #020101",
"b 	c #040805",
"c 	c #19192B",
"d 	c #363C3C",
"e 	c #151522",
"f 	c #C3C4C4",
"g 	c #090509",
"h 	c #C4C6CA",
"i 	c #D9D9D9",
"j 	c #020409",
"k 	c #4B4E52",
"l 	c #555659",
"m 	c #000007",
"n 	c #1B161A",
"o 	c #CBCBCB",
"p 	c #565963",
"q 	c #CCD2D6",
"r 	c #C6CACA",
"s 	c #1C1C21",
"t 	c #BEC3C2",
"u 	c #CCC9C6",
"v 	c #BAB9B9",
"w 	c #313147",
"x 	c #130D0C",
"y 	c #1C0C03",
"z 	c #1B130C",
"A 	c #1B1914",
"B 	c #15191A",
"C 	c #444A52",
"D 	c #4E5352",
"E 	c #5A5654",
"F 	c #26180D",
"G 	c #6B594B",
"H 	c #725A46",
"I 	c #684E3C",
"J 	c #4E555A",
"K 	c #393935",
"L 	c #6A6965",
"M 	c #4B4444",
"N 	c #343C43",
"O 	c #3D4449",
"P 	c #5C5B55",
"Q 	c #231304",
"R 	c #B69C87",
"S 	c #6D523B",
"T 	c #BCA28C",
"U 	c #1C1204",
"V 	c #364143",
"W 	c #0C1919",
"X 	c #6A625C",
"Y 	c #BAA284",
"Z 	c #704D2A",
"` 	c #C3A387",
" .	c #4D514E",
"..	c #0D1519",
"+.	c #13120D",
"@.	c #191928",
"#.	c #4B433D",
"$.	c #775435",
"%.	c #CAA483",
"&.	c #4B4945",
"*.	c #5D605E",
"=.	c #000009",
"-.	c #C89B78",
";.	c #2D1108",
">.	c #41483C",
",.	c #28283A",
"'.	c #635A54",
").	c #64554B",
"!.	c #64594D",
"~.	c #AE9A88",
"{.	c #735344",
"].	c #C19E8B",
"^.	c #210E00",
"/.	c #52524E",
"(.	c #CAC3BD",
"_.	c #22140B",
":.	c #B4A59C",
"<.	c #D2C4BC",
"[.	c #656865",
"}.	c #1B1414",
"|.	c #D5C7C8",
"1.	c #BEBDC2",
"2.	c #5D636B",
"3.	c #4A5657",
"4.	c #64656A",
"                    . . + + + + +                     . .       ",
"@ # # # # $ $ . . @ @ @ % & * = - = = * = $ @ ; ; @ @ @ @ @ @ @ ",
"$ > $ $ > > $ . . @ * % , ' , , , , , ) ! * ~ . ; $ $ $ @ @ @ $ ",
"$ $ $ $ $ $ $ . . { , , * ] ) ^ / ( / _ , ! ' * : $ $ $ @ @ $ $ ",
"$ $ $ $ $ $ < . % [ } ] , | , ( 1 2 3 / / _ ' 4 = $ $ $ $ $ $ $ ",
"$ $ $ $ $ $ < . - , ^ , } * [ ' 3 3 5 1 3 ( , ) * $ $ $ $ $ $ $ ",
"< < < < < < < * , , ( [ , , * [ / / / ^ 6 / , , , * $ $ $ $ 7 7 ",
". 8 8 8 8 8 ; * } ( 3 ( , , = , ) , _ ( 3 / ! , , = ; ; 8 8 . . ",
"+   . . . . . = , 3 9 3 [ [ * * * - , , ! , ! 0 ! - ;           ",
": @ # # # @ # ~ , 3 9 3 , , = ) ! , = * = , ! ! = = # # # # # . ",
"+ @ $ $ $ > > a , 3 9 3 [ [ * , ( ' ! , ! - * = , b $ $ $ $ #   ",
"+ c $ $ $ $ > a , 3 9 3 d [ * , / / 3 3 , ! ) ! ! b > $ $ $ # + ",
". e $ $ > > > a , / / } , * , , = 3 5 3 / , ' , ' a $ $ $ $ > + ",
"  e $ > > $ $ a ' 3 ( ! ) | , * f * 5 3 , ! ! ! ! b < < < < $ + ",
"+ e < < < < < g , ! 3 ! * ' * h i f * 3 , ) , ! ! a < < < < < + ",
"8 ; ; ; .   8 8 j 0 * [ % k l * f * 3 ^ ! [ * ' a ;   . ; 8 8 m ",
".       8 8 . - h n o % } [ p % q % } [ = & r - f % 8 8 8       ",
"@ @ @ @ @ @ @ . a a | = r % s | t & - % t | - a * # # # # # # # ",
"$ $ $ $ c c $ a ] [ [ [ % & f u v u t = = } [ [ a @ $ $ $ w # # ",
"$ c $ $ $ c a ! 5 l [ | ^ 3 x y y z A 3 = [ 1 , _ a $ $ $ > $ $ ",
"$ $ c $ $ a ' 5 ( , B C D E F G H I A D J B K L M a $ $ > $ $ $ ",
"$ $ $ c $ a 5 / / B N O 1 P Q R S T U 6 V W / L , * $ $ > $ $ $ ",
"$ $ c c $ a ! 3 ! W W ' 1 X Q Y Z ` U  .V ../ +.* d a < @.< < < ",
"; ; ; 8     a ! } a j , M #.U Y $.%.Q &._ b +.*.= / - - ; 8 ; . ",
"=.8 ; ; ; ; ; a b a P z U U Q R Z -.;.Q U a >.A / / = o =   ; ; ",
"8 # # @ # # # @ ,.a z '.).!.Q ~.{.].^.H G '.+./.6 a o ~ # @ @ . ",
"8 # @ @ # $ $ $ @ b ( = +.+.(._.:.F <.U A +.} a a h = > > > $   ",
"; # $ $ > $ $ $ $ > j ( [.A x u }.|.x - - j a $ & * $ $ $ $ $   ",
"; $ $ $ $ $ c c > > $ j j } ^ * 1.j l 3 j $ $ $ $ $ $ c c $ $   ",
"; < $ $ $ $ $ $ $ $ $ $ j J 2.3.% j j j a $ $ $ < < $ $ c $ $   ",
"; < < < e e e < < < < < < j 4.[ [ a < < < < < < < < < < < < <   ",
". .                       j [ [ [ j + +                 + + .   "};
