/* XPM */
static char * NinjaD2_xpm[] = {
"32 32 144 2",
"  	c #3A3A54",
". 	c #35354D",
"+ 	c #202036",
"@ 	c #000014",
"# 	c #1B2121",
"$ 	c #141619",
"% 	c #444946",
"& 	c #434444",
"* 	c #3C3E41",
"= 	c #434649",
"- 	c #131414",
"; 	c #151916",
"> 	c #00000E",
", 	c #1D1D32",
"' 	c #0C0C0C",
") 	c #464A4A",
"! 	c #5C5E62",
"~ 	c #5A5B5B",
"{ 	c #535554",
"] 	c #1A1B1B",
"^ 	c #232323",
"/ 	c #646666",
"( 	c #4A5657",
"_ 	c #3C3D3D",
": 	c #3D4242",
"< 	c #66696A",
"[ 	c #4B4E52",
"} 	c #00000A",
"| 	c #1B1B2B",
"1 	c #555956",
"2 	c #6A6B6B",
"3 	c #6D7170",
"4 	c #555659",
"5 	c #5E6162",
"6 	c #0D0E12",
"7 	c #69666B",
"8 	c #64656A",
"9 	c #565A5A",
"0 	c #616563",
"a 	c #1B1414",
"b 	c #161625",
"c 	c #00000B",
"d 	c #0E1312",
"e 	c #00000D",
"f 	c #000010",
"g 	c #020101",
"h 	c #4B454A",
"i 	c #130D0C",
"j 	c #0D110E",
"k 	c #040805",
"l 	c #15191A",
"m 	c #43423E",
"n 	c #52524E",
"o 	c #433D3D",
"p 	c #1B1914",
"q 	c #4B4444",
"r 	c #3D483F",
"s 	c #091309",
"t 	c #3D413E",
"u 	c #CCD1CE",
"v 	c #19192B",
"w 	c #221914",
"x 	c #695B54",
"y 	c #120201",
"z 	c #1C0C03",
"A 	c #13120D",
"B 	c #393935",
"C 	c #D9D9D9",
"D 	c #CBCBCB",
"E 	c #4A4B4B",
"F 	c #151522",
"G 	c #444A52",
"H 	c #130F11",
"I 	c #6A625C",
"J 	c #210E00",
"K 	c #6B5442",
"L 	c #73543D",
"M 	c #1C1204",
"N 	c #4B4945",
"O 	c #DACCCD",
"P 	c #D5C7C8",
"Q 	c #DCCED3",
"R 	c #4E555A",
"S 	c #26180D",
"T 	c #AE9A88",
"U 	c #BCA28C",
"V 	c #B49D8B",
"W 	c #1B130C",
"X 	c #534B4B",
"Y 	c #EACAD3",
"Z 	c #E5CCD3",
"` 	c #4A3E41",
" .	c #E4D5D8",
"..	c #1B161A",
"+.	c #090509",
"@.	c #3D4449",
"#.	c #1C1C21",
"$.	c #5A5654",
"%.	c #0A0201",
"&.	c #000007",
"*.	c #0D1519",
"=.	c #6A6464",
"-.	c #C3C4C4",
";.	c #C4C6CA",
">.	c #443E41",
",.	c #313147",
"'.	c #050B09",
").	c #C2BEC2",
"!.	c #020409",
"~.	c #4E5352",
"{.	c #191928",
"].	c #000009",
"^.	c #63615F",
"/.	c #1A0F12",
"(.	c #B4A59C",
"_.	c #000008",
":.	c #28283A",
"<.	c #4B433D",
"[.	c #433C35",
"}.	c #625C5B",
"|.	c #685555",
"1.	c #725A4C",
"2.	c #B29E92",
"3.	c #2E2E43",
"4.	c #1A0E0C",
"5.	c #69564C",
"6.	c #BBA79A",
"7.	c #D3CDCD",
"8.	c #625552",
"9.	c #64594D",
"0.	c #64554B",
"a.	c #AB9D95",
"b.	c #D2C4BC",
"c.	c #22140B",
"d.	c #CAC6CA",
"e.	c #CAC5C3",
"f.	c #6B594B",
"g.	c #665444",
"h.	c #6A6457",
"i.	c #674F45",
"j.	c #C4A48B",
"k.	c #B6A38C",
"l.	c #684E3C",
"m.	c #73654E",
"  . . . . + + @ @ # $ % & * * = = - = = - ;   > >               ",
"+ , + + , , + @ ' & ) & ! ~ { = * - & ~ * & ] @ > + + +       + ",
"+ + + + + + + ^ % & & { ! / ! ( & _ $ : < [ & ' } + + +     + + ",
"+ + + + + + | $ & & 1 ~ 2 3 / 4 4 = - & 2 5 & ; > + + + + + + + ",
"+ + + + + + 6 * % { 4 / 7 7 8 9 9 * & - & 0 1 _ - + + + + + + + ",
"| | | | | | a & & { 4 / ! 4 9 { & & : ; & { < 9 - + + + + + b b ",
"@ c c c c c ] & & & 1 ~ 4 = = & ) - ] ~ d = ~ 9 - > > > c c @ @ ",
"e f @ @ @ @ g 6 $ = ) = & h i - j ~ ~ ~ ~ - & d ' > > f f f f f ",
"}   . . .   k { ! l - a - i m n ~ 1 j ; 1 { j & ;   . . . . . @ ",
"e   + + + , g ) * 4 4 h o p q q & j r : - s t u & + + + + + . f ",
"e v + + + + g - 6 & & p w x y z A B u C & ; & D E , , + + + . e ",
"@ F + + , , g 4 G $ H I J K L K M N O P % ; q Q B + + + + + , e ",
"f F + , , + + $ R = a I S T U V W X Y Z ) - `  .q | | | | | + e ",
"e F | | | | | g [ * = H ] - i p i q O Z & - a X ..| | | | | | e ",
"c > > > @ f c c +.~ * @.#.G R 4 9 A q q ; & $.%.> > f @ > c c &.",
"@ f f f c c @ f c g - & *.* * ! ~ { - H & 1 =.g e > c c c f f f ",
"              @ > - -.- ;.- ; & _ _ p >.1 < g f } . . . . . . . ",
"+ + + + v v + @ >   g ; $ ; ;.; a ' ' ] g k . > e   + + + ,.. . ",
"+ v + + + v + > > '.& : - & - ] D - -.g ).; + f e   + + + , + + ",
"+ + v + + v + @ @ k & < & - _ ~ ] ~ ] 0 g + + e f + + + , + + + ",
"+ + + v + v v > g % 0 { = ; & = ) 4 ~ 0 g | | e f + + + , + + + ",
"+ + v v + + + @ !.{ 5 ~.$ - - g g & 4 0 g | | e f | | | {.| | | ",
"> > > c f f f c g { 0 ~ ~ ; ~ 9 ~ i g g g ].f ].].c ].].> c > @ ",
"].c > > > > > > !.E n ^.=.- 8 8 ! /.(.%.%._.c e f f f f f f > > ",
"c . .   . . .   :.g <.[.$.}.- 7 /.|.1.2.p     3.  . . . .     @ ",
"c .     . + + +   %.g %.M 4.W 4.(.5.6.z 7.6 +     , , , , , + f ",
"> . + + , + + + + g 8.|.9.x 0.0.g a.z b.- ;.$ + + + + + + + + f ",
"> + + + + + v v , , k g 4.4.c.c.W W d.p e.a + + + + + v v + + f ",
"> | + + + + + + + + + k m c.f.g.h.g ; -.p + + + | | + + v + + f ",
"> | | | F F F | | | | | %.i.j.U k.%.| | | | | | | | | | | | | f ",
"@ @ f f f f f f f f f f g 5.K l.m.g e e f f f f f f f f e e @ f ",
"f f f f f f f f f f @ @ - i i p W ; ; l - f f f f f f @ @ f f f "};
