/* XPM */
static char * NinjaS4_xpm[] = {
"32 32 155 2",
"  	c #000010",
". 	c #000014",
"+ 	c #00000D",
"@ 	c #3A3A54",
"# 	c #35354D",
"$ 	c #202036",
"% 	c #765747",
"& 	c #1C0C03",
"* 	c #231304",
"= 	c #735344",
"- 	c #725A4C",
"; 	c #6B5442",
"> 	c #64554B",
", 	c #26180D",
"' 	c #69564C",
") 	c #00000E",
"! 	c #1D1D32",
"~ 	c #684E3C",
"{ 	c #2D1108",
"] 	c #665444",
"^ 	c #22140B",
"/ 	c #64594D",
"( 	c #BCA28C",
"_ 	c #B69C87",
": 	c #674F45",
"< 	c #1B1414",
"[ 	c #140C04",
"} 	c #BBA79A",
"| 	c #B4A59C",
"1 	c #221914",
"2 	c #00000A",
"3 	c #1B1B2B",
"4 	c #725A46",
"5 	c #6D523B",
"6 	c #625552",
"7 	c #1B1914",
"8 	c #1B1B2E",
"9 	c #13120D",
"0 	c #695B54",
"a 	c #1B130C",
"b 	c #534535",
"c 	c #1A0E0C",
"d 	c #0C0C0C",
"e 	c #141619",
"f 	c #131414",
"g 	c #1A1B1B",
"h 	c #4B433D",
"i 	c #091309",
"j 	c #171609",
"k 	c #43423E",
"l 	c #434444",
"m 	c #434649",
"n 	c #3D4242",
"o 	c #0E1312",
"p 	c #4C3F36",
"q 	c #151916",
"r 	c #161625",
"s 	c #00000B",
"t 	c #41483C",
"u 	c #444946",
"v 	c #433D3D",
"w 	c #130D0C",
"x 	c #4D3A31",
"y 	c #3D413E",
"z 	c #635A54",
"A 	c #1C1204",
"B 	c #4B4444",
"C 	c #685555",
"D 	c #0D110E",
"E 	c #5C5B55",
"F 	c #535554",
"G 	c #19192B",
"H 	c #5A5654",
"I 	c #120201",
"J 	c #0D1519",
"K 	c #090A11",
"L 	c #5A5B5B",
"M 	c #151522",
"N 	c #3D483F",
"O 	c #3C3D3D",
"P 	c #464A4A",
"Q 	c #565A5A",
"R 	c #4E5352",
"S 	c #1C201D",
"T 	c #363C3C",
"U 	c #555659",
"V 	c #5E6162",
"W 	c #66696A",
"X 	c #151A21",
"Y 	c #3D4449",
"Z 	c #565963",
"` 	c #5D636B",
" .	c #0D0E12",
"..	c #6A6B6B",
"+.	c #616563",
"@.	c #000007",
"#.	c #434552",
"$.	c #686971",
"%.	c #64656A",
"&.	c #4E555A",
"*.	c #6D7170",
"=.	c #4A5657",
"-.	c #3C4846",
";.	c #15191A",
">.	c #69666B",
",.	c #364143",
"'.	c #3C3E41",
").	c #5C5E62",
"!.	c #0C1919",
"~.	c #232323",
"{.	c #313147",
"].	c #1C1C21",
"^.	c #443E41",
"/.	c #4A4B4B",
"(.	c #5C575A",
"_.	c #63615F",
":.	c #555956",
"<.	c #020101",
"[.	c #4B4945",
"}.	c #5C544D",
"|.	c #4A3E41",
"1.	c #221B1C",
"2.	c #ABA39A",
"3.	c #D5C7C8",
"4.	c #D3C6C5",
"5.	c #1A0F12",
"6.	c #221513",
"7.	c #D9D9D9",
"8.	c #CCD1CE",
"9.	c #A99D9A",
"0.	c #000009",
"a.	c #050B09",
"b.	c #E4D5D8",
"c.	c #DCCED3",
"d.	c #D3D2D2",
"e.	c #090509",
"f.	c #DBD3D4",
"g.	c #6A6464",
"h.	c #2D282A",
"i.	c #040805",
"j.	c #0B0A03",
"k.	c #130F11",
"l.	c #999596",
"m.	c #534B4B",
"n.	c #646666",
"o.	c #4B454A",
"p.	c #BEC3C2",
"q.	c #636464",
"r.	c #C2BEC2",
"s.	c #C6CACA",
"t.	c #CBCBCB",
"u.	c #1B161A",
"v.	c #C3C4C4",
"w.	c #CCC9C6",
"x.	c #D3CDCD",
"                    . . + + + + +                     . .       ",
"@ # # # # $ $ . . % & * = - @ # @ # # ; > * , ' ) @ @ @ @ @ @ @ ",
"$ ! $ $ ! ! $ . . - ~ { { ' $ $ ! ! $ ] * ^ > / ) $ $ $ @ @ @ $ ",
"$ $ $ $ $ $ $ . . , ( _ : ' < ! ! $ [ ' ' } | 1 2 $ $ $ @ @ $ $ ",
"$ $ $ $ $ $ 3 . . ^ 4 5 ' 6 7 ! ! 8 9 / > > 0 1 ) $ $ $ $ $ $ $ ",
"$ $ $ $ $ $ 3 . . a b b & c d e 3 f g a , b h < ) $ $ $ $ $ $ $ ",
"3 3 3 3 3 3 3 . 9 i j j k l m n o m l k p ^ a 9 q $ $ $ $ $ r r ",
". s s s s s ) ) f t t u k v < 7 q f q w ^ x h k q ) ) ) s s . . ",
"+   . . . . . q l u y < 1 & ^ 0 6 z z z * A [ 7 B q )           ",
"2 @ # # # @ # f 9 9 < a C z 0 A a a a A / 0 / a f f # # # # # . ",
"+ @ $ $ $ ! D 7 0 0 > C < q g u k k k k 7 a [ E F f q $ $ $ #   ",
"+ G $ $ $ $ 9 H I ^ [ < q e J K o 9 q 9 y y t 7 q L q $ $ $ # + ",
". M $ $ ! f g q k k B 7 q l m l n N l y q f N y u g d $ $ $ ! + ",
"  M $ ! ! f l l O f f P O q l F Q F R m n n S o l l g 3 3 3 $ + ",
"+ M 3 3 3 f q f e T m U n q T U V V W W L m n l q m g 3 3 3 3 + ",
"s ) ) ) . f y n X Y Z ` U l  .n ..W W +.V Q Y n q u g . ) s s @.",
".       s q l e #.Z ` $.%.m o n &.V *.V %.V =.-.l o o s s       ",
"@ @ @ @ @ q l e #.Z %.Z m P ;.m Y Y V V >.U n ,.l f g # # # # # ",
"$ $ $ $ G q l e n  .e f  .g g n o X '.=.).n n !.q o ~.$ $ {.# # ",
"$ G $ $ $ q l < ].l u ^.^.f f o V F e f q f o m /.o D $ $ ! $ $ ",
"$ $ G $ d g O g f B H B f l (.l f _.+.:.L u u '.l q q 9 ! $ $ $ ",
"$ $ $ G d l l <.7 9 9 w < < ^.f [.9 f 9 d d w f q <.l k q $ $ $ ",
"$ $ G G q u n <.}.}.0 7 h |.1.6 }.z g [.[.f z H H D y l q 3 3 3 ",
") ) ) s f u q v <.2.[ h 3.4.B w 5.6.k 7.8.[.1.9.~.u d O f s ) . ",
"0.s ) ) f l w H <.f a.l b.c.l q H < B d.8.B < < <.L f l f   ) ) ",
"s # # @ f P ~.<.e.n o l b.b.l o v 7 B f.d.[.1.g.<.<.O l f @ @ . ",
"s # @ @ < v h.< i.o ;.P b.f.n a.+.j.O d.f.l k.F <.d O O f ! $   ",
") # $ $ 7 l l.+.i.i.Q q B m.o L n.:.f /.o.w v <.d u y q f $ $   ",
") $ $ $ < l 7 g l p.q L w < F L q.n.H 1.w H q r./.f l f S $ $   ",
") 3 $ $ $ f 7 u s.f t.1.u.^.u L :.L B l f < t.u.v.l q f G $ $   ",
") 3 3 3 M k.k.w.f t.q v.l 7 f g q g w 7 B x.q t.g v.y q 3 3 3   ",
". .         < f o o < < < q f f q f 7 w u.f g w g f q   + + .   "};
