/* XPM */
static char * NinjaS2_xpm[] = {
"32 32 148 2",
"  	c #000010",
". 	c #000014",
"+ 	c #15191A",
"@ 	c #0E1312",
"# 	c #1C1C21",
"$ 	c #1A1B1B",
"% 	c #141619",
"& 	c #131414",
"* 	c #3A3A54",
"= 	c #35354D",
"- 	c #202036",
"; 	c #4A4B4B",
"> 	c #434649",
", 	c #3D4242",
"' 	c #434444",
") 	c #00000E",
"! 	c #1D1D32",
"~ 	c #3C3E41",
"{ 	c #555659",
"] 	c #5A5B5B",
"^ 	c #535554",
"/ 	c #3C3D3D",
"( 	c #151916",
"_ 	c #232323",
": 	c #363C3C",
"< 	c #4E5352",
"[ 	c #616563",
"} 	c #646666",
"| 	c #66696A",
"1 	c #5E6162",
"2 	c #5C5E62",
"3 	c #464A4A",
"4 	c #00000A",
"5 	c #1B1B2B",
"6 	c #565A5A",
"7 	c #6A6B6B",
"8 	c #444946",
"9 	c #0D0E12",
"0 	c #636464",
"a 	c #161625",
"b 	c #00000B",
"c 	c #555956",
"d 	c #00000D",
"e 	c #3D483F",
"f 	c #091309",
"g 	c #0D110E",
"h 	c #64656A",
"i 	c #172119",
"j 	c #364143",
"k 	c #0C0C0C",
"l 	c #4D514E",
"m 	c #69666B",
"n 	c #3C4846",
"o 	c #020101",
"p 	c #1B1914",
"q 	c #1B1414",
"r 	c #13120D",
"s 	c #4B4444",
"t 	c #1A0E0C",
"u 	c #130D0C",
"v 	c #19192B",
"w 	c #685555",
"x 	c #5A5654",
"y 	c #625C5B",
"z 	c #625552",
"A 	c #635A54",
"B 	c #1B161A",
"C 	c #151522",
"D 	c #ABA39A",
"E 	c #D9D9D9",
"F 	c #C4C6CA",
"G 	c #D3D2D2",
"H 	c #CCD2D6",
"I 	c #B3A8A3",
"J 	c #D3CDD1",
"K 	c #443E41",
"L 	c #DBD3D4",
"M 	c #0A0201",
"N 	c #020409",
"O 	c #E5CCD3",
"P 	c #503D42",
"Q 	c #130F11",
"R 	c #4B4945",
"S 	c #EACAD3",
"T 	c #4A3E3D",
"U 	c #E4D5D8",
"V 	c #4B454A",
"W 	c #000007",
"X 	c #CBCBCB",
"Y 	c #393935",
"Z 	c #4A3E41",
"` 	c #090509",
" .	c #CCCCD1",
"..	c #6D7170",
"+.	c #C6C8C6",
"@.	c #444A52",
"#.	c #343C43",
"$.	c #313147",
"%.	c #BEC3C2",
"&.	c #C3C4C4",
"*.	c #5D636B",
"=.	c #3D4449",
"-.	c #3D413E",
";.	c #040805",
">.	c #5D605E",
",.	c #CAC3BD",
"'.	c #CAC6CA",
").	c #A9A5A5",
"!.	c #AB9D95",
"~.	c #22140B",
"{.	c #D5C7C8",
"].	c #BAB9B9",
"^.	c #6A6457",
"/.	c #B4A59C",
"(.	c #000009",
"_.	c #999596",
":.	c #1B130C",
"<.	c #1C1204",
"[.	c #43423E",
"}.	c #63615F",
"|.	c #6A625C",
"1.	c #221B1C",
"2.	c #5C575A",
"3.	c #695B54",
"4.	c #5B564A",
"5.	c #64554B",
"6.	c #715C57",
"7.	c #665444",
"8.	c #6B594B",
"9.	c #5C5B55",
"0.	c #6A6464",
"a.	c #120201",
"b.	c #554E53",
"c.	c #433C35",
"d.	c #4B433D",
"e.	c #4B4E52",
"f.	c #0B0A03",
"g.	c #26180D",
"h.	c #140C04",
"i.	c #B69D7C",
"j.	c #BFA17B",
"k.	c #050B09",
"l.	c #C3A387",
"m.	c #C4A48B",
"n.	c #6D523B",
"o.	c #704D2A",
"p.	c #73543D",
"q.	c #684E3C",
"                    . . + @ # $ % & %                 . .       ",
"* = = = = - - . . * $ & ; > > , ' ' > % $ - * ) ) * * * * * * * ",
"- ! - - ! ! - . $ & ' ~ + ' { { ] ^ ' / ' ( & . ) - - - * * * - ",
"- - - - - - - _ ' : < > $ ' ^ [ } | 1 2 ' ' 3 ( 4 - - - * * - - ",
"- - - - - - 5 ( ' 6 [ { , % ~ 1 } } | 7 ^ ' 8 & ) - - - - - - - ",
"- - - - - - 9 ~ ] 2 [ | > & : ] 1 0 0 1 0 6 > ' ( - - - - - - - ",
"5 5 5 5 5 5 & ' 6 [ ] 3 > % > 3 ~ { } } 6 > ' > ( - - - - - a a ",
". b b b b b ( , 9 @ & @ & & ~ @ $ ~ c ^ 8 ' @ & ( ) ) ) b b . . ",
"d   . . . . & ( , : 8 e f g ( h { & & i ( f j , k ) )           ",
"4 * = = = * & & ' ] 8 i e l ' & m } ] c e n ' ' & * = = = = = . ",
"d * - - - ! o p q r ( & $ ' p s t u & @ % q q q k - - - - - =   ",
"d v - - - - o ] w x q 3 ' & y z A & , > B y z z & ! ! - - - = d ",
". C - - ! ( ; o D q ' E F ' q r r 8 G H > B I t ' & - - - - ! d ",
"  C - ! ! 9 { o g p ' J J K u ^ & 8 L L > k p M x r 5 5 5 5 - d ",
"d C 5 5 5 5 N o 3 p s O O P Q 8 & R S S s ( y o o 5 5 5 5 5 5 d ",
"b ) ) ) .   @ N % & T U U T p } % V S S R ( c o Q )   . ) b b W ",
".       b & X N N ] & Y R r ^ | ^ B Z T k ' o `  .% b b b       ",
"* * * * * q & % X ( l ( ( 6 ..| 7 ] & ( ] & +.& % % = = = = = = ",
"- - - - & ' ~ ] g ' ( ( ' , < < ^ 8 / ( & ' @ { @.#.% - - $.= = ",
"- v - k q ' < ] ^ > g %.@ @ @ g k g & &.@ > c ] *.=.> $ - ! - - ",
"- - v k 8 Q ] / ; o -.& $ F & F k F $ & -.;.3 3 ] % { % ! - - - ",
"- - & : p X $ & 8 o / >.6 @ 6 ( c & ^ ] ' ;.8 r & ,.q ' & - - - ",
"- - ( & '.u ).$ o o , l ] ^ ' $ 3 ^ ] ^ ' o ;.r !.~.{.B % 5 5 5 ",
") ) o X p ].] ` ' N Y 8 ' ' ^ & ] -.8 -.s o s q ^./.p '.% b ) . ",
"(.b ) ;._.y k { ~ B :.M > ~ ^ k 1 , , & <.<.[.}.p |.).o     ) ) ",
"b = = * o 1.2.^ N & 3.3.q % B u r & g ] 4.5.o ^ ] q o = = * * . ",
"b = * * = o o o M t M M y y w 6.7.8.9.o o o o o o o ! ! ! ! -   ",
") = - - ! - - - M q T 0.M M a.o a.M M 0 ] : ( - - - - - - - -   ",
") - - - - - v v ! o ; ; b.K ; N c.d.^ > e.N - - - - - v v - -   ",
") 5 - - - - - - - o R f.g.h.' N d.g.<.:., N - - 5 5 - - v - -   ",
") 5 5 5 C C C 5 5 5 M i.j.i.o k.M l.m.m.M 5 5 5 5 5 5 5 5 5 5   ",
". .                 M n.i.o.o o M p.l.q.a.              d d .   "};
