/* XPM */
static char * NinjaA2_xpm[] = {
"32 32 139 2",
"  	c #000010",
". 	c #000014",
"+ 	c #13120D",
"@ 	c #1C1204",
"# 	c #1B130C",
"$ 	c #0D110E",
"% 	c #151916",
"& 	c #1B1914",
"* 	c #140C04",
"= 	c #3A3A54",
"- 	c #35354D",
"; 	c #202036",
"> 	c #1A1B1B",
", 	c #0E1312",
"' 	c #4A4B4B",
") 	c #434444",
"! 	c #3D4242",
"~ 	c #3C3D3D",
"{ 	c #444946",
"] 	c #131414",
"^ 	c #00000E",
"/ 	c #1D1D32",
"( 	c #535554",
"_ 	c #1C201D",
": 	c #5A5B5B",
"< 	c #4D514E",
"[ 	c #646666",
"} 	c #464A4A",
"| 	c #616563",
"1 	c #5D605E",
"2 	c #4E5352",
"3 	c #434649",
"4 	c #0C0C0C",
"5 	c #00000A",
"6 	c #1B1B2B",
"7 	c #66696A",
"8 	c #6A6B6B",
"9 	c #636464",
"0 	c #555956",
"a 	c #565A5A",
"b 	c #3D413E",
"c 	c #161625",
"d 	c #00000B",
"e 	c #43423E",
"f 	c #00000D",
"g 	c #020409",
"h 	c #4B4444",
"i 	c #41483C",
"j 	c #020101",
"k 	c #172119",
"l 	c #CBCBCB",
"m 	c #4B433D",
"n 	c #221914",
"o 	c #363C3C",
"p 	c #3D4449",
"q 	c #565963",
"r 	c #4E555A",
"s 	c #19192B",
"t 	c #D3D2D2",
"u 	c #D3CDD1",
"v 	c #4B454A",
"w 	c #1B161A",
"x 	c #1C0C03",
"y 	c #69564C",
"z 	c #15191A",
"A 	c #364143",
"B 	c #151522",
"C 	c #DBD3D4",
"D 	c #433D3D",
"E 	c #695B54",
"F 	c #6D523B",
"G 	c #765747",
"H 	c #231304",
"I 	c #6A6965",
"J 	c #5A5654",
"K 	c #D3CDCD",
"L 	c #443E41",
"M 	c #DACCCD",
"N 	c #221513",
"O 	c #A99D9A",
"P 	c #BCA494",
"Q 	c #BCA28C",
"R 	c #22140B",
"S 	c #716867",
"T 	c #141619",
"U 	c #130D0C",
"V 	c #DCCED3",
"W 	c #4A3E41",
"X 	c #1B1414",
"Y 	c #040805",
"Z 	c #625C5B",
"` 	c #554E53",
" .	c #5C575A",
"..	c #555659",
"+.	c #52524E",
"@.	c #000007",
"#.	c #655E63",
"$.	c #6A6464",
"%.	c #C6CACA",
"&.	c #C4C6CA",
"*.	c #BEC3C2",
"=.	c #0D1519",
"-.	c #313147",
";.	c #C3C4C4",
">.	c #1B2121",
",.	c #5C5E62",
"'.	c #191928",
").	c #000009",
"!.	c #0A0201",
"~.	c #B5A393",
"{.	c #5D636B",
"].	c #4B4945",
"^.	c #28283A",
"/.	c #684E3C",
"(.	c #6B5442",
"_.	c #69666B",
":.	c #393935",
"<.	c #2E2E43",
"[.	c #26180D",
"}.	c #B69C87",
"|.	c #260C05",
"1.	c #0B0A03",
"2.	c #D3C6C5",
"3.	c #210E00",
"4.	c #B49D8B",
"5.	c #120201",
"6.	c #725A4C",
"7.	c #5C544D",
"8.	c #5C5B55",
"9.	c #C6C8C6",
"0.	c #CCC9C6",
"a.	c #736157",
"b.	c #725A46",
"c.	c #271819",
"d.	c #BB9C83",
"e.	c #C89B78",
"f.	c #C39C83",
"g.	c #73543D",
"h.	c #775435",
"                    . + @ # $ % & # @ *               . .       ",
"= - - - - ; ; . . > , ' ) , ! ~ ! ) { ) ] ] = ^ ^ = = = = = = = ",
"; / ; ; / / ; . % ) ) ( { _ ) ) ( : ( ) ) ) % . ^ ; ; ; = = = ; ",
"; ; ; ; ; ; ; _ ) < [ ) ] } ) : ( | 1 2 3 { { 4 5 ; ; ; = = ; ; ",
"; ; ; ; ; ; 6 ] ) 7 : ! ] ) 2 ( 8 9 [ : ( ) ) > ^ ; ; ; ; ; ; ; ",
"; ; ; ; ; ; ] ) 0 1 ) % { ) : ( [ | 7 1 [ a 3 ) ] ; ; ; ; ; ; ; ",
"6 6 6 6 6 6 ] : 1 ( ~ , b b 3 2 : : [ 9 ( 0 { ) ] ; ; ; ; ; c c ",
". d d d d d % : : ! ] 0 , ] ) ) b ) ( 0 0 e ) b ] ^ ^ ^ d d . . ",
"f   . . . . g > ! $ 0 1 : a % $ ] e h { b i ] > j ^ ^           ",
"5 = - - - = % ) > a 0 % $ 0 : 0 e + + ] $ k < 0 j = - - - - - . ",
"f = ; ; ; / { l { ] % { ) 4 ) e m n o p q r ) { j ; ; ; ; ; -   ",
"f s ; ; ; ; ) t ) % { l u v w + x y ] z A p % 4 j / / ; ; ; - f ",
". B ; ; / / ) C h % { l u D & E F G H I , z ) J j ; ; ; ; ; / f ",
"  B ; / / ; ) K L & ) M C L N O P Q R S T 3 J > ; 6 6 6 6 6 ; f ",
"f B 6 6 6 6 & ) U ] v V C W X X # # 4 ] { } ( Y 6 6 6 6 6 6 6 f ",
"d ^ ^ ^ .   d j Z ) & h L U `  ...! % { b +.] 5 ^ ^   . ^ d d @.",
".       d d . j : : ) ] & 0 #.: 3 p T 3 4 j   f f ^ d d d       ",
"= = = = = = = . j $. .) ] ) ) ) , z %.T &.> =   5 - - - - - - - ",
"; ; ; ; s s ; . ^ Y j 4 ] ] T > *., =., g / - ^ f = ; ; ; -.- - ",
"; s ; ; ; s ; ^ ^ % ;.j l % l % T } >.p ) g ;   f = ; ; ; / ; ; ",
"; ; s ; ; s ; . . ; j | ] 0 T 2 ! z 3 ,.3 j ; f   ; ; ; / ; ; ; ",
"; ; ; s ; s s ^ ^ 6 j 8 ( ' ) 3 ! , } a 8 ) j f   ; ; ; / ; ; ; ",
"; ; s s ; ; ; . ^ 6 Y 9 0 ) g j , =.T a 9 : g f   6 6 6 '.6 6 6 ",
"^ ^ ^ d       d d ^ j j j X ( : r T a a 7 ( j ).).d ).).^ d ^ . ",
").d ^ ^ ^ ^ ^ ^ d   j !.~.@ a {.{.=.7 | 0 ].Y f             ^ ^ ",
"d - - = - - - = ^.= U ~./.(.# _.T ..( b :.j = <.= - - - - = = . ",
"d - = = - ; ; ; = , K [.}.G P H |.R @ j j 1.; = = / / / / / ;   ",
"^ - ; ; / ; ; ; z ;.X 2.3.4.5.(.6.y E 7.8.j ; ; ; ; ; ; ; ; ;   ",
"^ ; ; ; ; ; s s / > 9.> 0.# H H N N + j Y ; ; ; ; ; ; s s ; ;   ",
"^ 6 ; ; ; ; ; ; ; ; , &.% !.a.b.y c.h j ; ; ; ; 6 6 ; ; s ; ;   ",
"^ 6 6 6 B B B 6 6 6 6 6 6 !.d.e.f.G j 6 6 6 6 6 6 6 6 6 6 6 6   ",
". .                       1.g.h.G /.!.f                 f f .   "};
