/* XPM */
static char * NinjaS3_xpm[] = {
"32 32 138 2",
"  	c #000010",
". 	c #000014",
"+ 	c #00000D",
"@ 	c #3A3A54",
"# 	c #35354D",
"$ 	c #202036",
"% 	c #131414",
"& 	c #151916",
"* 	c #0E1312",
"= 	c #1D1D32",
"- 	c #00000E",
"; 	c #434444",
"> 	c #3D4242",
", 	c #444946",
"' 	c #3D413E",
") 	c #1A1B1B",
"! 	c #3C3D3D",
"~ 	c #43423E",
"{ 	c #5A5B5B",
"] 	c #555956",
"^ 	c #464A4A",
"/ 	c #00000A",
"( 	c #1B1B2B",
"_ 	c #535554",
": 	c #646666",
"< 	c #616563",
"[ 	c #5E6162",
"} 	c #0C0C0C",
"| 	c #4D514E",
"1 	c #66696A",
"2 	c #434649",
"3 	c #636464",
"4 	c #555659",
"5 	c #4A4B4B",
"6 	c #161625",
"7 	c #00000B",
"8 	c #656865",
"9 	c #565A5A",
"0 	c #13120D",
"a 	c #41483C",
"b 	c #4B4444",
"c 	c #393935",
"d 	c #4F5147",
"e 	c #0B0A03",
"f 	c #1B1914",
"g 	c #0D110E",
"h 	c #4E555A",
"i 	c #0D1519",
"j 	c #3C4846",
"k 	c #19192B",
"l 	c #020101",
"m 	c #141619",
"n 	c #090509",
"o 	c #151522",
"p 	c #040805",
"q 	c #534B4B",
"r 	c #5C544D",
"s 	c #635A54",
"t 	c #130F11",
"u 	c #3C3E41",
"v 	c #64554B",
"w 	c #64594D",
"x 	c #1B1414",
"y 	c #625C5B",
"z 	c #685555",
"A 	c #715C57",
"B 	c #130D0C",
"C 	c #B4A59C",
"D 	c #1C1204",
"E 	c #D3D2D2",
"F 	c #D3CDD1",
"G 	c #4B4945",
"H 	c #1B130C",
"I 	c #433C35",
"J 	c #D3CDCD",
"K 	c #D4D2CD",
"L 	c #B59B9F",
"M 	c #221513",
"N 	c #52524E",
"O 	c #433D3D",
"P 	c #DBD3D4",
"Q 	c #D5C7C8",
"R 	c #E4D5D8",
"S 	c #DACCCD",
"T 	c #4A3E41",
"U 	c #1B161A",
"V 	c #443E41",
"W 	c #000007",
"X 	c #CBCBCB",
"Y 	c #5A5654",
"Z 	c #BAB9B9",
"` 	c #CAC6CA",
" .	c #6A6464",
"..	c #6A6B6B",
"+.	c #5D605E",
"@.	c #C4C6CA",
"#.	c #313147",
"$.	c #C3C4C4",
"%.	c #4E5352",
"&.	c #4B454A",
"*.	c #363C3C",
"=.	c #191928",
"-.	c #4B433D",
";.	c #625552",
">.	c #4A5657",
",.	c #000009",
"'.	c #725A46",
").	c #765747",
"!.	c #BCA494",
"~.	c #444A52",
"{.	c #364143",
"].	c #4A3E3D",
"^.	c #0A0201",
"/.	c #B69C87",
"(.	c #C4A48B",
"_.	c #1C0C03",
":.	c #73543D",
"<.	c #C3A387",
"[.	c #B49D8B",
"}.	c #22140B",
"|.	c #0D0E12",
"1.	c #221B1C",
"2.	c #140C04",
"3.	c #775435",
"4.	c #CAA483",
"5.	c #221914",
"6.	c #BAA284",
"7.	c #695B54",
"8.	c #69564C",
"9.	c #020409",
"0.	c #231304",
"a.	c #C2BEC2",
"b.	c #CAC3BD",
"c.	c #CAC5C3",
"d.	c #C1A793",
"e.	c #AE9A88",
"f.	c #BB9C83",
"g.	c #684E3C",
"                    . . + + + + +                     . .       ",
"@ # # # # $ $ . . @ @ @ % % % & * * & # = $ @ - - @ @ @ @ @ @ @ ",
"$ = $ $ = = $ . . @ & & ; ; ; > , , ' & % = $ . - $ $ $ @ @ @ $ ",
"$ $ $ $ $ $ $ . % ) ! ~ ) > { ] { ] ^ ; ; % % - / $ $ $ @ @ $ $ ",
"$ $ $ $ $ $ ( % ; , _ ; * ; ] : < : [ ] ; ; ! } - $ $ $ $ $ $ $ ",
"$ $ $ $ $ $ ( % ; { < | ! ) > < 1 < < 1 { ; ; % - $ $ $ $ $ $ $ ",
"( ( ( ( ( ( % > { 1 < < 2 % ' | 1 3 : : 1 4 , 5 % $ $ $ $ $ 6 6 ",
". 7 7 7 7 7 % > _ 8 _ , ; & , ; 2 9 3 3 ] , ; , % - - - 7 7 . . ",
"+   . . . . & ~ 0 0 0 % % & a % % b _ { ~ c ) % % - -           ",
"/ @ # # # @ % % ; ' ; d e % & < _ & * * % f ' ' g @ # # # # # . ",
"+ @ $ $ $ = ) & > 9 ; & 2 h 5 i [ 3 [ 9 2 2 > j } $ $ $ $ $ #   ",
"+ k $ $ $ $ l } & & m m & > % ' g & * * % m % & n = = $ $ $ # + ",
". o $ $ = = p q r s t 2 u % v w r f , , x y z A f $ $ $ $ $ = + ",
"  o $ = = B , e C D b E F G D D H I J K ~ x L M I e ( ( ( ( $ + ",
"+ o ( ( ( % N l x % O P P b B { f b Q R O B f l _ % ( ( ( ( ( + ",
"7 - - - .   l l ; m b S S T U 2 & b S R V % < l l -   . - 7 7 W ",
".       7 7 ) l % m , E P ; ) < f b E J , & ] l % - 7 7 7       ",
"@ @ @ @ @ & X l p ] & ^ ; & _ 1 Y ) ; ^ & , l p Z & # # # # # # ",
"$ $ $ $ k n % ) ` & _ & & {  ...+.{ 0 e { & @.g } % $ $ $ #.# # ",
"$ k $ $ & ^ ; ] } ^ & ) , ; _ ] { , ' % % c & { 2 ; % $ $ = $ $ ",
"$ $ k $ & O _ _ _ b & $.& & & & f % & X g ; _ { { u % $ = $ $ $ ",
"$ $ $ k % _ : ] ; % , ) & X % $.} X & % ; ) 2 %.{ u % $ = $ $ $ ",
"$ $ k k ) &.] , l l ! { _ t U & ~ g N | ; p p ; _ { *.% =.( ( ( ",
"- - - 7 } , ; f -.;.l c ] 5 & ; _ >.+.N ; l l G H H x X * 7 - . ",
",.7 - - - l & r '.).!.D I ~ , * ~.{.{ ~ ].^.n ^./.(._.) &   - - ",
"7 # # @ # l { r :.<.[.}.B 0 0 0 m |.1.2.M ;.l ^.3.4.D $.& @ @ . ",
"7 # @ @ # $ l 5./.6.l 2.` % 7.v w 8.A v ;.f 9.^.:.<.0.% & = $   ",
"- # $ $ = $ $ l l ^.H X ) a.}._._.0._._.H c 9.l l ^.^.$.& $ $   ",
"- $ $ $ $ $ k k = H b.0 c.x l x q G , > u 9.$ $ $ $ $ & k $ $   ",
"- ( $ $ $ $ $ $ $ $ x c.x Y l 2.H B m 9.9.$ $ $ ( ( $ $ k $ $   ",
"- ( ( ( o o o ( ( ( ( m 9.p l w d.e.v l ( ( ( ( ( ( ( ( ( ( (   ",
". .                         . ^.f.g.^.+                 + + .   "};
