/* XPM */
static char * NinjaS1_xpm[] = {
"32 32 138 2",
"  	c #000010",
". 	c #000014",
"+ 	c #00000D",
"@ 	c #3A3A54",
"# 	c #35354D",
"$ 	c #202036",
"% 	c #131414",
"& 	c #0E1312",
"* 	c #1A1B1B",
"= 	c #1D1D32",
"- 	c #00000E",
"; 	c #151916",
"> 	c #434444",
", 	c #3D413E",
"' 	c #434649",
") 	c #3C3E41",
"! 	c #1B1414",
"~ 	c #363C3C",
"{ 	c #3D4242",
"] 	c #565A5A",
"^ 	c #535554",
"/ 	c #5A5B5B",
"( 	c #555659",
"_ 	c #00000A",
": 	c #1B1B2B",
"< 	c #444946",
"[ 	c #4E5352",
"} 	c #0D110E",
"| 	c #555956",
"1 	c #646666",
"2 	c #616563",
"3 	c #636464",
"4 	c #5E6162",
"5 	c #0C0C0C",
"6 	c #4D514E",
"7 	c #3C3D3D",
"8 	c #66696A",
"9 	c #4A4B4B",
"0 	c #161625",
"a 	c #00000B",
"b 	c #656865",
"c 	c #464A4A",
"d 	c #13120D",
"e 	c #1B1914",
"f 	c #43423E",
"g 	c #443E41",
"h 	c #15191A",
"i 	c #4F5147",
"j 	c #141619",
"k 	c #625C5B",
"l 	c #57605C",
"m 	c #19192B",
"n 	c #020101",
"o 	c #130F11",
"p 	c #151522",
"q 	c #64554B",
"r 	c #695B54",
"s 	c #64594D",
"t 	c #625552",
"u 	c #1B161A",
"v 	c #5C575A",
"w 	c #0A0201",
"x 	c #B4A59C",
"y 	c #22140B",
"z 	c #4B4444",
"A 	c #D3D2D2",
"B 	c #D3CDCD",
"C 	c #4B4945",
"D 	c #1C0C03",
"E 	c #130D0C",
"F 	c #DCCED3",
"G 	c #A69FA1",
"H 	c #4A3E3D",
"I 	c #DBD3D4",
"J 	c #DACCCD",
"K 	c #433D3D",
"L 	c #D5C7C8",
"M 	c #5A5654",
"N 	c #040805",
"O 	c #6A6464",
"P 	c #000007",
"Q 	c #CCC9C6",
"R 	c #E4D5D8",
"S 	c #CCD1CE",
"T 	c #221B1C",
"U 	c #0B0A03",
"V 	c #CBCBCB",
"W 	c #090509",
"X 	c #CAC6CA",
"Y 	c #313147",
"Z 	c #393935",
"` 	c #C3C4C4",
" .	c #C2BEC2",
"..	c #655E63",
"+.	c #6A6B6B",
"@.	c #BAB9B9",
"#.	c #4B454A",
"$.	c #554E53",
"%.	c #191928",
"&.	c #534B4B",
"*.	c #5C5E62",
"=.	c #685555",
"-.	c #120201",
";.	c #000009",
">.	c #ABA39A",
",.	c #B3A8A3",
"'.	c #020409",
").	c #364143",
"!.	c #B49D8B",
"~.	c #73543D",
"{.	c #684E3C",
"].	c #4D3A31",
"^.	c #D3C6C5",
"/.	c #1B130C",
"(.	c #5C544D",
"_.	c #0C1919",
":.	c #AE9A88",
"<.	c #C39C83",
"[.	c #725A4C",
"}.	c #4B433D",
"|.	c #635A54",
"1.	c #5B564A",
"2.	c #69564C",
"3.	c #0D0E12",
"4.	c #CCD2D6",
"5.	c #B69C87",
"6.	c #26180D",
"7.	c #C9BEBA",
"8.	c #151A21",
"9.	c #C4C6CA",
"0.	c #1C1204",
"a.	c #CAC3BD",
"b.	c #140C04",
"c.	c #CCCCD1",
"d.	c #B5A393",
"e.	c #C1A793",
"f.	c #050B09",
"g.	c #665444",
"                    . . + + + + +                     . .       ",
"@ # # # # $ $ . . @ @ @ % & % % % % * # = $ @ - - @ @ @ @ @ @ @ ",
"$ = $ $ = = $ . . @ ; % > > > , > ' ) ; ! = $ . - $ $ $ @ @ @ $ ",
"$ $ $ $ $ $ $ . % * ~ { * , ] ^ / ( ' > > ! ; - _ $ $ $ @ @ $ $ ",
"$ $ $ $ $ $ : % > < [ { } > | 1 2 3 4 ^ > ' > 5 - $ $ $ $ $ $ $ ",
"$ $ $ $ $ $ : & > ] 2 6 7 * , 2 8 2 2 8 ] ' < ; - $ $ $ $ $ $ $ ",
": : : : : : & , / 1 2 2 < % 7 9 1 2 3 3 1 / 7 < ; $ $ $ $ $ 0 0 ",
". a a a a a % , ^ b ^ < > ; > { < | 2 2 / c c > ; - - - a a . . ",
"+   . . . . ; > % d d d d e f } } { [ ] g ~ h & % - -           ",
"_ @ # # # @ % ; > f f i e e } 2 | h ; ; ; ; , { d @ # # # # # . ",
"+ @ $ $ $ = * j { | < ; f | > ; k 2 l | < < > > 5 $ $ $ $ $ #   ",
"+ m $ $ $ $ n 5 e e ; % * % % * o * % } & % d % 5 = = $ $ $ # + ",
". p $ $ = = n k q r d < c e s s t u > 7 } | v o % $ $ $ $ $ = + ",
"  p $ = = % > w x y z A B C D D E g F B ' ; G % > 5 : : : : $ + ",
"+ p : : : % | n ! ! H I J K E k % > L F z % e n M % : : : : : + ",
"a - - - .   N n > ; C J I C * g % C F F C E O n n -   . - a a P ",
".       a a ; n 5 ; z Q J z % / ; < I R z e M n * - a a a       ",
"@ @ @ @ @ % S n N 2 5 K K e | 8 9 T C 9 ! z n U V ; # # # # # # ",
"$ $ $ $ m m * % V ; | % % | 8 2 3 M W ! v ! X E % @ $ $ $ Y # # ",
"$ m $ $ $ & > ] % < ; ; < > / / | < > o ! Z e / < u $ $ $ = $ $ ",
"$ $ m $ % c / / / < % ` * % * ; o 5 u  .! > ../ +.9 & $ = $ $ $ ",
"$ $ $ m * > 9 | g ; c & ; V * @.o ` ; ; #.o ' $.2 9 % $ = $ $ $ ",
"$ $ m e Z v ^ 9 n n < ^ ( * < % % * v $.> n W 7 ^ c % : %.: : : ",
"- - e V e d e &.U n C | ^ ^ ^ 7 % ^ *.' w =.H -.< < % ;.- a - . ",
";.a - ! ! >.,.w U w 7 f | > [ '.> ).).% !.~.{.].U n         - - ",
"a # ! ^./.>.(.n w (.d e d E n ; ; h _.} :.<.~.[.}.N # # # @ @ . ",
"a # @ E /.,.|.n n n 1.1.r s 2.q k 3.4.* -.5.!.6.n = = = = = $   ",
"- # E 7.n n n n n f U n w w -.D !  .8.9.0.w U n $ $ $ $ $ $ $   ",
"- $ $ E $ $ m m = '.' > f Z }.e n % 9.j a./.$ $ $ $ $ m m $ $   ",
"- : $ $ $ $ $ $ $ $ '.n d b.b.b.n / W c.* $ $ $ : : $ $ m $ $   ",
"- : : : p p p : : : : n (.d.e.{.n '.f.j : : : : : : : : : : :   ",
". .                     n g.d.-..   + +                 + + .   "};
