/* XPM */
static char * Penguin_xpm[] = {
"32 32 157 2",
"  	c #000010",
". 	c #000014",
"+ 	c #00000D",
"@ 	c #3A3A54",
"# 	c #35354D",
"$ 	c #202036",
"% 	c #1D1D32",
"& 	c #00000E",
"* 	c #000000",
"= 	c #C9C9C9",
"- 	c #4A4A4A",
"; 	c #434343",
"> 	c #C3C3C3",
", 	c #1B1B2B",
"' 	c #00000A",
") 	c #CBCBCB",
"! 	c #2C2C2C",
"~ 	c #2B2B2B",
"{ 	c #FFFFFF",
"] 	c #1D1D1D",
"^ 	c #C8C8C9",
"/ 	c #838383",
"( 	c #040404",
"_ 	c #C2C2C2",
": 	c #8A8A8A",
"< 	c #0E0E0E",
"[ 	c #030303",
"} 	c #757575",
"| 	c #161625",
"1 	c #00000B",
"2 	c #D6D6D6",
"3 	c #010101",
"4 	c #222222",
"5 	c #D0D0D0",
"6 	c #646464",
"7 	c #14981F",
"8 	c #636363",
"9 	c #AEAEAE",
"0 	c #393939",
"a 	c #ADADAD",
"b 	c #DBDBDB",
"c 	c #212121",
"d 	c #080808",
"e 	c #2D2D2D",
"f 	c #FADC00",
"g 	c #090909",
"h 	c #202020",
"i 	c #19192B",
"j 	c #7B7B7B",
"k 	c #0A0A0A",
"l 	c #BABABA",
"m 	c #D2D2D2",
"n 	c #151522",
"o 	c #B9B9B9",
"p 	c #050505",
"q 	c #191919",
"r 	c #969696",
"s 	c #D5D5D6",
"t 	c #383838",
"u 	c #101010",
"v 	c #313131",
"w 	c #D4D4D4",
"x 	c #343434",
"y 	c #676767",
"z 	c #707070",
"A 	c #181818",
"B 	c #828282",
"C 	c #939393",
"D 	c #6E6E6E",
"E 	c #B7B7B7",
"F 	c #D9D9D9",
"G 	c #AAAAAA",
"H 	c #ABABAB",
"I 	c #BFBFBF",
"J 	c #A8A8A8",
"K 	c #000007",
"L 	c #A1A1A1",
"M 	c #060606",
"N 	c #1F1F1F",
"O 	c #070707",
"P 	c #9F9F9F",
"Q 	c #DADADA",
"R 	c #9D9D9D",
"S 	c #CECECE",
"T 	c #D8D8D8",
"U 	c #313147",
"V 	c #D7D7D7",
"W 	c #A9A9A9",
"X 	c #C5C5C5",
"Y 	c #D3D3D3",
"Z 	c #373737",
"` 	c #BEBEBE",
" .	c #B1B1B1",
"..	c #626262",
"+.	c #191928",
"@.	c #919191",
"#.	c #999999",
"$.	c #000009",
"%.	c #979797",
"&.	c #898989",
"*.	c #B0AFA9",
"=.	c #B49D47",
"-.	c #3C2B01",
";.	c #5B5B5B",
">.	c #9C9C9C",
",.	c #949494",
"'.	c #A2A2A2",
").	c #5F5F5F",
"!.	c #241D01",
"~.	c #AD9F59",
"{.	c #000008",
"].	c #99999A",
"^.	c #FBF966",
"/.	c #FEE446",
"(.	c #FBBA02",
"_.	c #E98C02",
":.	c #C5AEA4",
"<.	c #C1C1C1",
"[.	c #BCBCBC",
"}.	c #C0C0C0",
"|.	c #CA9B84",
"1.	c #E08F01",
"2.	c #F6C10D",
"3.	c #FEED57",
"4.	c #F4F490",
"5.	c #686875",
"6.	c #2E2E43",
"7.	c #BCBCBE",
"8.	c #F1F1AC",
"9.	c #FFF485",
"0.	c #FFC90E",
"a.	c #FAA731",
"b.	c #BFBEBC",
"c.	c #B6B6B6",
"d.	c #B0B0B0",
"e.	c #CCB7A9",
"f.	c #FFAE00",
"g.	c #FFD52B",
"h.	c #FFF994",
"i.	c #E8E8C0",
"j.	c #BABABB",
"k.	c #E0E0CF",
"l.	c #E8E397",
"m.	c #E6D3A3",
"n.	c #D8C2AB",
"o.	c #B8B8B8",
"p.	c #BBBBBB",
"q.	c #BAB9BA",
"r.	c #DFC3A3",
"s.	c #E6D6A4",
"t.	c #E6E49D",
"u.	c #DBDBDA",
"v.	c #CCCCCC",
"w.	c #C8C8C8",
"x.	c #AAAAAC",
"y.	c #D5D5D5",
"z.	c #B9B9BA",
"                    . . + + + + +                     . .       ",
"@ # # # # $ $ . . @ @ @ @ @ @ # @ # # # % $ @ & & @ @ @ @ @ @ @ ",
"$ % $ $ % % $ . . @ $ $ $ * * * * * $ % % % $ . & $ $ $ @ @ @ $ ",
"$ $ $ $ $ $ $ . . $ $ = - * * * * * ; > $ $ , & ' $ $ $ @ @ $ $ ",
"$ $ $ $ $ $ , . . , ) ! * * * * * * * ~ > $ , ' & $ $ $ $ $ $ $ ",
"$ $ $ $ $ $ , . . , ! * * { { { { { * * ] ^ , ' & $ $ $ $ $ $ $ ",
", , , , , , , . . / ( * _ * * : * * { < [ } , & & $ $ $ $ $ | | ",
". 1 1 1 1 1 & & 2 3 * 4 { { { { { { { 4 * * 5 ' ' & & & 1 1 . . ",
"+   . . . . . . 6 * * * { 7 7 { 7 7 { * * * 8     & &           ",
"' @ # # # @ # 9 * * * * { 7 0 { 0 7 { * * * * a @ @ # # # # # . ",
"+ @ $ $ $ % b c * * * d e { f f f { * g 3 * * h b $ $ $ $ $ #   ",
"+ i $ $ $ $ j * * * k h l { f f f { m * k * * * j % % $ $ $ # + ",
". n $ $ % o * * * p q r s { { f { { { 9 * p * * * o $ $ $ $ % + ",
"  n $ % % t * * * u v w { { { { { { { { x u * * * t , , , , $ + ",
"+ n , , : * y z [ A B { { { { { { { { { C A [ D y * : , , , , + ",
"1 & & & E F 1 G p ] H { { { { { { { { { I ] p J & F E . & 1 1 K ",
".       1 1 . L M N I { { { { { { { { { m N O P + & 1 1 1       ",
"@ @ @ @ @ @ @ P p ] ) { { { { { { { { { Q ] p R ' # # # # # # # ",
"$ $ $ $ i i $ G [ A S { { { { { { { { { T A [ J + @ $ $ $ U # # ",
"$ i $ $ $ i $ 9 3 u m { { { { { { { { { V u * W + @ $ $ $ % $ $ ",
"$ $ i $ $ i $ X * p Y { { { { { { { { { w p * I   $ $ $ % $ $ $ ",
"$ $ $ i $ i i & Z * ` { { { { { { { { { ` * ~ +   $ $ $ % $ $ $ ",
"$ $ i i $ $ $ .  .* 6 { { { { { { { { { ..* G +   , , , +., , , ",
"& & & 1       1 1 @.3 #.1 & 1 1 & & $.%.* &.  $.$.1 $.$.& 1 & . ",
"$.1 & & & & & & 1 *.=.-.;.L >.,.'.G ).!.~.{.1 +             & & ",
"1 # # @ # # # @ ].^./.(._.:.<.[.}.|.1.2.3.4.5.6.@ # # # # @ @ . ",
"1 # @ @ # $ $ $ 7.8.9.0.a.b.c.d.c.e.f.g.h.i.j.@ @ % % % % % $   ",
"& # $ $ % $ $ $ $ k.l.m.n.l o.p.o.q.r.s.t.u.$ $ $ $ $ $ $ $ $   ",
"& $ $ $ $ $ i i % % 2 T m v.= w.= v.m T 2 $ $ $ $ $ $ i i $ $   ",
"& , $ $ $ $ $ $ $ $ $ x.= i j.y.z., j.x.$ $ $ $ , , $ $ i $ $   ",
"& , , , n n n , , , , , , , n   . , , , , , , , , , , , , , ,   ",
". .                         .   .   + +                 + + .   "};
