/* XPM */
static char *_87174ce9bf942dbb73090fa5f3788c70omuhAdZh6avYSbL[] = {
/* columns rows colors chars-per-pixel */
"32 32 18 1 ",
"  c #000007",
". c #00000A",
"X c #00000E",
"o c #000012",
"O c #000014",
"+ c #00001B",
"@ c #00001E",
"# c #4C4C43",
"$ c #6F6F62",
"% c #7F7F70",
"& c #888984",
"* c #9D9D95",
"= c #A2A28F",
"- c #AEAE9F",
"; c #B4B4A6",
": c #BCBDB1",
"> c #C8C9C1",
", c #E6E6DA",
/* pixels */
".X ..OOXOOOOXX.. .X. .XXXoOOOOX.",
"XO,,,,,,,,,,,,,,******,,,,,,,,O.",
"O,>>>>>,,:>>>>,,,>>>>>>>>>>,,,,X",
"O>>>>>>>>::>>>>>>>>>>>>>>>>>>>>X",
".>>>>>>>>>::::::>>>>>>>==>>>>>>X",
".>>=>>>>>>>>>>>:>>>>>>>>=>>>>>>O",
".>>=>>>>>>>=>:>::>>>>>>===>>>>=O",
"X>>>=>>>>:==>:>>::::>>>>>=>>>>$O",
"X>>>>>>>:==::>>>>>>:::>>>>>>>>=O",
"X>>>>>>:-;:>>>>>>>=>>>>>::::>>>O",
".>>>>:;-;:>>>>>>>===>>>>>>>>>>>O",
".=>>:-::>>>>>>>>=$#&>>>>>>>>>=$X",
"X====$$==>>====$$##=========$$$O",
"O@$%%$=$$$$=$$$==$=$$$$$$$#$$#OX",
" oOOOOOXX.XXXXX.  XOXXOXOOXOOO  ",
".XOOOOOO@OXOOO...OOXXOOOOOOOOoX.",
"X@,,,,,,,,,,,,@.X@,,,,,,,,,,,,@o",
"X,,>>>>>>>>>>,,XO,>>>>>>,,,>>>,+",
"o,>>>>>>>>>>>>>XO>>>:::>>>>>>>>+",
"o>>>::::::>;;:>XO>>==>::>>>>>>=.",
"+>>:::::;---:>>oO>>==>:;;:::::=X",
"+>>:>>;;;::::>>XO>>>==:>::>>>>=.",
"+=>>>>>;::;;;:>XO>>>:>>>>::=>>=X",
"O=>>>::===;>::>XO>>>>>>>>>>=::=.",
"+>>:::==>;:>>::XO==>>>>>>>>>>>>X",
"+>::::>>:;>>>::XO>=>>>>==>>>>>>.",
"+>>>>;>>;:>>==>XO>=>>>>>==>>>>>X",
"O>>>:--;>>>===>+.>>>>>>===>>>>>.",
"+=>>>:-:>>>====Oo>>>>>=====>>>=X",
"+===>>===>>====Oo>>============X",
"X@============ooXo============O.",
"XXX@OOXXOOOXX..XXXXXOOXX.XOOOOX."
};
