/* XPM */
static char *_6a00d9e0f2f40b68691076bf7ea4505FUjOI0a5J2MjlIHA[] = {
/* columns rows colors chars-per-pixel */
"32 32 22 1 ",
"  c #000010",
". c #000014",
"X c #000017",
"o c #00001E",
"O c #111C11",
"+ c #36570B",
"@ c #3F6908",
"# c #40414C",
"$ c #505046",
"% c #727264",
"& c #A2A28F",
"* c #A2A290",
"= c #A3A390",
"- c #A5A593",
"; c #A7A796",
": c #A8A897",
"> c #AAAB9A",
", c #AEAF9F",
"< c #B5B5A8",
"1 c #BDBDB2",
"2 c #C8C9C1",
"3 c #E6E6DA",
/* pixels */
"...XXooX..XXXoooooXX.XXXXXXXXXX.",
".o3333333333333333333333333333oX",
"X322222332222233322222222223333X",
".222222221111112222222222222222X",
".2222222111222,,,,22222**,2,222X",
".22*2222<12222,22,222,,2*,2,222X",
".22*22,:&;,*2,222,22,22**&,,22*X",
".222*22<;;&*2,222,2,>1222&,222*o",
".222221<2**,2,222,2,21222,,222&.",
"X222211122;;22,22,&,211222,2222o",
"X222221122,-22,22&&&221122,2222o",
"X*22211222,;22,2&%&,222111>,2**o",
"X*****%%%2,*&&**&$$&***&%%%%*&&o",
".o**&%%*&&**&&**&&$$%*&&***%%&..",
"XooX..oooooo.XoXooo...XXXoooX...",
"X..X.XXX..XX.XXXXXX....XXXoX.o..",
".o@@@@@@@@@@@3333333o...Xo...XX.",
".+@@@@@@@@+++33333222oXo.ooXXXo.",
"XO@@@@@@+++22,22,22222XXX.X..XX.",
"oO@@@@@++2222,2,,22**2oX.XXXXXXX",
"XO@@@++222>22,,-122*oooo...XX.X.",
"o+@+++2221;:>&&&<222o@@@oX...XXX",
"o+@+2222222&&&&*1<22o+@@@oo....X",
"o+++222&&&2:*>&22<<2o++@@@oo.X..",
".++222**22;,**&&2**2oo+@@@@XXXX.",
"X++222222-->&-2222*..++@@@XXoXXX",
"X++22222,;>:&&2ooooo++@@@@XX#oX.",
"X2+222,,;*:&&&oo@@@@@@+&@++o22X.",
".&+22222->2&**X@@@@++++&*++222*X",
".&**22&*&,2&**X@@@++&&&&@+*****X",
".o****&&*****oX++++*&&&&++****oX",
".oooXX..XXXXX..XXX.ooooooooX.XX."
};
