/* XPM */
static char *_782d2b61cc94984eeaa0bb2cb5edeebZMBgCLPpxN3Hru8D[] = {
/* columns rows colors chars-per-pixel */
"32 32 17 1 ",
"  c #000007",
". c #00000A",
"X c #00000E",
"o c #000014",
"O c #00001E",
"+ c #36570B",
"@ c #3F6908",
"# c #A2A28F",
"$ c #B4B4A6",
"% c #B8B9AC",
"& c #BCBDB1",
"* c #BFC0B5",
"= c #C0C0B0",
"- c #CACABA",
"; c #C8C9C1",
": c #D6D6C8",
"> c #E6E6DA",
/* pixels */
"XOOOOOOOOoooooooooOOOOOOooooOOoO",
"XO>>>::==-->>>OooO>>>>>>>>::::oo",
"o>;;;;;>>*%%*;>oo;&;;;;;;;;>::>O",
"o;;;;;;;;;;;*;;oo;&&;;;;;;;;**;O",
"o;;;;;;;;;;;;;;oo;;&;;;##;;;;;;O",
"o;;#;;&&;;;;;;;oo;;&&;;;#;;;;;;O",
"o;;#;;;&&;;#;;;oo;;;&&;###;;;;#O",
"X;;;#;$&&;##;;;oo;;;;&&;;#;;;;#O",
"X;;;;;$&&##;;;+oX++;;;&&;;;;;;#O",
".;;;;&&;&;;;;++oX@+;;;;&;;;;;;;O",
".;;;;&&;&;;;++@OX@@+;;;;;;;;;;;O",
".#;;;&&&&;;++@@.X@@+++;;;;;;;##O",
"X########;;+@@@.o@@@@++++######O",
"XO########++++O.XO++++++++####OO",
" XXXoooooXXXXoo..XoXoooooooXoooO",
".OOOooooooOOOX .ooXXX.XXoooXXX X",
"oO>>>>>>>>>>>>>>>>>>>>+@@@@@@@o.",
"o>>;;;;;;;;;;>>>>>;;;;;++@@@@@@X",
"X>;;;;&;&&;;;;;;;;&&;;;;++@@@@@X",
"o;;;;;&&&$&&;&;;;;;##;;;;+++@@@o",
"o;;;;;;$;&&$$&&&;;;##;;;;;;+++@o",
"o;;;&&&$;;$$$&;&;;;;##;;;;;;+++o",
"X#;;;&&;&;&&;&&;&;;&&;;;;;;#+;#X",
"X#;;;;;###&&&;&&&&&&;;;;;;;@++#X",
"X+;;;;##;;;;&;;&;##;;;;;@++@@++o",
"X+++;;;;;;;;;&;&;$#;;;+++@@@+++X",
"O@@++;;;;;;;##;&$&#;+++@@@@@@+;o",
"o+@@+++;;;;###;;;++++@@@@@@@@+;o",
"o+@@@@++;;;###+++@@@@@@@@@@@@++o",
"X++@@@@+++;##++@@@@@@@@@++@@@++O",
"Xo+++++++@###+++++++++++++++++Oo",
"XooooooooooooooooooXooOoXoo..XX."
};
