/* XPM */
static char *_1b7f3b6d2544a9bea5168d0e75a9a6fwONPm4ovNEgglf1m[] = {
/* columns rows colors chars-per-pixel */
"32 32 34 1 ",
"  c #000006",
". c #00000A",
"X c #000011",
"o c #000014",
"O c #000017",
"+ c #040417",
"@ c #050519",
"# c #00001E",
"$ c #0A0A1C",
"% c #0B0B1D",
"& c #0F0F1E",
"* c #131323",
"= c #1A1A28",
"- c #1C1C2B",
"; c #202030",
": c #36570B",
"> c #3F6908",
", c #444446",
"< c #44444D",
"1 c #5E5E53",
"2 c #5E5E5B",
"3 c #85857F",
"4 c #88887B",
"5 c #858587",
"6 c #919186",
"7 c #A2A28F",
"8 c #A3A390",
"9 c #A8A897",
"0 c #AAAA99",
"q c #AFAFA0",
"w c #B8B9AC",
"e c #C9C9BB",
"r c #C8C9C1",
"t c #E6E6DA",
/* pixels */
" XXXXX..XX#XoXXXXXoXXXX#######X.",
".#tttttte6335ttttttttt#ttttttt#X",
".###rrrttwwrrrtttrrrrr#rrrrttttX",
"Xrr##rrrrrwqqqwrrrr####rrrrr9rrX",
"Xrrrr#rrrrwrrwwrr###rrr77rrr9rr.",
"#rr7r##rrwrrrrrr#o@;rr897r999rr.",
"#rr7rr#rrrr7rrrro@@;r088779rrr7.",
"Xr997r##rr77rrwrXoo@0r9rr7rr###.",
".rr9rrr##77rrX#<Xoo4;r9rrr###r#X",
".rr9rrrr####rXrwr*ooo;rrr##rrrr#",
".rr99rrrrrr##.rww-Xoo@rr##rrrrrX",
"X7rr999rrrrrXXwq8=oooo###rrrr77.",
"X77777777rrXX77787&Xoo#77777777.",
"X#7777777###777787777#77777777#X",
"X##XXXXXXXXX,XXX#####XXXXX#XXXX ",
".XXX###########XXXXXXX####XX### ",
" Xtt>>>>>>>>>>>>>>>>>>>>>>>>tt# ",
"Xttrrwr:>>>>>>>>>>>>>>>>>:::rrtX",
"Xtrrwqr::>>>>>>>>>>>>>>:::rrrrrX",
"Xrrrrqrr:>>>>>>>>>>>>>::rrrrrr7X",
"Xrrrwwwr:>>>>>>>>>>>>::rrwwrww7X",
"Xrrrw0wrr::>>>>>>>:::7rrrwwrww7X",
"X7rrw0rrrr:>>>>>>>:rrrrwwww7ww7X",
"X7rrwqr788r::>::::rrrwwrwww7rw7.",
"#rrwwq77rrrr:::rr77rwwrwwrqwwww.",
"Xrrwrqrrrrwwwrrrrr7wwrr77rqrwwr.",
"Xrrwrqwrrrrr77w%%r7wwrrr77wwqwr.",
"Xrrwrwwrrrr777%Xwqqwwrr777wwwrr.",
"X7rrwqwrrrr778@o;wrrrr77777wwr7X",
"X777rw777rr772oo-+r777777777777X",
" X17777777887@o@o-+77777777777<.",
" XXXXXXXXXXXoXoooooX###XXXXXXXX."
};
