/* XPM */
static char *_b7b296c93584e5bfb92c7b141cd2a82gQ33L6AcxJOCLuur[] = {
/* columns rows colors chars-per-pixel */
"32 32 20 1 ",
"  c #000008",
". c #00000D",
"X c #000011",
"o c #000017",
"O c #00001E",
"+ c #1E1E2B",
"@ c #27272F",
"# c #36570B",
"$ c #3F6908",
"% c #7B7B6D",
"& c #989993",
"* c #A2A28F",
"= c #AFAFA0",
"- c #AFAFA6",
"; c #B3B3A5",
": c #B8B9AC",
"> c #BFC0B5",
", c #C8C9C1",
"< c #D6D6C8",
"1 c #E6E6DA",
/* pixels */
" oooXXXXoOOOOo.XXooXXOooXXooXoo.",
"XO11<11<<11111XXXo1111111111-1OO",
"o1,,>>,1<>,,,,1oX,,,>,,,,>>1111o",
"o&,,,>>,,>>,,,,oX,,,>,,,,,>>,,,o",
"O&,,,,>,,,>,>,,oX,,,,>,**,,>>,,o",
"o&,*,,>,,,,,>>,oX#,,,>,,*,,,>,,o",
"o,,*,,,>,,,*,>,oX##,,,>***,,>,*o",
"o,,,*>,>,,**,>,oX##$,,,>>*,>,,*o",
"o,,>>,,>,**,,>,oX###$,,,,>>>,,*o",
"X,,>,,,>>,,,>>,oX#$##,,,,,>>,,,X",
"o,,>,,,,>,,,>,,o.$$$##$,,,>>,,,o",
"o*>>,,,,,,,,>,,oX##$$##$,,>,>**o",
"o********,,****oo##$$$$##******o",
"oO************OXXO###$$##*****Oo",
"oooXoOOOooooooX..XXXXXoooOOOoooX",
"oOOo.  ..@XXoooOoXXOoXXoXXooOOO.",
"oO1111111<<<1111O1111OO11-1111OX",
"o-1,,,,,,,,>>111o1,>>,OO1<<,>>1X",
"O1,,>>>>>>>,>>,,oo,,>,oO,,,:>>,X",
"O,,,,,>>,,>>,>,,&o,**,o,,,,:,,*X",
"o,,,>>>>>>>>>:>,Oo,**,O,>>>>,,*o",
"o>>>,,,,,,>::>:>o,>>**X,,,,>,,*o",
"o*,:>,,>,>>:,>>,o,>,,,XO,,,*>>*o",
"o*>>>:>***,>,>,OO,>,OOOoo,O*,,*o",
"o,>,,>**>,,,>>,,O**>O,>,OoooO,,o",
"o,,>,,::>,,,,,,,oo*Oo,>**,>>+oOo",
"o,,>,,::,,,,**,,,Xoo&,>>**>,>&oo",
"O,,>,,::,,,***,,,,oX##,***,##,#o",
"o%,>,,;=,,,****,OO#$###***#####o",
"o***,>***,,***OO###$$$####$$##$X",
"oO***********Oo#$$$$$$$##$$$$$OX",
".OoooOOooooo...oXXXXX..XoXXXooX "
};
