/* XPM */
static char *_0e18e68ccae441be360976478a79901Hp9KKfNnM2BA7ViW[] = {
/* columns rows colors chars-per-pixel */
"32 32 23 1 ",
"  c #00000A",
". c #00000C",
"X c #000013",
"o c #000018",
"O c #00001E",
"+ c #6B6B5E",
"@ c #848474",
"# c #868677",
"$ c #8D8E80",
"% c #9D9D95",
"& c #A2A28F",
"* c #A2A290",
"= c #A5A694",
"- c #ABAC9B",
"; c #ADAE9E",
": c #AFB0A1",
"> c #B2B3A5",
", c #B6B7AA",
"< c #BBBCB0",
"1 c #C1C2B8",
"2 c #C8C9C1",
"3 c #E0E0D5",
"4 c #E6E6DA",
/* pixels */
" ooooOOoooXXXXXXXoooooooooooooXX",
".O4444444444444444444444444444oX",
".422222244442224422224444222224.",
"O222222222222222222222221122223.",
"O222211222222232222222221122222.",
"O222221122222332222232221222222o",
"O222222122222222222222221222222o",
"o212222112222222222222221222223o",
"X*12222212222222222222211222222O",
"X211222212222222222222212222222O",
"X2212*2212222222222222212222212o",
"o221222212222222&&&22221222221;o",
"o22111212222222*&112222<122211;o",
"o221122122221222&2122221122212*o",
"o221<2212222122222122221122212*o",
"o22<>,212221122222122221112212*o",
"o222,>212221222222122212112112&o",
"o222<:21222122222212221111212;&X",
"O;221:<12221222222-222212121222X",
"o&&21,<1222212222&&122212211222X",
"o&&211>122221222&&&122212211222o",
"o&&22<><2222112&&&&&12212211222o",
"X;&221>,22222122222&11212211222O",
"o22221>,22222122222221<122<2222O",
"o22222>,22222112222222<222<2222O",
"o22222,122222212222222112211222O",
"o22222,12222&222222222&<2221222O",
"o22222,<222&&22222222&@11221222O",
"o;22221%12&&&22222221=#&1-21222O",
"o&;;=&%*&;&&##**=222;@@&2->##=&O",
"XO&&**&&&&@#@&**@@&&&#++&&&&##OX",
".OOOOoXXXXXOOOoo XoXooOoOOOOOoo."
};
