/* XPM */
static char *result[] = {
/* columns rows colors chars-per-pixel */
"32 32 20 1 ",
"  c #000005",
". c #000007",
"X c #000008",
"o c #00000A",
"O c #00000B",
"+ c #00000C",
"@ c #00000E",
"# c #000012",
"$ c #000014",
"% c #00001B",
"& c #00001E",
"* c #1D3103",
"= c #2B4805",
"- c #36570B",
"; c #3F6908",
": c #6F6F62",
"> c #9D9D95",
", c #A2A28F",
"< c #C8C9C1",
"1 c #E6E6DA",
/* pixels */
"o@$@@@$$$$$$$&&&&&$$$$$$$&$$$$@o",
"@&111111111111111;;;;;;;;;;-11$o",
"@1<<<<<11<<<<<111;;;<--;;;;111>o",
"@<<<<<<<<<<<<<<<<<<;<<--;;;<<<<.",
"@<<<<<<<<<<<<<<<<<<-<<<-;;;<<<<o",
"@-<,<<<<<<<<<<<<<<<-<<<-;;;<<<<o",
".;-,<<<<<<<,<<<<<---<<<--;--<<,o",
"o;--,<<<<<,,<<<<--<<<<<<---;<<,@",
"$----<<<<,,<<<<<<<<<<<<<<--<<<,$",
"$;;;--<<<<<<<<<<<<,<<<<<<<<<<<<$",
"$-;;;----<<<<<<<<,,,<<<<<<<<<<<$",
"$--;;;----<<<<<<,,,<<<<<<<<<<,,$",
"@--;;;;;;--,,,,,,,,,,,,,,,,,,,,$",
"@&------;;---,,,,,,,:::::::,,,&@",
".o$$$@$$@$@$$$.++$$$@$#+++#%###X",
"@ooo@@$$$$&$$@  O#+####@$$@@o$$@",
"&$111111111111$X+&111111111111&$",
"$>1<<<<<<<<<<11 +1<<<<<<111<<<1$",
"$1<<<<<<<<<<<<<++<<<<<<<<<<<<<<$",
"$<<<<<<<<<<<<<<++<<,,<<<<<<<<<,$",
"$<<<<<<<<<<<<<<+$<<,,<<<<<<<<<,$",
"$<<<<<<<<<<<<<<#$<<<,,<<<<<<<<,$",
"@,<<<<<<<<<<<<<X@<<<<<<<<<<,<<,$",
"@,<<<<<,,,<<<<<@@<<<<<<<<<<,<<,$",
"@--<<<,,<<<<<<<@@,,<<<<<<<<<<<<$",
"@---<<<<<<<<<<<@$<,<<<<,,<<<<<;$",
"@;;-<<<<<<<<,,<$$<,<<<<<,,<;;;;$",
"o=;--<<<<<<,,,<@@<<<<<<,,,<<;;-$",
"$=;---<<<<<,,,,$@<<<<<,,,,,;;;-$",
"@*;---;,,<<,,,,oo<<,,,,,,,;;---$",
"@o=;----,,,,,,&@$&,,,,,----;--$$",
".o@@$$$$&$@$@@@.o@@$@@@@.o.@@@ @"
};
