/* XPM */
static char *c7f13b98b98648d69903e282712f0b3cK5H39GhKhOJydiDA[] = {
/* columns rows colors chars-per-pixel */
"32 32 33 1 ",
"  c #000008",
". c #00000A",
"X c #00000D",
"o c #08080F",
"O c #000011",
"+ c #000017",
"@ c #050518",
"# c #060619",
"$ c #00001E",
"% c #0B0B19",
"& c #121215",
"* c #121224",
"= c #181820",
"- c #232432",
"; c #383843",
": c #383845",
"> c #484844",
", c #40414C",
"< c #5E5E53",
"1 c #7B7B6D",
"2 c #7B7B72",
"3 c #A2A28F",
"4 c #ACAC9C",
"5 c #AFAFA0",
"6 c #AFAFA6",
"7 c #AFAFAB",
"8 c #B3B3A5",
"9 c #B8B9AC",
"0 c #BFC0B5",
"q c #CACABA",
"w c #C8C9C1",
"e c #D6D6C8",
"r c #E6E6DA",
/* pixels */
"O$$$++++++O+O++XXOX+OOOOO+O++++X",
"O$rerrrrrrrr7r$$O$6rrrrrrrrrrr$O",
"+rw0w90rrwwwwwr$Owwwwww00wwrrrr+",
"+ww00w99ww0000w$Ow000www00000ww+",
"+www0w09ww0w09w$Ow0w00w33www00w+",
"+ww300w00wwww90$Ow0ww0ww3wwww0w+",
"Oww309w09ww3w00+Ow00w00333ww093O",
"Oww030ww9w33w00++w0w0w0ww3w0003+",
"Oww0w00w933ww9w++w0ww099090ww03+",
"Ow00ww0w9wwww9w++w3www98w090ww0+",
"Owwwww0w990ww90++333ww099900000+",
"X3wwww0ww0www00+O330ww0ww000033O",
"+33333333ww3113+O13333313333333X",
"XO131111133311+++O333331<11133$.",
"++$+++++OO+++O+OO+$$+OO++OOO$+O.",
"OO++++++++++++++O+++++OO+OO+O+X.",
"@$rqqeeeeweeerrr66rrrr6:#+#*;6OX",
"+re0000www0w0rrrrrwwwwww*O*wwwrX",
"$r0www00www000wwwwwwwwww#+#wwww ",
"$wwwwww0www0w0wwww033wwwqO#www3.",
"$ww99wwwqw00900w09033000w-,www3.",
"$www9www90ww99909990330909000w3.",
"@3ww980ww0ww00w00w00www0w003ww3.",
"+3www85333ww09w0www00ww00w030w3X",
"+wwww933wwww0700w33w000w00ww00wX",
"+www9808wwww9q090w3wwww33000www.",
"Oww090w9www933wwww3wwwww33wwwww ",
"+ww00ww999q332wwwwwwwww333wwwwwX",
"O3w00ww09ww33&2wwwwwww33133www3O",
"O333ww333qw33o%wwww333331333333O",
"O$3333333333>&%>3333311<111333$O",
"+$++$$$$$$@OOOXOO+++++OO++OO+++O"
};
