/* XPM */
static char *_267ecb7e7b2406bc794ef7071736c7fDFGgUv2Rzs5Z0OOx[] = {
/* columns rows colors chars-per-pixel */
"32 32 18 1 ",
"  c #000006",
". c #000009",
"X c #00000D",
"o c #000010",
"O c #000014",
"+ c #000018",
"@ c #00001E",
"# c #6B6B5E",
"$ c #848474",
"% c #868781",
"& c #989990",
"* c #A2A28F",
"= c #A2A39D",
"- c #B3B3A6",
"; c #BBBBB1",
": c #BBBCB1",
"> c #C8C9C1",
", c #E6E6DA",
/* pixels */
".XXOXO@OOOXX.XXXXXXXOXXXXXXXOXXX",
"O@,,,,,,,,,;;,,,,,,,,,,,,,,,,,@O",
"O,>>>>>,,>>>>>,,,>>>>>>>>>>,,,,X",
"@>>>>>>>>>>>>>>>>>>>>>>>>>>>>>>X",
"O>>>>>>>>>>>>>>>>>>>:>>**>>:>>>X",
"O>>*>::>>>>>>>>::::>:>::*>>:>>>X",
"X>>*:-->>>>*:>::>>::->>***>:>>*O",
"X>>>*>:-::**:--:>>>>-::-:*>:>>*@",
"O>>:>>>:>**:>:>>>>>:->::>>::>>*@",
"O>>:>>>::>>>>:>>>>*-:>:>>>::>>>@",
"O>>:>>>>::>:>::>>$**>>::>>>:>>>@",
"O*>:>==>>:::>::>$$*:>=>:>>::>**@",
"O****$$$*::****$*****$$********@",
".O*$$$**$$$$$$$$******$$$$****@X",
"XOOOOOOOOOOOOOOOOOOOXXOOOOOOO@O.",
".XXO@@@@OO@O@@@@@OOOOOO@@OOOOOX.",
"X@,,,,,,,,,,,,,,,,,,,,,,,,,,,,@X",
" ,,>>>>>>>>>>,,,,,>>>>>>,,,>>>,O",
".&>>>>>>>>>>>>>>>>>>>>>>>>>>>>>@",
"X%>>:>>>>>>>>::>>>>**>>>>>>>>>*O",
"X>>>:>>>>>>>:>::>>>**>>>>>>::>*O",
"O>>>:>>:::::::>::>>>**::>>>>:>*O",
"O*>>:>::>>>>>::::>>>>>>:>>>*:>*O",
"O*>>:::***>>>>::>>>>>>>::>>*:>*O",
"O>>>>-**>>>>>:::>**>>>>::>>>:>>O",
"O>>>>->>>>>>>:>:>>*>>>>**>>>:>>O",
"O>>>>-:>>>>>**::::*>>>>:**>>::>O",
"O>>>:-:>>>>*$$>:::::>>>***:>>:>O",
"O*>:-:>>>>>$#**>::>:&=***$$:>:*O",
"O***:>***>>$*$*>>>>**$$***$$***O",
"O@*********$*$********$$$$*$$$OO",
".XXXXOXXo.oo+o@@OXOXXXOXOOOXXO. "
};
